<?xml version="1.0" encoding="UTF-8"?>
<svg id="Layer_1" data-name="Layer 1" xmlns="http://www.w3.org/2000/svg" xmlns:xlink="http://www.w3.org/1999/xlink" version="1.1" viewBox="0 0 408.9 267.2">
  <defs>
    <style>
      .cls-1 {
        fill: #b91923;
      }

      .cls-1, .cls-2, .cls-3, .cls-4, .cls-5 {
        stroke-width: 0px;
      }

      .cls-6 {
        clip-path: url(#clippath);
      }

      .cls-2 {
        fill: #fdf9e8;
      }

      .cls-3, .cls-7, .cls-8 {
        fill: none;
      }

      .cls-7 {
        stroke-miterlimit: 4;
        stroke-width: 1.5px;
      }

      .cls-7, .cls-8 {
        stroke: #053c96;
      }

      .cls-9 {
        font-family: DailyGrind, 'Daily Grind - Demo';
        font-size: 35px;
        letter-spacing: 0em;
      }

      .cls-9, .cls-4 {
        fill: #053c96;
      }

      .cls-9, .cls-10 {
        isolation: isolate;
      }

      .cls-11 {
        clip-path: url(#clippath-1);
      }

      .cls-5 {
        fill: #002f85;
      }

      .cls-8 {
        stroke-width: 1.5px;
      }
    </style>
    <clipPath id="clippath">
      <rect class="cls-3" x="270.5" y="47.3" width="99.2" height="38.8"/>
    </clipPath>
    <clipPath id="clippath-1">
      <rect class="cls-3" x="275.9" y="403.5" width="73.6" height="46"/>
    </clipPath>
  </defs>
  <g id="Rectangle_908" data-name="Rectangle 908">
    <rect class="cls-2" x="8.3" y="6.7" width="392.4" height="479.1" transform="translate(-8.5 7.3) rotate(-2)"/>
    <rect class="cls-7" x="9" y="7.5" width="390.9" height="477.6" transform="translate(-8.5 7.3) rotate(-2)"/>
  </g>
  <g id="Rectangle_907" data-name="Rectangle 907">
    <rect class="cls-2" x="9" y="6.7" width="392.5" height="479.3"/>
    <rect class="cls-8" x="9.8" y="7.5" width="391" height="477.8"/>
  </g>
  <g id="Group_649" data-name="Group 649">
    <g class="cls-6">
      <g id="Group_23" data-name="Group 23">
        <path id="Path_4" data-name="Path 4" class="cls-5" d="M360.7,77.2c.2.1.4.3.6.4.3.3.4.8,0,1.1,0,0,0,0-.1.1-.1,0-.4.2-.2.4s.3,0,.5-.2c.2-.3.5-.6.8-.9.4-.3,1-.2,1.4,0,.3.2.4.6.2,1,0,0,0,.1-.2.2,0,0-.2.2-.3.3s-.2.2,0,.3.3,0,.4,0c.3-.3.6-.6.8-.9.3-.4.5-.4.8-.3.4.1.7.5.6,1-.1.5-.4,1-.7,1.4-1,1-2.2,1.6-3.6,1.8-.6.1-1.2.1-1.8,0-.9,0-1.8,0-2.7-.1-2.1-.3-4.1-.8-6-1.5-.6-.2-1.2-.5-1.7-.9-.9-.6-1.9-1-2.9-1.4-.5-.3-1.1-.5-1.6-.8-1.1-.5-2.3-.8-3.5-1-1.4-.3-2.8-.2-4.3,0-2.4.4-4.8,1-7.2,1.7-.9.3-1.8.4-2.7.7-.6.2-1.3.1-1.9.2-2.3.4-4.7.5-7.1.5-.9,0-1.8,0-2.7-.1-1.6,0-3.2,0-4.8.3-1.1.3-2.2.7-3.1,1.3-.9.5-1.7,1.1-2.5,1.5-1.2.6-2.5.8-3.8.6-.9-.1-1.7-.4-2.6-.6-.5-.3-1.1-.5-1.7-.6-1.3-.3-2.7-.3-4,0-.3.2-.6.4-.9.6-.4.3-.8.5-1.2.7-.3.1-.5.3-.7.5-.5.6-1.2,1.1-2,1.3-.4.2-.8,0-1-.2-.3-.3-.4-.8-.2-1.1.3-.6.7-1.1,1.2-1.4,0,0,.2-.1.1-.3,0-.1-.2,0-.3,0-.2.3-.5.5-.8.6-.3.2-.6.5-.7.9-.2.3-.3.5-.7.4-.3-.2-.4-.5-.4-.8.1-.6.4-1.1.8-1.5.2-.2.3-.4.6-.5,0,0,.1,0,0-.2,0,0-.2,0-.2,0,0,0,0,0,0,0-.4.3-.8.6-1.1,1-.2.3-.4.6-.4,1,0,.2-.3.4-.5.4s-.3-.2-.4-.3c-.2-.5-.1-1.1.2-1.6.4-.8,1.1-1.5,2-1.9.6-.2,1.1-.6,1.6-.9,1.7-.9,3.6-1.3,5.5-1.1.8.1,1.6.1,2.4,0,.5,0,1,0,1.5,0,.6,0,1.1,0,1.6-.2.4,0,.9-.1,1.3-.2.7,0,1.2-.5,1.2-1.2,0-.2,0-.3,0-.5,0-.3-.2-.5-.3-.8,0-.1-.1-.2-.2-.2-.1,0,0,.1,0,.2,0,.5-.4.8-.8.7-1.1-.3-2.2-.1-3.2-.5-.7-.2-1.4-.3-2.2-.3-1.4-.1-2.7-.1-4.1,0-.6.1-1.1.5-1.4,1-.4.6-.9,1.2-1.4,1.8-.3.3-.7.6-1.1.8-.4.2-.9,0-1.2-.4,0,0,0-.2,0-.3,0,0,0-.2,0-.2,0,0-.1,0-.2.1-.2.2-.4.4-.6.5-.3.2-.7.2-1,0-.3-.2-.3-.6-.2-1,.3-.7.7-1.2,1.2-1.7,0,0,.2-.2,0-.3s-.2,0-.3,0c-.4.6-.9,1.2-1.3,1.8-.1.2-.3.4-.5.5-.2.2-.4.2-.6,0-.3-.2-.6-.4-.9-.7-.2-.2-.3-.6-.1-.9.6-1.3,1.7-2.4,2.9-3,1.4-.7,2.7-1.3,4.1-1.8,1.5-.6,3.1-.8,4.8-.6,1.5,0,3-.1,4.6,0,.7,0,1.4-.2,2-.4.5-.2.8-.6.8-1.2,0-.7-.1-1.4-.5-2-.8-1.4-1.9-2.5-3.2-3.3-.7-.4-1.4-.7-2-1.2-1-.6-1.9-1.4-2.6-2.2-.3-.3-.3-.9,0-1.2,0,0,0,0,0,0,.4-.4.9-.5,1.2-.1.7.6,1.5.9,2.4,1.2.3,0,.5.2.8.3.1,0,.2.1.3,0s0-.2,0-.4c-.2-.4-.6-.7-.9-.9-1-.6-1.9-1.6-2.4-2.6-.4-.7-.7-1.4-1-2.1-.2-.5-.2-1,0-1.5,0-.3.3-.3.6-.2.1,0,.2.1.3.2.2,0,.3.1.5,0s0-.2-.2-.3c-.4-.3-.4-.8-.1-1.2.1-.1.2-.2.4-.3.2,0,.4,0,.6,0,.7.2,1.4.5,2.1.9.9.5,1.9.9,2.9,1.4.5.3,1.1.3,1.7.2.5-.1,1-.2,1.5-.3,1-.2,2.1-.1,3.1.3.8.3,1.6.6,2.4.8.6.2,1.2.4,1.8.5.8,0,1.6,0,2.5,0,.7-.1,1.5-.1,2.2,0,.7.2,1.4.6,2.1.8,1,.4,2,.9,2.9,1.5.5.3,1,.6,1.4,1,.2.2.4.5.3.8-.2.3-.5.5-.8.5-.5,0-.9,0-1.4,0-1.1,0-2.2.3-3.3.5,0,0-.2,0-.2.1s.1.1.2.2c1.1.4,2.1.9,3,1.7.2.2.5.4.7.6.2.2.3.5.1.8,0,.1-.2.2-.4.2-.4.1-.8.2-1.1.2-1.2.3-2.5.3-3.8,0-.2,0-.4,0-.5,0s0,.4,0,.6c.3.4.7.7,1.1.9.3.1.6.2.8.3.9.4,1.9.6,2.9.4.6,0,1.3-.3,1.9-.3,1.7-.2,3.3-.5,4.9-.9,1.7-.3,3.3-.8,4.8-1.5,1.2-.6,2.5-1,3.6-1.6.6-.3,1.2-.6,1.9-.7.3,0,.6-.2.8-.3,1.2-.4,2.5-.7,3.8-1.1.8-.3,1.7-.4,2.6-.2.8,0,1.6,0,2.3-.2,1.2-.3,2.4-.7,3.6-1.1.7-.2,1.4-.4,2.1-.6,1.7-.5,3.3-1.1,4.9-1.8.6-.3,1.3-.5,2-.8.3-.2.7-.4,1-.5.9-.5,1.8-.8,2.6-1.4.9-.6,1.7-1.3,2.4-2,.3-.3.6-.3.8,0,.3.2.3.6.1.9-.2.3-.5.6-.7.9-.9,1.3-2,2.4-3.3,3.3-.9.7-1.9,1.4-2.9,2-.6.4-1.2.7-1.9,1-1,.5-2.2.8-3.3,1.2-.5.2-1,.4-1.4.7-.8.4-1.6.7-2.5.9-.2,0-.4,0-.4.3,0,.2.2.3.4.4.9.6,1.6,1.4,2.2,2.3.5.9.9,1.9,1.1,2.9.4,1.3,1.2,2.5,2.4,3.2.5.3,1,.5,1.6.6,1.7.4,3.5.5,5.3.3,1.1,0,2.2-.3,3.2-.7.1,0,.3,0,.4,0,.2,0,.4.1.5.3,0,.2,0,.4-.1.6-.1.1-.3.3-.4.4,0,0-.3.2-.2.3,0,.2.3,0,.4,0,.4-.2.7-.4,1.1-.5.4-.2.9,0,1.2.3.2.2.2.4,0,.6,0,0,0,0-.1,0-.2.1-.4.3-.6.4,0,0-.1,0-.1.2,0,0,0,0,0,0,0,.1.1.1.2.1.4,0,.8-.2,1.1-.5.7-.5.8-.5,1.4.2.2.3.2.4,0,.8-.6,1.5-1.9,1.9-3.3,2-1.6,0-3.3,0-4.9-.3-.2,0-.5,0-.7,0M344.8,70.9c0-1.2-.6-2.3-1.6-3-.6-.4-1.2-.8-1.8-1-.4-.2-.7-.4-.9-.7-.2-.3-.2-.7.1-.9,0,0,0,0,.1,0,.3-.2.7-.2,1,0,.3.2.6,0,.8-.2.2-.2.3-.4.1-.6-.6-.9-1.7-1.2-2.6-.8-1.1.5-1.7,1.6-1.6,2.8,0,.5.2,1,.6,1.4.5.5,1.1.9,1.8,1,.6.2,1.2.5,1.6,1,.3.3.3.6,0,.9-.2.3-.6.3-1,.2-.2,0-.3-.2-.4-.3-.2-.2-.5-.2-.7,0-.3.3-.6.6-.8.9-.2.2-.1.5,0,.7.5.6,1.1,1.1,1.9,1.2,1.5.3,3.5-.9,3.2-2.6M333,65.8c-.9.1-1.8.5-2.6,1-.2.1-.3.4-.2.6,0,0,0,0,0,.1.2.3.3.5.3.8,0,.3.2.6.3.8.5.9.8,1.8,1.2,2.8.3.6.5,1.2.7,1.9.2.6.9.8,1.4.6,0,0,0,0,.1,0,.4-.2.8-.4,1.2-.5.9-.3,1.6-1.2,1.5-2.2,0-.9-.4-1.8-1-2.4-.4-.5-.7-1-.9-1.6-.2-1-1.1-1.8-2.1-1.8M321.4,69.1h-.2c-1.1.2-2.2.4-3.3.5-.5,0-.6.3-.6.7,0,.6.3.9.8.8.5,0,1.1-.2,1.6-.3.3-.1.5,0,.5.4,0,0,0,.2,0,.3-.6,1.7-1,3.4-1.6,5,0,.2,0,.5,0,.7.2.4.6.6,1,.4,0,0,0,0,0,0,1.1-.4,2.3-.7,3.5-.9.2,0,.4,0,.6,0,.3,0,.4-.3.4-.5,0,0,0,0,0-.1,0-.2-.1-.5-.2-.7-.2-.6-.4-.7-1-.5-.4.2-.9.3-1.3.3-.4,0-.5-.2-.4-.5.2-.7.4-1.4.6-2.1.2-.8.5-1.6.7-2.4.1-.4,0-.9-.5-1,0,0-.2,0-.3,0M325.6,75.6c0,.2,0,.4,0,.6,0,.2.2.3.4.4.2,0,.4-.1.5-.3,0-.1.1-.3,0-.4,0-.3.1-.5.3-.7.6-.7,1.7-.8,2.5-.3.2.2.5.4.6.6.2.3.6.4.9.2.3-.2.3-.5,0-.9,0,0,0-.1-.1-.2-.4-.5-.7-1-1-1.5-.7-1-1.2-2.1-2-3.1-.3-.5-.7-.9-1.1-1.3-.3-.3-.6-.2-.9.1-.2.2-.3.5-.3.8-.2,2,0,4-.1,6M360.5,77.2c-.3-.2-.7-.3-1-.2-.9.1-1.7.1-2.6,0-.5-.1-.9-.2-1.4-.2-.4,0-.7,0-1-.3-1.2-1-2.4-2.1-3.5-3.2-.7-.7-1.1-1.6-1.3-2.6,0-.2,0-.5-.2-.7-.2-.4-.2-.8-.2-1.3,0-.2-.1-.5-.2-.7-.2-.4-.5-.8-.7-1.2,0,0,0-.2-.1-.2-.1,0,0,.2,0,.2.3.3.2.8.4,1.1.4.9.6,1.8.7,2.8.1,1.2.7,2.3,1.6,3.1.7.7,1.5,1.3,2.3,2,.7.8,1.5,1.4,2.4,2,.3.2.8.3,1.2.3.9,0,1.9-.2,2.7-.7.4-.2.8-.2,1.2-.4M309,74.6c-.5,0-.9.2-1.2.6-.3.4-.4.9-.4,1.4,0,.6.2,1.2.6,1.7.2.2.4.3.7.3.7,0,1.3-.3,1.7-.9.5-.6.6-1.6.1-2.3-.3-.6-.9-.9-1.6-.8M304,70.6h0c0-.6,0-1.2,0-1.9,0-.4.3-.7.7-.7,0,0,.2,0,.3,0,.3,0,.6.3.8.6.5.8.6,1.9.2,2.8-.2.6-.6,1.1-1.1,1.5-.1,0-.3.3-.2.4,0,.2.3,0,.4,0,.1,0,.2,0,.3-.2,1.1-.9,1.6-2.2,1.3-3.6-.2-.8-.7-1.5-1.5-1.8-.4-.2-.8-.2-1.1,0-.3.3-.5.7-.4,1.2,0,.2,0,.4,0,.7,0,.8,0,1.6-.1,2.5,0,.2,0,.4,0,.7,0,.3.3.6.7.7.1,0,.3,0,.3-.1s0-.2-.1-.2c-.2-.1-.3-.4-.3-.7v-1.8M311.3,71.5c.3,0,.6,0,.9-.2.5-.5,1-.9,1.4-1.4.2-.2.1-.4-.1-.4-.4,0-.6-.3-.9-.6-.1-.2-.3-.3-.6-.4-.6,0-.6-.2-.6-.8,0-.2,0-.6-.2-.6s-.3.4-.3.6c0,1.1-.1,2.1-.3,3.2,0,.2-.3.4-.1.6.2.2.5,0,.7,0h0M313.1,77.2q0-.8.6-1.3h0c.1-.1.2-.2.1-.4,0-.1-.2-.2-.4-.1-.1,0-.2,0-.4.1-.2,0-.4,0-.5-.2-.1-.2,0-.4,0-.6,0,0,.2-.2.3-.2.2-.2.5-.3.8-.4.2,0,.2-.2.2-.4,0-.1-.2-.2-.3-.2,0,0,0,0,0,0-.6.2-1.1.4-1.7.6-.2,0-.3.4-.3.6,0,0,0,0,0,0,.3.8.4,1.7.7,2.5,0,.2.1.5.5.5s.3-.3.4-.5M308.5,72.1c-.3-.4-.7-.7-.6-1.3.1-.4.3-.8.6-1.1.1-.2.4-.3.6-.2.2.1.3.3.3.6,0,.6-.2,1.1-.5,1.5,0,0-.2.2-.1.3,0,0,.2,0,.3,0,.2,0,.5,0,.7-.1.2,0,.2-.1.1-.3-.2-.3-.2-.7-.1-1,0-.3.1-.6.2-.9,0-.2,0-.4-.2-.5,0,0-.2,0-.3,0-.2,0-.4,0-.7,0-.1,0-.3,0-.4,0-.7.4-1.1,1.3-.9,2.1.2.4.4.8.9.8M314.7,58.9c.2,0,.5,0,.7,0,.1,0,.2-.2.2-.3,0-.2,0-.2-.2-.3-1.1-.4-2.3-.6-3.4-.7-.1,0-.3,0-.3.1,0,.2.1.2.2.2.3,0,.7.2,1,.3.5.2.6.4.2.8,0,0-.1.1,0,.2,0,0,.2.1.3,0,.1,0,.3-.1.4-.2.3-.2.6-.3.9-.3M302.4,59.9c.7,0,1.1-.5.9-1-.4-.6-1.1-.9-1.8-.7-.3.1-.4.5-.3.8.2.5.7.8,1.2.9M305.7,59.2c.1-.9-.6-1.3-1.2-1.8-.3-.2-.6-.1-.7,0-.1.3,0,.4.3.5.3.2.5.4.7.7.2.3.4.7.4,1.1,0,.2,0,.4.3.4s.3-.2.3-.4c0-.2,0-.4,0-.6M337.1,66.4c0-.6-.2-1.1-.5-1.7-.1-.3-.4-.3-.6-.1-.3.2-.4.4-.2.7.3.4.6.8.8,1.2,0,.1.2.3.3.2s.2-.2.2-.4M313.5,62.2c-.3,0-.6.2-.6.4s.3.5.6.6c.3,0,.7-.2.7-.5s-.3-.4-.8-.5M286.3,77.3c-.2,0-.4.2-.5.5,0,0,0,.2,0,.3.1,0,.2,0,.2-.2,0-.2.1-.4.2-.6M348.1,66.3c0,0,0-.2,0-.3,0-.2-.3-.3-.4-.3-.2.1,0,.2,0,.4,0,.1,0,.2.2.3.1,0,.2,0,.2-.1"/>
        <path id="Path_5" data-name="Path 5" class="cls-1" d="M285.2,57.4c.3,0,.6,0,.9-.1.5,0,.9,0,1.4,0,.2,0,.4.2.4.4,0,.2-.2.3-.4.3-.4.1-.9.2-1.4.2,0,0-.2,0-.2,0s0,.1.1.2c.4.4,1,.5,1.6.2.8-.2,1.6-.3,2.4-.4,0,0,.2,0,.3,0,.2,0,.4,0,.4.3,0,.2-.2.3-.4.3-.9.1-1.7.4-2.5.9-1.3.8-2.9,1-4.4.7-.9-.2-1.8-.3-2.8-.2-.6,0-1.3-.2-1.8-.5-.6-.2-1.2-.6-1.6-1.1-.7-.7-1.4-1.2-2.2-1.6-.4-.3-.8-.6-1.1-1-.1-.1-.1-.3,0-.5.1-.2.3,0,.4,0,.9.5,1.9.9,3,1,.4,0,.8.3,1.1.5.3.2.6.4.9.6.2.1.3.1.5,0s0-.3-.1-.4c-.2-.2-.5-.3-.8-.5-.9-.7-2-.6-3-.9-.3,0-.6-.2-.9-.4-1-.6-1.7-1.4-2.2-2.5,0-.2-.1-.4-.1-.6,0-.2,0-.4.2-.5.2,0,.4,0,.5.1.4.3.7.7,1,1.1.2.3.5.5.8.6.1,0,.3,0,.4,0,0-.1,0-.3,0-.4-.1-.2-.3-.3-.4-.5-.6-.8-1-1.7-1.6-2.5-.5-.8-1.2-1.4-1.9-2-.2-.1-.4-.2-.6-.3-.1,0-.2-.1-.2-.3,0-.1.1-.2.2-.3.2-.1.4,0,.7,0,1.1,0,2.1.4,3,1,.4.3.8.6,1.2.9.5.4,1,.7,1.6.8.6.2,1.1.3,1.7.5.1,0,.3,0,.5,0,.3-.1.4-.3.2-.6-.3-.5-.7-.8-1.3-1-.6-.2-1.3-.4-2-.5-.2,0-.3-.2-.3-.3,0-.2,0-.4.2-.4.4-.1.7-.2,1.1-.2,1,0,2,.1,2.8.6.6.3,1.2.7,1.6,1.1.3.3.6.6,1,.9.4.3.8.4,1.3.4.1,0,.3,0,.3-.2s-.1-.2-.2-.2c-.7-.3-1.4-.8-1.9-1.4-.2-.2-.4-.5-.6-.7-.2-.2-.1-.4,0-.6,0,0,0,0,0,0,.1-.2.4-.2.6,0,0,0,0,0,0,0,.7.6,1.5,1,2.4,1.1,2.5.6,4.6,2.3,5.8,4.5.2.3.3.7.3,1.1,0,.2,0,.5,0,.7,0,.2,0,.4-.1.4-.2,0-.4,0-.5-.2-.2-.2-.3-.5-.4-.7-.4-.7-1-1.3-1.8-1.7-.1,0-.2-.2-.3,0s0,.2.1.3c.2.3.5.6.7.9,0,.1.1.2.2.3,0,.1,0,.3,0,.4-.1,0-.3,0-.3,0-.8-.8-2-.9-3-1.2-.2,0-.4-.1-.6-.2,0,0-.2-.1-.3,0s0,.2.1.2c.6.5,1.2.9,1.9,1.1.8.4,1.6.9,2.2,1.6.1.1.2.3,0,.5-.1.2-.3.1-.5,0-.4-.3-1-.5-1.4-.7-.2-.1-.3-.2-.5-.2-.9-.1-1.7-.4-2.5-.9-.8-.5-1.5-1-2.2-1.6,0,0,0,0,0,0-.2,0-.4-.2-.5,0-.1.2.1.3.2.4.5.4,1.1.9,1.5,1.4.7.8,1.7,1.3,2.8,1.4.2,0,.5,0,.5.4s-.3.4-.5.3c-.5,0-1.1-.1-1.6-.2,0,0-.2,0-.3,0s0,.1.1.2c.4.3.9.5,1.4.4"/>
        <path id="Path_6" data-name="Path 6" class="cls-5" d="M334.1,70.1c.7,0,1.3.5,1.3,1.2-.1.4-.4.8-.8,1-.4.1-.8,0-1.1-.2-.3-.3-.5-.8-.5-1.2,0-.3.1-.5.3-.6.2-.1.4-.2.7-.2"/>
        <path id="Path_7" data-name="Path 7" class="cls-5" d="M333.4,67.8c0,.4-.4.8-.8.8-.3,0-.7-.5-.7-.8,0-.4.4-.7.8-.7.4,0,.7.3.7.7"/>
        <path id="Path_8" data-name="Path 8" class="cls-5" d="M328.3,72.5c0,.4-.5.8-1,.9-.4,0-.7-.2-.7-.7,0-.5,0-1-.1-1.5,0-.2,0-.4.2-.5.2,0,.4,0,.5,0,.4.5.8,1.2,1,1.8"/>
        <path id="Path_9" data-name="Path 9" class="cls-5" d="M310.2,76.4c0,.6-.5,1.2-1.1,1.2-.6,0-1-.6-1-1.2,0-.6.5-1.1,1-1.2.6,0,1,.6,1.1,1.2"/>
        <path id="Path_10" data-name="Path 10" class="cls-5" d="M311.2,70.6c0-.3.3-.5.6-.6.2,0,.6.4.6.6,0,.3-.2.6-.6.6,0,0,0,0,0,0-.3,0-.5-.3-.5-.6"/>
        <path id="Path_11" data-name="Path 11" class="cls-5" d="M312.7,69.7c0,.2-.2.3-.4.3-.3,0-.5-.2-.5-.6,0-.2.1-.4.3-.4.4,0,.6.2.6.7"/>
      </g>
    </g>
  </g>
  <g id="Welcome_" data-name="Welcome " class="cls-10">
    <text class="cls-9" transform="translate(66.5 82.3)"><tspan x="0" y="0">Welcome</tspan></text>
  </g>
  <g id="Group_650" data-name="Group 650">
    <g class="cls-11">
      <g id="Group_612" data-name="Group 612">
        <path id="Path_9057" data-name="Path 9057" class="cls-4" d="M341.7,421c-1.1.9-2.4,1.8-3.7,2.5-.3.2-.6.5-.7.9-.6,2.1-1.5,4-2.6,5.8-1,1.8-2.8,3.1-4.8,3.5-1.4.2-2.7-.4-3.4-1.6-.5-.8-.8-1.8-.9-2.8-.4.7-.7,1.4-1.1,2.1-.7,1.3-1.6,2.5-2.7,3.4-1.7,1.5-4.1,1.8-6,.8-1.3-.7-2.3-1.9-2.7-3.4-.2.4-.4.9-.7,1.3-.9,1.6-2.1,2.9-3.7,3.8-.7.5-1.5.7-2.4.6-1.1-.1-2.1-.9-2.5-2-.4-1.1-.6-2.2-.5-3.4.3-2.9,1.6-5.7,3.6-7.8,1-1.2,2.3-2.1,3.8-2.5.6-.2,1.1-.2,1.7,0,.3,0,.6.2.8.5,0,.2.2.1.3,0,.2,0,.3-.2.5-.2.6-.2,1.2.1,1.4.7,0,.1,0,.2,0,.4,0,.7,0,1.3-.3,1.9-.6,1.8-.7,3.8-.4,5.7.1,1.7,1.6,3,3.3,2.9,1.1-.1,2.1-.7,2.8-1.5,1.2-1.3,2.1-2.9,2.6-4.6,1.1-3.2,1.9-6.5,2.4-9.8.5-3.1,1-6.2,1.5-9.4,0-.4,0-.7.1-1.1,0-.1,0-.3,0-.4,0-.6.6-1.1,1.3-1.1.6,0,1.1.6,1.1,1.2,0,.7,0,1.4-.2,2.1-.7,4.3-1.4,8.5-2.1,12.8-.2,1.4-.4,2.8-.4,4.2,0,1.3,0,2.5.5,3.8.5,1.4,1.2,1.7,2.5,1.1,1.1-.5,2-1.4,2.6-2.5.8-1.3,1.5-2.8,2-4.2.2-.4-.1-.4-.4-.5-2-.4-3.6-1.9-3.9-4-.3-1.9.8-3.7,2.6-4.2,1.3-.2,2.6.4,3.3,1.5.7,1.1,1.2,2.3,1.2,3.6.6-.3,1.3-.7,1.8-1.2.6-.5,1.2-1,2-1.2.2,0,.4-.2.6-.4,1.2-.8,2.5-1.4,3.8-1.9.7-.3,1.6-.5,2.4-.4.6,0,1.1.5,1.1,1.1,0,0,0,.2,0,.3,0,.3-.3.5-.5.6-.5.1-1,.2-1.5.3-1.2.2-2.3.8-3.1,1.7-.7.6-.7,1.6-.2,2.3,0,0,.2.2.3.2.8.8,1.6,1.5,2.3,2.4,1.1,1.3,1.8,2.9,1.9,4.6.4,3-1.7,5.8-4.7,6.2-2,.3-3.9-.5-5.1-2.1-.4-.4-.4-1,0-1.4,0,0,0,0,0,0,.5-.3,1.1-.3,1.5,0,.3.2.5.4.8.7,1.3,1.1,3.3,1,4.4-.3.1-.1.2-.3.3-.5.6-.9.8-2,.6-3.1-.3-1.2-.8-2.2-1.7-3.1-.4-.5-.9-.9-1.3-1.3-1-.9-1.9-1.9-1.8-3.5M305.5,433.2c0,.6.1,1.3.3,1.9.1.4.6.7,1,.6.5,0,.9-.3,1.2-.6,1.3-1,2.3-2.3,3-3.8.9-2,1.5-4.1,1.8-6.2.2-.9.2-.9-.7-.9-.8,0-1.5.3-2.2.7-.9.7-1.8,1.5-2.4,2.4-1.3,1.7-2.1,3.8-2.2,5.9M333.9,418.2c-.2,0-.5,0-.6.3-.3.4-.5.9-.4,1.4.2,1.1,1,2.1,2.1,2.3.4,0,.6,0,.6-.5,0-1-.2-2.1-.8-2.9-.2-.3-.6-.5-1-.5"/>
        <path id="Path_9058" data-name="Path 9058" class="cls-4" d="M309.7,408.3c-.1,0-.3,0-.4,0-2.7.9-5.3,1.8-7.9,2.7-4.3,1.4-8.6,2.5-13.1,3.2-2.5.4-5,.6-7.5.6-.7,0-1.4,0-2.1,0-.6,0-1.1-.4-1.1-.9,0-.5.4-1,1-1,.2,0,.5,0,.7,0,2,0,4,0,6-.3,1.2-.1,2.4-.3,3.6-.5,5.4-1,10.8-2.4,16-4.3,2-.7,3.9-1.4,5.9-1.9.5-.2,1-.2,1.5-.2.7,0,1.1.7,1.1,1.3,0,.2,0,.3-.1.4-.3.5-.6,1-1.1,1.4-1.7,1.7-3.4,3.3-5.2,4.9-2.5,2.4-4.9,4.8-7.2,7.3-1.5,1.6-2.9,3.1-4.4,4.7-5.5,5.9-10.6,12.2-15.2,18.8-.2.2-.3.5-.5.7,0,0-.1.1,0,.2,0,0,.2,0,.3,0,.6-.1,1.2-.3,1.8-.4,2.2-.6,4.4-1,6.7-1.3,2.5-.4,5.1-.7,7.6-.9,2-.2,4-.3,6-.5s4-.4,5.9-.5c1.8-.2,3.6-.4,5.4-.7.2,0,.5,0,.7,0,.5.1.7.4.8.8,0,.5-.2.9-.7,1,0,0,0,0,0,0-1,.3-2.1.4-3.2.5-2.1.2-4.3.5-6.4.6-1.8.2-3.7.3-5.5.4-2.5.2-4.9.4-7.3.7-3.9.5-7.8,1.3-11.6,2.2-.5.2-1.1.2-1.6,0-.8-.1-1.4-.9-1.3-1.7,0-.1,0-.2,0-.3.2-.7.6-1.3,1-1.9.9-1.3,1.8-2.5,2.8-4,1.4-1.9,3-3.9,4.6-5.9,2.7-3.3,5.6-6.5,8.5-9.7,1.3-1.4,2.6-2.7,3.8-4.1,2.7-2.9,5.5-5.6,8.3-8.4,1-1,2.1-1.9,3.1-2.9,0,0,.2-.1.3-.3"/>
        <path id="Path_9059" data-name="Path 9059" class="cls-4" d="M339.3,408.1c.1.6-.3,1.1-.8,1.2-.5,0-1-.2-1.2-.7-.1-.3-.2-.6-.3-1-.2-.8-.5-1.6-.8-2.3,0,0,0-.2,0-.2-.3-.7-.2-1.2.3-1.4.6-.3,1.3-.1,1.6.5.4.8.8,1.6,1,2.5.2.5.3.9.3,1.4"/>
      </g>
    </g>
  </g>
</svg>