<?xml version="1.0" encoding="UTF-8"?>
<svg id="Layer_1" data-name="Layer 1" xmlns="http://www.w3.org/2000/svg" version="1.1" viewBox="0 0 19.7 19.6">
  <defs>
    <style>
      .cls-1 {
        fill: #00317e;
        stroke-width: 0px;
      }
    </style>
  </defs>
  <text></text>
  <path id="Path_2120" data-name="Path 2120" class="cls-1" d="M8.4,1.5l1-1c.4-.4,1.1-.4,1.5,0h0s8.4,8.4,8.4,8.4c.4.4.4,1.1,0,1.5h0s-8.4,8.4-8.4,8.4c-.4.4-1.1.4-1.5,0h0s-1-1-1-1c-.4-.4-.4-1.1,0-1.5h0s5.2-5,5.2-5H1.2c-.6,0-1-.5-1-1v-1.4c0-.6.5-1,1-1h12.5l-5.2-5c-.4-.4-.4-1,0-1.5,0,0,0,0,0,0h0"/>
</svg>