<?xml version="1.0" encoding="UTF-8"?>
<svg id="Layer_1" data-name="Layer 1" xmlns="http://www.w3.org/2000/svg" version="1.1" viewBox="0 0 243.5 71.3">
  <defs>
    <style>
      .cls-1 {
        stroke-width: 0px;
      }

      .cls-1, .cls-2 {
        fill: #b71923;
      }

      .cls-2 {
        stroke: #b71923;
        stroke-miterlimit: 4;
        stroke-width: 2px;
      }

      .cls-3 {
        isolation: isolate;
      }
    </style>
  </defs>
  <g class="cls-3">
    <path class="cls-1" d="M58.5,1.6s5.1,28.9,6.7,38.1c0,.3.8,1,.8,1h-7.2s.4-.6.4-1l-1.9-10.8h-6.8l-1.9,10.8c0,.3.5,1,.5,1h-7.2s.8-.6.8-1c1.6-9.2,6.7-38.1,6.7-38.1,0-.5-.5-1-.5-1h10.1s-.5.5-.5,1ZM56.3,22.9l-2.3-13.4-2.4,13.4h4.7Z"/>
    <path class="cls-1" d="M89.1,29.3c0,5.5-4.1,11.4-11.7,11.4s-8-1.9-10.7-5.4c-.2-.3-.4-.5-.9-.6l5.5-4.1c0,.4.2.9.4,1.1,1.8,2.3,3.5,3.1,5.3,3.1,3.6,0,6.2-1.5,6.2-5.5,0-8.2-16.2-7.6-16.2-19.2s3-9.4,10.9-9.4,7,2,9.8,5.4c.2.3.4.5.9.6l-5.4,4.1c0-.4-.3-.9-.5-1.1-1.8-2.3-3-3.1-4.8-3.1s-5,.7-5,4.2c0,6.1,16.2,7.2,16.2,18.6Z"/>
    <path class="cls-1" d="M130,29.3c0,5.5-4.1,11.4-11.7,11.4s-8-1.9-10.7-5.4c-.2-.3-.4-.5-.9-.6l5.5-4.1c0,.4.2.9.4,1.1,1.8,2.3,3.5,3.1,5.3,3.1,3.6,0,6.2-1.5,6.2-5.5,0-8.2-16.2-7.6-16.2-19.2s3-9.4,10.9-9.4,7,2,9.8,5.4c.2.3.4.5.9.6l-5.4,4.1c0-.4-.3-.9-.5-1.1-1.8-2.3-3-3.1-4.8-3.1s-5,.7-5,4.2c0,6.1,16.2,7.2,16.2,18.6Z"/>
    <path class="cls-1" d="M150.8,34l-2.2,7.2s-.5-.6-.9-.6h-14.7s.7-.6.7-1V1.6c0-.4-.7-1-.7-1h13.8c.4,0,.9-.6.9-.6l2.2,7.2s-.5-.7-.9-.7h-9.4v6.5h5c.4,0,.9-.6.9-.6l2.2,7.2s-.5-.6-.9-.6h-7.2v15.7h10.4c.4,0,.9-.6.9-.6Z"/>
    <path class="cls-1" d="M171.6,34l-2.2,7.2s-.5-.6-.9-.6h-14.7s.7-.6.7-1V1.6c0-.4-.7-1-.7-1h13.8c.4,0,.9-.6.9-.6l2.2,7.2s-.5-.7-.9-.7h-9.4v6.5h5c.4,0,.9-.6.9-.6l2.2,7.2s-.5-.6-.9-.6h-7.2v15.7h10.4c.4,0,.9-.6.9-.6Z"/>
    <path class="cls-1" d="M194.9,40.7h-7.2s.7-.6.7-1v-5.3l-7.3-18.7v23.9c0,.3.6,1,.6,1h-7.2s.7-.6.7-1V1.6c0-.4-.7-1-.7-1h7.2s-.6.5-.6,1v.5l7.3,18.7V1.6c0-.4-.7-1-.7-1h7.2s-.6.5-.6,1v38.1c0,.3.6,1,.6,1Z"/>
    <path class="cls-1" d="M212.5,40.7s.7-.6.7-1V1.6c0-.4-.7-1-.7-1h7.2s-.6.5-.6,1v38.1c0,.3.6,1,.6,1h-7.2Z"/>
    <path class="cls-1" d="M243.1,40.7h-7.2s.7-.6.7-1v-5.3l-7.3-18.7v23.9c0,.3.6,1,.6,1h-7.2s.7-.6.7-1V1.6c0-.4-.7-1-.7-1h7.2s-.6.5-.6,1v.5l7.3,18.7V1.6c0-.4-.7-1-.7-1h7.2s-.6.5-.6,1v38.1c0,.3.6,1,.6,1Z"/>
  </g>
  <path id="Path_1067" data-name="Path 1067" class="cls-2" d="M24.6,20.5c-4.4-.8-8.9-.5-13,1-1.9.6-3.6,1.8-4.9,3.3-1.1,1.4-1.9,3.1-2.1,4.9-.4,2.9,0,5.9,1,8.6.4,1.2,1,2.4,1.5,3.6,1.4,2.9,3,5.7,4.8,8.7.6,1,1.4,2.3,2.2,3.5,2.9,4.5,5.9,8.8,9.2,13,.4.4.4,1.1,0,1.5-.4.4-1.1.4-1.5,0-3.1-3.9-6-8-8.8-12.2-2.7-4.1-5.3-8.4-7.6-12.9-2.1-4.1-3.8-8.7-3.2-13.4.2-2,.9-4,2-5.7,1.3-1.8,3-3.3,5-4.2,4.9-2.2,10.4-2.7,15.7-1.6.6.2.9.7.7,1.3-.2.6-.7.9-1.3.7"/>
  <path id="Path_1068" data-name="Path 1068" class="cls-2" d="M25.8,58.9l-1.9,9.8c-.2.6-.7.9-1.3.7l-12.7-3.5c-.6-.2-.9-.7-.7-1.3.2-.5.7-.9,1.3-.7l12.7,3.5-1.3.7,1.9-9.8c.2-.6.7-.9,1.3-.7.6.2.9.7.7,1.3"/>
</svg>