<?xml version="1.0" encoding="UTF-8"?>
<svg id="Layer_1" data-name="Layer 1" xmlns="http://www.w3.org/2000/svg" version="1.1" viewBox="0 0 294.2 66.2">
  <defs>
    <style>
      .cls-1 {
        stroke-width: 0px;
      }

      .cls-1, .cls-2 {
        fill: #053c96;
      }

      .cls-2 {
        stroke: #053c96;
        stroke-miterlimit: 4;
        stroke-width: 2px;
      }

      .cls-3 {
        isolation: isolate;
      }
    </style>
  </defs>
  <g class="cls-3">
    <path class="cls-1" d="M17.3,26.5s5.1,28.9,6.7,38.1c0,.3.8,1,.8,1h-7.2s.4-.6.4-1l-1.9-10.8h-6.8l-1.9,10.8c0,.3.5,1,.5,1H.7s.8-.6.8-1c1.6-9.2,6.7-38.1,6.7-38.1,0-.5-.5-1-.5-1h10.1s-.5.5-.5,1ZM15.1,47.9l-2.3-13.4-2.4,13.4h4.7Z"/>
    <path class="cls-1" d="M47.9,54.2c0,5.5-4.1,11.4-11.7,11.4s-8-1.9-10.7-5.4c-.2-.3-.4-.5-.9-.6l5.5-4.1c0,.4.2.9.4,1.1,1.8,2.3,3.5,3.1,5.3,3.1,3.6,0,6.2-1.5,6.2-5.5,0-8.2-16.2-7.6-16.2-19.2s3-9.4,10.9-9.4,7,2,9.8,5.4c.2.3.4.5.9.6l-5.4,4.1c0-.4-.3-.9-.5-1.1-1.8-2.3-3-3.1-4.8-3.1s-5,.7-5,4.2c0,6.1,16.2,7.2,16.2,18.6Z"/>
    <path class="cls-1" d="M88.9,54.2c0,5.5-4.1,11.4-11.7,11.4s-8-1.9-10.7-5.4c-.2-.3-.4-.5-.9-.6l5.5-4.1c0,.4.2.9.4,1.1,1.8,2.3,3.5,3.1,5.3,3.1,3.6,0,6.2-1.5,6.2-5.5,0-8.2-16.2-7.6-16.2-19.2s3-9.4,10.9-9.4,7,2,9.8,5.4c.2.3.4.5.9.6l-5.4,4.1c0-.4-.3-.9-.5-1.1-1.8-2.3-3-3.1-4.8-3.1s-5,.7-5,4.2c0,6.1,16.2,7.2,16.2,18.6Z"/>
    <path class="cls-1" d="M109.7,59l-2.2,7.2s-.5-.6-.9-.6h-14.7s.7-.6.7-1V26.5c0-.4-.7-1-.7-1h13.8c.4,0,.9-.6.9-.6l2.2,7.2s-.5-.7-.9-.7h-9.4v6.5h5c.4,0,.9-.6.9-.6l2.2,7.2s-.5-.6-.9-.6h-7.2v15.7h10.4c.4,0,.9-.6.9-.6Z"/>
    <path class="cls-1" d="M126.6,65.6s.5-.6.4-.9l-5.6-15.6c-.9,0-1.6-.2-2.2-.5v16.1c0,.3.6,1,.6,1h-7.2s.6-.6.6-1V26.5c0-.4-.6-1-.6-1h10.2c3.6,0,9.7,3.9,9.7,11.9s-1.8,8-5.3,10.3l6,16.9c0,.3,1,1,1,1h-7.7ZM126.6,37.4c0-4.2-2.5-6-4.3-6h-3v11.8h3c1.6,0,4.3-1.7,4.3-5.8Z"/>
    <path class="cls-1" d="M150.4,26.5c0-.3-.5-1-.5-1h7.2s-.8.6-.8,1c-1.6,9.2-7.7,38.1-7.7,38.1,0,.5.5,1,.5,1h-8.1s.5-.5.5-1c0,0-6.1-28.9-7.7-38.1,0-.3-.8-1-.8-1h7.2s-.4.6-.4,1l5.3,28.7,5.3-28.7Z"/>
    <path class="cls-1" d="M177.9,59l-2.2,7.2s-.5-.6-.9-.6h-14.7s.7-.6.7-1V26.5c0-.4-.7-1-.7-1h13.8c.4,0,.9-.6.9-.6l2.2,7.2s-.5-.7-.9-.7h-9.4v6.5h5c.4,0,.9-.6.9-.6l2.2,7.2s-.5-.6-.9-.6h-7.2v15.7h10.4c.4,0,.9-.6.9-.6Z"/>
    <path class="cls-1" d="M201.2,45.4c0,17.3-8.4,20.2-13.5,20.2h-6.8s.6-.6.6-1V26.5c0-.4-.6-1-.6-1h6.6c4.5,0,13.7,3.2,13.7,19.8ZM195.2,45.4c0-10.1-4-13.9-7.8-13.9v28.8c4.2,0,7.8-3.4,7.8-14.9Z"/>
    <path class="cls-1" d="M235.4,26.5s5.1,28.9,6.7,38.1c0,.3.8,1,.8,1h-7.2s.4-.6.4-1l-1.9-10.8h-6.8l-1.9,10.8c0,.3.5,1,.5,1h-7.2s.8-.6.8-1c1.6-9.2,6.7-38.1,6.7-38.1,0-.5-.5-1-.5-1h10.1s-.5.5-.5,1ZM233.2,47.9l-2.3-13.4-2.4,13.4h4.7Z"/>
    <path class="cls-1" d="M259.1,32.2s-.5-.7-.9-.7h-6.1v33.2c0,.3.7,1,.7,1h-7.2s.6-.6.6-1V31.5h-6.1c-.4,0-.9.7-.9.7l2.2-7.2s.5.6.9.6h13.6c.4,0,.9-.6.9-.6l2.2,7.2Z"/>
  </g>
  <path id="Path_1067-2" data-name="Path 1067-2" class="cls-2" d="M268.9,50.3c4.4.8,8.9.5,13-1,1.9-.6,3.6-1.8,4.9-3.3,1.1-1.4,1.9-3.1,2.1-4.9.4-2.9,0-5.9-1-8.6-.4-1.2-1-2.4-1.5-3.6-1.4-2.9-3-5.7-4.8-8.7-.6-1-1.4-2.3-2.2-3.5-2.9-4.5-5.9-8.8-9.2-13-.4-.4-.4-1.1,0-1.5.4-.4,1.1-.4,1.5,0,3.1,3.9,6,8,8.8,12.2,2.7,4.1,5.3,8.4,7.6,12.9,2.1,4.1,3.8,8.7,3.2,13.4-.2,2-.9,4-2,5.7-1.3,1.8-3,3.3-5,4.2-4.9,2.2-10.4,2.7-15.7,1.6-.6-.2-.9-.7-.7-1.3.2-.6.7-.9,1.3-.7"/>
  <path id="Path_1068-2" data-name="Path 1068-2" class="cls-2" d="M267.6,11.9l1.9-9.8c.2-.6.7-.9,1.3-.7l12.7,3.5c.6.2.9.7.7,1.3-.2.5-.7.9-1.3.7l-12.7-3.5,1.3-.7-1.9,9.8c-.2.6-.7.9-1.3.7-.6-.2-.9-.7-.7-1.3"/>
</svg>