<?xml version="1.0" encoding="UTF-8"?>
<svg xmlns="http://www.w3.org/2000/svg" version="1.1" viewBox="0 0 1940.1 58.2">
  <defs>
    <style>
      .cls-1 {
        fill: #fcf9e9;
      }

      .cls-1, .cls-2 {
        stroke-width: 0px;
      }

      .cls-2 {
        fill: #053c96;
      }
    </style>
  </defs>
  <g id="Layer_2" data-name="Layer 2">
    <rect class="cls-1" width="1940.1" height="58.2"/>
  </g>
  <g id="Layer_1" data-name="Layer 1">
    <path id="Path_1220" data-name="Path 1220" class="cls-2" d="M30.6,36.3c0,.4,0,.7-.5.8-.4,0-.9-.1-.8-.5.4-1.7-1.5-1.9-2.2-2.6-1.7-2-1.7,1.9-3.2,1.6,0,2.1-1.5,2.1-2.9,1.7-1.5-.4-.6-1.9-.8-2.8,0-.3,0-.6,0-.8,0-1.5-.8-3.2,1.2-4.4.5-.3,1.1-2.4-.1-2.9-1.9-.8-1.3-2.3-.9-3.2.5-1,2.1-.7,3-.2,2,1.1,3,0,3.9-1.4.3-.4.2-1,1-1s.7.6,1,1c.8,1.3,2.3,2.3,0,3.7-.5.7-.5,1.6,0,2.3,2.9,2.6,1.2,5.7,1.3,8.6M88.8,37.3c-.8,0-1.5,0-1.5-1.1,0-1.5-1.2-1.1-2-1.3-1-.2-1.1.5-1.3,1.3-.3,1.2-4.7,1.8-5.3.7-.5-.7-.3-1.7.4-2.2,1.2-.9,1.3-1.8,0-3-1.1-.9-1.2-2.4-.3-3.5.2-.2.4-.4.6-.6.8-.6.9-1.2,0-1.6-1.4-.5-1-1.7-1-2.5s-.6-2.4.6-3c1.4-.6.9,1.5,1.6,1.6,2,.4,3.4,4,6.1.8.8-.9,2.9-.8,2.8,1.7,0,1.4-.1,2.7,1.2,3.9,1,.9.7,2.8.3,4.9-.3,1,1.2,3.8-2.3,3.7M150.4,33.7c-2.1.8-3.3,2.4-2.7,5,.1.5.4,1.6-.7,1.8-.8.2-.9-.6-1.3-1-1.9-2.1-2.7-2.1-4.5.3-.9,1.1-1.5.9-2.4.4.6-1.1-2.8-1.2-.6-2.9,1.3-1,1-3.1,0-3.6-2.1-1.1-1-2.5-.4-3.4.7-1.1,1.4-1.6-.2-2.5-1-.6-.6-1.9-.5-2.8.1-1.1,1.1-.7,2.1-.7,1.8-.5,2.3,1.6,3.4,2.6,1,.8,1,1,1.8-.2s1.7-2.8,3.7-2.3c.6.1,1.7-.4,1.7.8,0,.9.5,2.2-.9,2.5-.9.2-1.3.6-1.1,1.5.2,1.1,1.1.6,1.8.8.8.2,2-.4,2,1.2,0,1.1.4,2.1-1.1,2.7M208.1,35.1c-.2,0-.4,0-.6,0-3.3-.7-5.7.7-7.6,3.3-.8,1.1-1.8.6-2.8.5-1,0-.6-.9-.7-1.5.3-.9-.4-2,1.2-2.5,1-.3.7-2.1.3-2.4-2.7-2.5-.7-5.6-1.5-8.4-.1-.5-.1-1.2.6-1.3.5-.1,1.1.1,1.4.6.5.5,1,1,1.6,1.4,1.4,1.2,2.5,2.3,4-.2.8-1.3,2.6-1.9,3.5-3.4.3-.6.9-.4,1.3.1,1.1,1.5.7,3.6-.8,4.7,0,0-.2.1-.3.2-.7.4-.7,1.2-.3,1.2,1.8,0,1.3,2.6,3,2.6.1,0,.3.2.4.4.2.3-2.4,4.6-2.8,4.6M270.6,33.3c-2.4.1-1.5,1.8-1.7,3-.1.8.6,2.1-.6,2.4-1,.3-2.1.8-3-.8-.5-.8-2.5-1.7-3.7.4-.5,1.2-2,1.8-3.2,1.3-.4-.2-.7-.4-.9-.7-.4-.4-.6-1-.4-1.1,2.1-1.2.9-2.3,0-3.6-.6-1-.6-2.3.1-3.2,2.1-2.6,0-3.8-1.7-4.7-1.5-.8-.9-1.9-1-2.8,0-1.1,1-.8,2.1-.9,1.7-.5,2.3,1.6,3.4,2.5,1.5,1.2,2.6,1.4,4,0,1-1,2.5-1.2,3.7-.5,1.9.9-.2,1.3-.2,1.9,0,1.7-.8,3.7,2.2,3.4.7,0,1.6,0,1.5,1,0,.8.6,2.2-.7,2.3M330.3,33.1c-.9.4-1.9.8-2.9,1,1.4.8,2.7,1,2.1,2.5-.5,1.3-1.6.6-2.4.7-1.6.1-3.4.5-3.8-2.1-.4,2.1-2.6,2-3.4,3.5-.2.4-1.6.3-2.4.2-1.1-.2-.7-1.1-.7-1.8,0-1.8.8-3.9-2.6-3.9s-1.1-2.4-.2-3c2-1.4,1.3-2.7.1-3.9-.4-.5-.7-.8-.5-1.4.1-.6.7-.4,1.1-.5,2.4-.6,3.9.8,5.4,2.3,1.3,1.4,2.7,1.4,3.9-.1.6-.7,1.5-1,1.9-2,.1-.4,1.3-.3,1.3.2,0,2.6,2.4,3.5,3.6,5.2.7.8.6,2.1-.2,2.8-.1.1-.3.2-.4.3M388.9,32.9c-.9.6-1.3,1-1.2,2.1.2,1.3.6,2.9-.9,3.6-2,.9-2.9-1.2-3.6-2.2-1.4-1.9-1.7-2.3-2.6.3-.5,1.1-1.4,1.9-2.5,2.2-1.5.3-2.8,0-2.2-2.7,2.2-1.4-.2-3.2-.3-5.1,0-1.2.1-2.4.1-3.6,0-.6.1-1.5-.9-1.4-1.7,0-1.3-1.2-1.4-2.1,0-.6,0-1.4.9-1.4,1.1,0,2.3-.5,3.1.5.8,1.1,2,1.8,2.7,2.9,2.3,3.3,3.1,0,4.4-.8,1.2-.7,1.6-2.7,3.5-2.5.8,0,2.1-.6,2.1,1s.7,2.2-1.1,2.6c-1.4.3-1.3,2.5,0,3.4,2.1,1.2,1.2,2.5,0,3.3M447.9,27.8c.8.4.6,1.1.6,1.7,0,2-.1,4.1-.2,6.1,0,.9-.2,1.6-1.4,1.6-.8,0-1.8.4-1.8-.9,0-1.5-1.6-1.9-2.3-2.5-1.4-1.1-1.6,1.8-3.1,1.9,0,0,0,.2,0,.3-.2,1.7-1.8,3-2.8,2.8-1.5-.4-.4-2.4-.6-3.1-.2-1.9,1.1-3.9-1.8-4.2-1-.1-.5-3.2.7-3.7.4-.2.9-.1.9-.8s-.5-.6-.9-.8c-1.3-.6-2-4.8-.9-5.4.7-.4,1.5-.5,2.2.7.9,1.7,2.3,3.3,4.8,3.1,1.5-.1,2.5-.4,2.3-2.2-.3-2,1.9-1.9,2.6-3.1.5,1,2.2.8,2.3,2,.1,1.1.6,2.3-.6,3.3-1.3,1.1-2,2.4.2,3.3M508.3,33.4c-1.8,0-2.5.6-2.2,2.4.1,1,.1,2.7-1,2.7-.8,0-2.2-1.2-2.5-2.1-.8-2.4-1-1.7-1.9,0-.5,1-1.9,1.4-2.9,2.3-.8.6-2.6.9-2.5-1.4.2-2.8-1.7-3.4-3.8-3.8-.6-.1-1.6.3-1.7-.9,0-.9.6-1,1.2-1.1.9-.2,1.1-1.7,2.4-1.4.7.1,1.8.4,1.9-.9,0-1,.2-2.1-.8-2.8-.3-.2-1.1-.2-1-.8.3-1.3-2.8-1.4-1.2-2.5.9-.7,1.1-1.8,2.2-2.4.6,2.5,3.2,2.9,4.3,5.1.4.8,2.7,1.1,3.4-.3.8-1.5,1.8-.9,2.8-1,1.1,0,.7,1,.9,1.6.6,1.5,1.6,2.8,3,3.8.6.5,2.5-.1,2,1-.4.9-1.1,2.6-2.8,2.5M567.1,33.4c-1.3-.1-2.1.2-2,1.8.1,1,.2,2.1-1.4,2.1-1.3,0-2.5.4-3.4-1-1.1-1.7-1.5-1.8-2.4,0-.6,1.1-1.5.9-2.4.9-1.2,0-.9-.9-.9-1.6,0-2.1-3-3.2-1.5-5.5-.3-1.6.8-3.7-2-4.2-.6-.1-.7-2.3,0-2.7,1-.6,2.5-1,3.6.3.7,1,1.6,1.9,2.6,2.5,2.3,1,3.4-.8,4.5-2.4,1.1-1.7,2.7-.7,4.2-.7,1.2,0,1.3.8,1.3,1.7,0,.8,0,1.5-1,1.6-1.7.1-.9,1.5-1,2.4-.2,1.4.8,1.4,1.8,1.4,1.2,0,2.1.1,2,1.8,0,1.7-.9,1.8-2.1,1.7M664.4,31.7c-.8,0-1.3,1-1.6,1-2.5.4-3.5,1.6-3.4,4.2,0,.8-3.5.5-3.8-.6-.3-1.2-1-1.1-1.8-1.2-.8-.1-1.3.1-1.5,1.1-.3,1.9-1.9,1-2.9,1.1-1.5.1-1.1-1.1-1.1-2,0-.5,0-1.1,0-1.6-1.2-2.5-1.7-5.2-1.5-7.9,0-.5,0-1.3.7-1.2,1.1,0,2.3-.6,3.3.6,1,1.3,2.2,2.1,3.5.2.6-.7,1.5-1.1,2.4-1,2,0,3.4,0,2.9,2.2,0,.4.1,1.3.4,1.2,2.5-1.1,2.6,2.1,4.3,2.4.4,0,.8.4.7.8,0,0,0,.1,0,.2,0,.4-.3.7-.6.7,0,0,0,0,0,0M745,31.1c-.7,1.4-2.2,2.2-3.7,2-1.2-.1-2.4.3-3.3,1,1.3.5,2,1.8,1.7,3.2,0,.7.2,1.7-.9,1.6-.8,0-1.9.5-2.5-.6-.2-.3-.2-1-.3-1-1.3,0-2.3-4.8-4.1-.3-.3.7-2.6.5-3.9,0-.9-.3-.7-1.7-.4-1.8,3.4-1.7-.6-2.2-.5-3.3-1.6,0-2-.8-1.9-2.5.1-2.1,1.7-1.4,2.7-2,.2-.1.5-.2,1.1-.4-1.5-1-1.6-3-3.5-3.7,2-.3,4-2.3,5.7.8.7,1.3,2.5,2,3.8,3,.5.4.9.2,1-.3.2-1.2,2.2-.7,2-2.2,1.3,0,1.8-1.8,2.8-1.5,1.3.4,1.1,1.9,1,3.1,0,.8.3,1.1,1,1.6,1,.7,2.7,2,2.1,3.3M821.2,33.2c-1.7-.2-1.9,1-1.9,2.3,0,1.2-.7,1.6-1.7,1.7s-1.3-.2-1.6-1.2c-.4-1.7-2.7-1.1-2.8-.7-.5,1.3-2,1.6-2.4,2.4-.7,1.7-1.9,1.5-2.9,1.2-1.5-.4-.4-1.9-.6-2.3-.4-1.5.4-2.7-1.2-3.5-1.3-.7-.2-2.8,1.5-3,2.3-.2,3.6-.8,1.3-2.8-1.5-1.3-1.2-3.5-3-4.6-.8-.5-.6-2.4.5-3.2.7-.6,1.8-1,2.6.6,1,1.9,3.2,3,4.1,5.2.5,1.1,1.8,1.3,3,0,.9-1.1,1.5-2.9,3.6-2.3.6.2,1.7-.3,1.8.8,0,.9.2,1.8-1,2.3-1.7.6-1.6,1.4,0,2,1.3.5,1.7,1.8,2.5,2.7,1,1-1.9,1.2-1.9,2.6M901.6,31.9c-2.6-.3-3.1,1-3,3.3,0,1.2.8,3.3-.7,3.6-1.3.3-2.6-1.1-2.8-2.9-.2-1.4-1.5-.6-2.3-.9-.7-.2-1.3,0-1.6.9-.4,1.3-1.4,2.3-2.7,2.7-.7.2-2.1.6-2.5-.9-.4-1.6-.7-3.1,1.7-3.4-.7-1.1-1.6-.9-2.2-1.1-1.3-.6-3.2-1.5-2.8-2.5.5-1.5,1.8-2.6,3.3-2.9.8-.1,2.1.5,2.1-1,0-1,.2-2.2-1.5-2.5-1.5-.2-.5-1.7-.6-2.5-.1-1.2.8-1.3,1.6-1.2.8,0,1.6-.5,2.2.9,1.5,3.5,2.5,3.6,5.6,1.5.8-.6,2-.6,2.8,0,.8.9.7,2.3-.2,3.1,0,0,0,0,0,0-1.4,1.2-.6,1.4.5,1.5,1,.1,2,.2,3,.1,1.9-.2,2.8.4,2.8,2.5,0,2.3-1.6,1.8-2.7,1.6M983.1,30.4c-.3,1.4-1.2,1.2-2.1,1.3-1.2,0-2.4.2-3.5.8,1.3.4,2.2,1.7,1.9,3.1-.1.8.2,1.9-1.1,1.8-.9,0-2.3.7-2.4-1,0-1.4-1.5-2.1-2.1-2.4-1.7-1.1-2.9,1.1-3.3,2.1-.6,1.7-1.6,1.2-2.6,1.2-1.4,0-.9-1.2-.9-1.9.1-2.2,0-4-3-3.7-1.3.1-1.4-1.7-2-2.6-.5-.7.7-1.1,1.4-1.3,2.4-.7,1.6-2,.6-3.1-.4-.4-.8-.7-.7-1.3.2-.8.9-.5,1.4-.6,1.9-.7,4,0,5,1.7,1.7,2.8,2.9,0,4.3,0,0-1.3,1.7-1.5,1.8-2.4.2-2,1.3-1.9,2.4-1.1,1.1.8,1.6,2.4.7,3.3-.9.8-1.4,1.5-.9,2.5.5,1.1,1.8.9,2.7.8,2.2-.2,2.7.7,2.3,2.8M1059.8,33.5c-2.7-.4-3.9.6-3.5,3.5,0,.6.4,1.7-.5,1.9-.9.2-2.1.4-2.7-.7-.5-1.1-2.3-.8-2.3-2.6,0-.5-1.4-.5-1.4.2-.2,2.2-1.8,1.5-2.9,1.4-1.8-.2-.5-1.8-1-2.5.5-2.1-.1-3.2-2.3-3-.9.1-1.5-.3-1.3-1.2s-.8-2.3.8-2.8c2.4-.8,1.3-2,.2-2.8-.5-.4-1.1-.6-.9-1.4.2-1,1-.7,1.6-.7,1.8,0,3.6-.3,4.2,2.4.4,1.2,1.4,2.1,2.5,2.5,1.2.3,1.9-1.2,2.7-2,1.2-1.1,1.7-3,3.8-2.8.7,0,1.9-.3,1.8,1,0,.9.7,2.2-.9,2.5-2,.3-1.1,1.8-1.1,2.8,0,1.3,1.2.7,1.9.9,1.2.4,3.1-.9,3.5,1.5.3,1.8-.6,2.2-2,2M1139.3,25.4c-2.4,1.6-1.2,3.9-1.3,6-.2,3.6-.4,3.8-4.3,3.7-1,.3-2.8-.8-3.2,1.8-.1.9-1.8.4-2.7.5-1.2,0-1-.9-1-1.6,0-.9.2-1.8.2-2.8,0-1.3-.3-2.5-1.8-2.7-3-.4-1.9-2.4-1.1-3.5.8-1.1,1.6-1.4,0-2.6-1.3-.9-.3-3.2-1.7-4.4-.3-.2.5-.6.9-.7,1.2-.3,2.7-.5,3.2.5.6,1.1,1.9,1.8,2,3.4.2,1.9,2.3,1.9,3.4,3,.6.5,1.6-.1,2-1.3.6-1.7,3.8-2.7,5.1-1.7.7.7.8,1.7.2,2.5M1216,33.4c-1,.4-1.7,1.2-2,2.2-.3,2-1.4,1.8-2.9,1.5-1,.6-2.4-.3-3.5,1.2-.9,1.3-1.1-1.4-2.4-1.3-.5,0-.7-1.4.1-2,1.1-.6,1.3-1,0-1.6-1.2-.5-.6-1.6-.7-2.5-.3-1.7.6-3.7-1.2-5.2-.7-.6,0-1.1.7-1.3,1.7-.4,3-.2,3.9,1.6.8,1.8,2.5,2.1,3.7.5.8-.9,1.2-.7,2-.1,1.4,1,1.7,2.8,3,3.9.6.8.5,1.9-.2,2.5-.2.1-.4.3-.6.3M1294.4,34.8c-1.2.8-2.9.5-3.7-.7,0,0,0-.1-.1-.2-.4-.8-2.3-1.1-2.9-.1-1.1,1.8-2.6,1.3-4,1.1-1.7-.3-1.2-2-1.4-3.2-.1-.8-.2-1.5-.2-2.3,0-1.1.2-2.1.8-3,.3-.5.8-1,.2-1.4-.7-.5-1.2-1-.8-1.8.5-.9,1.5-.7,2.2-.5,1.2.3,2.7-.4,3.5,1.4.3.7,2.1.6,2.8-.4.4-.6.7-1,1.4-.8s.6.9.6,1.4c0,1.2.3,1.9,1.6,2,.6,0,1,1,1.6,1.3s.9.9.6,1.4c-1,1.8-1.8,3.8-2.1,5.9M1381.5,36.3c0,.4,0,.7-.5.8-.4,0-.9-.1-.8-.5.4-1.7-1.5-1.9-2.2-2.6-1.8-2-1.7,1.9-3.2,1.6,0,2.1-1.5,2.1-2.9,1.7-1.5-.4-.6-1.9-.8-2.8,0-.3,0-.6,0-.8,0-1.5-.8-3.2,1.2-4.4.5-.3,1.1-2.4,0-2.9-1.9-.8-1.3-2.3-.9-3.2.5-1,2.1-.7,3-.2,2,1.1,3,0,3.9-1.4.3-.4.2-1,1-1s.7.6,1,1c.8,1.3,2.3,2.3,0,3.7-.5.7-.5,1.6,0,2.3,2.9,2.6,1.2,5.7,1.3,8.6M1439.7,37.3c-.8,0-1.5,0-1.5-1.1,0-1.5-1.3-1.1-2-1.3-1-.2-1,.5-1.3,1.3-.3,1.2-4.7,1.8-5.3.7-.5-.7-.3-1.7.4-2.2,0,0,0,0,0,0,1.2-.9,1.3-1.8,0-3-1.1-.9-1.2-2.4-.4-3.5.2-.2.4-.4.7-.6.8-.6.9-1.2,0-1.6-1.4-.5-1-1.7-1-2.5s-.6-2.4.6-3c1.4-.6.9,1.5,1.6,1.6,2,.4,3.4,4,6.1.8.8-.9,2.9-.8,2.7,1.7,0,1.4-.1,2.7,1.2,3.9,1,.9.7,2.8.3,4.9-.3,1,1.2,3.8-2.3,3.7M1501.3,33.8c-2.1.8-3.3,2.4-2.7,5,.1.5.4,1.6-.7,1.8-.8.2-.9-.6-1.3-1-1.9-2.1-2.7-2.1-4.5.3-.9,1.1-1.5.9-2.4.4.6-1.1-2.8-1.2-.6-2.9,1.3-1,1-3.1,0-3.6-2.1-1.1-1-2.5-.4-3.4.7-1.1,1.4-1.6-.2-2.5-1-.6-.6-1.9-.5-2.8.1-1.1,1.1-.7,2.2-.7,1.8-.5,2.2,1.6,3.4,2.6,1,.8,1,1,1.8-.2s1.7-2.8,3.7-2.3c.6.1,1.7-.4,1.7.8,0,.9.5,2.2-.9,2.5-.9.2-1.3.6-1.1,1.5.2,1.1,1.1.6,1.8.8.8.2,2-.4,2,1.2,0,1.1.4,2.1-1.1,2.7M1559,35.1c-.2,0-.4,0-.6,0-3.3-.7-5.7.7-7.6,3.3-.8,1.1-1.9.6-2.8.5-.9,0-.6-.9-.7-1.5.3-.9-.4-2,1.1-2.5,1-.3.7-2.1.3-2.4-2.7-2.5-.7-5.6-1.5-8.4-.1-.5-.1-1.2.6-1.3.5-.1,1.1.1,1.4.6.5.5,1,1,1.6,1.4,1.4,1.2,2.5,2.3,4-.2.8-1.3,2.6-1.9,3.5-3.4.3-.6.9-.4,1.3.1,1.1,1.5.7,3.6-.8,4.7-.1,0-.2.1-.3.2-.7.4-.7,1.2-.3,1.2,1.8,0,1.3,2.6,3,2.6.1,0,.3.2.4.4.2.3-2.4,4.6-2.8,4.6M1621.5,33.3c-2.4.1-1.5,1.8-1.7,3-.1.8.6,2.1-.6,2.4-1,.3-2.1.8-3-.8-.5-.8-2.5-1.7-3.7.4-.5,1.2-2,1.8-3.2,1.3-.4-.2-.7-.4-.9-.7-.4-.4-.6-1-.4-1.1,2.1-1.2.9-2.3,0-3.6-.6-1-.6-2.3.1-3.2,2.1-2.6,0-3.8-1.7-4.7-1.5-.8-.9-1.9-1-2.8,0-1.1,1-.8,2.1-.9,1.7-.5,2.3,1.6,3.4,2.5,1.5,1.2,2.6,1.4,4,0,1-1.1,2.3-1.1,3.7-.5,1.9.9-.2,1.3-.2,1.9,0,1.7-.8,3.7,2.2,3.4.7,0,1.6,0,1.5,1,0,.8.6,2.2-.7,2.3M1681.2,33.1c-.9.4-1.9.8-2.9,1,1.4.8,2.7,1,2.1,2.5-.4,1.3-1.6.6-2.4.7-1.6.1-3.4.5-3.9-2.1-.3,2.1-2.6,2-3.4,3.5-.2.4-1.6.3-2.4.2-1.1-.2-.7-1.1-.7-1.8,0-1.8.8-3.9-2.5-3.9s-1.1-2.4-.2-3c2-1.4,1.3-2.7.1-3.9-.4-.5-.7-.8-.5-1.4.1-.6.7-.4,1.1-.5,2.4-.6,3.9.8,5.4,2.3,1.3,1.4,2.7,1.4,3.9-.1.6-.7,1.5-1,1.9-2,.2-.4,1.3-.3,1.3.2,0,2.6,2.4,3.5,3.6,5.2.7.8.6,2.1-.3,2.8-.1,0-.2.2-.4.3M1739.8,33c-.9.6-1.3,1-1.2,2.1.2,1.3.6,2.9-.9,3.6-2,.9-2.9-1.2-3.6-2.2-1.4-1.9-1.7-2.3-2.6.3-.5,1.1-1.4,1.9-2.6,2.2-1.5.3-2.8,0-2.2-2.7,2.2-1.4-.2-3.2-.3-5.1,0-1.2.1-2.4.1-3.6,0-.6,0-1.5-.9-1.4-1.7,0-1.3-1.2-1.4-2.1,0-.6,0-1.4.9-1.4,1.1,0,2.3-.5,3.1.5.8,1.1,2,1.8,2.7,2.9,2.3,3.3,3.1,0,4.4-.8,1.2-.7,1.6-2.7,3.5-2.5.8,0,2.1-.6,2.1,1s.7,2.2-1.1,2.6c-1.4.3-1.3,2.5,0,3.4,2,1.2,1.2,2.5,0,3.3M1798.8,27.8c.8.4.6,1.1.6,1.7,0,2-.1,4.1-.2,6.1,0,.9-.2,1.6-1.4,1.6-.8,0-1.8.4-1.8-.9,0-1.5-1.6-1.9-2.3-2.5-1.4-1.1-1.6,1.8-3.1,1.9,0,0,0,.2,0,.3-.2,1.7-1.8,3-2.8,2.8-1.5-.4-.4-2.4-.7-3.1-.2-1.9,1.1-3.9-1.8-4.2-1-.1-.4-3.2.7-3.7.4-.2.9-.1.9-.8s-.5-.6-.9-.8c-1.3-.6-2-4.8-.9-5.4.7-.4,1.5-.5,2.2.7.9,1.7,2.3,3.3,4.8,3.1,1.5-.1,2.5-.4,2.3-2.2-.3-2,1.9-1.9,2.6-3.1.5,1,2.2.8,2.3,2,0,1.1.5,2.3-.6,3.3-1.3,1.1-2,2.4.2,3.3M1859.2,33.4c-1.7,0-2.5.6-2.2,2.4.2,1,.1,2.7-1,2.7-1.1-.2-2.1-1-2.5-2.1-.8-2.4-1-1.7-1.9,0-.6,1-2,1.4-2.9,2.3-.7.6-2.6.9-2.5-1.4.2-2.8-1.7-3.4-3.8-3.8-.6-.1-1.6.3-1.7-.9,0-.9.6-1,1.2-1.1.9-.2,1.1-1.7,2.4-1.4.7.1,1.9.4,1.9-.9,0-1,.2-2.1-.8-2.8-.3-.2-1.1-.2-1-.8.3-1.3-2.8-1.4-1.2-2.5.9-.7,1.1-1.8,2.2-2.4.6,2.5,3.2,2.9,4.3,5.1.4.8,2.8,1.1,3.5-.3.8-1.5,1.9-.9,2.8-1,1.1,0,.7,1,1,1.6.6,1.5,1.6,2.8,2.9,3.8.6.5,2.5-.1,2,1-.4.9-1.1,2.6-2.9,2.5M1918,33.4c-1.3-.1-2.1.2-2,1.8.1,1,.2,2.1-1.4,2.1-1.3,0-2.5.4-3.4-1-1.1-1.7-1.5-1.8-2.5,0-.6,1.1-1.5.9-2.3.9-1.2,0-.9-.9-.9-1.6,0-2.1-3-3.2-1.5-5.5-.4-1.6.8-3.7-2-4.2-.6-.1-.7-2.3,0-2.7,1.1-.9,2.7-.8,3.6.3.7,1,1.6,1.9,2.6,2.5,2.3,1,3.4-.8,4.5-2.4,1.2-1.7,2.7-.7,4.2-.7,1.2,0,1.3.8,1.3,1.7,0,.8,0,1.5-1,1.6-1.7.1-.9,1.5-1,2.4-.2,1.4.8,1.4,1.8,1.4,1.2,0,2.1.1,2,1.8,0,1.7-.9,1.8-2.1,1.7"/>
  </g>
</svg>