<?xml version="1.0" encoding="UTF-8"?>
<svg id="Layer_1" data-name="Layer 1" xmlns="http://www.w3.org/2000/svg" xmlns:xlink="http://www.w3.org/1999/xlink" version="1.1" viewBox="0 0 36.5 51.7">
  <defs>
    <style>
      .cls-1 {
        clip-path: url(#clippath);
      }

      .cls-2 {
        fill: #fdf9e8;
      }

      .cls-2, .cls-3 {
        stroke-width: 0px;
      }

      .cls-3 {
        fill: none;
      }
    </style>
    <clipPath id="clippath">
      <rect class="cls-3" width="36.5" height="51.7"/>
    </clipPath>
  </defs>
  <g class="cls-1">
    <g id="Group_234" data-name="Group 234">
      <path id="Path_1072" data-name="Path 1072" class="cls-2" d="M31.5,44.9c1.8-2.1,3.2-4.5,4-7.2.8-2.4,1.1-4.9.9-7.4-.3-1.6-.4-3.2-.4-4.7.3-1.2.4-2.3.4-3.5,0-.7-1.2-1-1.8-.5-2.2,2-3,4.3-4.1,6.9-.2.4-.7,2.2-1.3,2.2-.5,0-.7-1-.7-1.4,0-.4.1-.8.3-1.1.6-1.4,1.2-2.9,2-4.2,1.2-2.4,1.5-5.1,1.1-7.7-.2-1.8-1-4.5-3.4-4.8-.5,0-.9.3-1,.8,0,2.5,1.2,5.2.3,7.6-.4.9-1.5,1.4-2.4,1-.1,0-.2-.1-.4-.2-.7-.4-1.1-1.3-1-2.1,0-1.4.1-2.9.5-4.2.7-2.6,2.2-5,2.4-7.8,0-1.2,0-2.4-.5-3.6-.2-1-.5-1.9-1.1-2.7-.4-.3-.9-.3-1.2,0,0,0-.1.1-.2.2-.9,1.9-.9,4-1.7,6-.8,2.3-1.9,4.5-3.2,6.5-.8,1-1.7,2-2.7,2.7-1,.7-1.9,1.1-2.5,0-.3-.6-.3-1.3,0-1.9.2-1,.5-2,.9-2.9.3-.6.9-1.3.9-2,0-.5-.4-.9-.9-.8-.1,0-.2,0-.3,0-2.4,1.4-4.3,3.5-5.4,6-1.3,3-1.1,5.7-.9,8.8.1,1.5.5,3.3.2,4.7-.3,1.1-1.2,1.5-1.9.5-.5-.6-.8-1.3-1-2.1-.8-3.2,0-7,.4-10.2,0-.5-.8-.8-1.1-.3C1.3,21.2-.6,27.9.2,34.4c.4,3.6,2.4,6.9,4.6,9.8,1.2,1.6,2.6,3,4,4.5.2-.1.4,0,.6.1,0,0,0,0,0,0,.3.5.6,1,1,1.4.2.2.4.4.6.7.1.1.2.2.3.3.1,0,.3.2.4.3.1,0,.2.1.3.2h.1s0,0,0,0h0c.1,0,0,0,0,0h0s0,0,0,0h0s0,0,0,0h0c0-.1,0,0,0,0h0c0,0,0-.2,0-.3,0,0,0-.1,0-.2s0-.1,0-.2h0s0,0,0,0c0,0,0-.2,0-.3-.4-.8-.7-1.7-.8-2.5-.2-.5-.5-.9-.8-1.3-.5-.7-1.2-1.3-1.8-2-1.1-1.1-1.7-2.6-1.8-4.2h0s0,0,0,0h0c0-.6.7-.5.8-.1.2.5.4,1.1.7,1.6.3.4.6.7.9,1.1h0c0,0,.2-.1.3,0h0s0,0,0,0h.1s0,0,0,0h0s0,0,0,0h0s0-.2,0-.2c0,0,0-.1,0-.2,0,0,0-.2.1-.2h0c0-.2,0-.3-.1-.5-.1-.8-.1-1.5,0-2.3,0-.2,0-.3,0-.5-.1-1,0-2.1.4-3,.2-.4,1-1.9,1.6-1.6h0s0,0,0,0c0,0,.2,0,.2.2.3.3.2.8.2,1.1,0,.6,0,1.3,0,1.9,0,.9.1,1.8.4,2.7.5.3,1.2.2,1.5-.3,0-.1.1-.3.2-.4.1-2,.5-4,1.1-5.9.5-2.2,1.7-4.2,3.5-5.6.3-.3.9.1.6.5-.4.5-.7,1-1,1.6h0c-.6,1.3-1,2.6-1.2,3.9,0,.5-.1,1.1-.1,1.6,0,3.4,0,6.8.2,10.2,0,.6.6,1,1.1,1,.2,0,.4,0,.6-.2.5-.5.7-1.2.7-1.9.2-1.5.4-3.1.8-4.6.2-.7.4-1.4.6-2.1,0-.5.1-1,.2-1.5.2-1.1.2-2.7,1.2-3.5.2-.2.5-.1.6,0,0,0,0,0,0,.1.2.7.2,1.4,0,2.1,0,0,0,.1,0,.2,0,.7,0,1.3-.2,2,0,.1,0,.2-.2.3,0,1.1-.2,2.1-.4,3.2-.3,1-.2,2.1.2,3,.4.6,1.6.7,1.8-.1.2-1,.6-2,1-3h0c.3-.8.2-1.6.9-2.2.2-.1.4-.1.6,0,.4.4.6.9.6,1.4,0,1.1-.4,2.2-.9,3.2,0,.1-.2.3-.2.4-.8,1.8-1.7,3.5-2.7,5.2-.4.8.7,1.5,1.5,1.2,2.3-1,4.2-3.5,5.7-5.2"/>
    </g>
  </g>
</svg>