<?xml version="1.0" encoding="UTF-8"?>
<svg id="Layer_1" data-name="Layer 1" xmlns="http://www.w3.org/2000/svg" xmlns:xlink="http://www.w3.org/1999/xlink" version="1.1" viewBox="0 0 24.2 34.2">
  <defs>
    <style>
      .cls-1 {
        fill: #b71923;
      }

      .cls-1, .cls-2 {
        stroke-width: 0px;
      }

      .cls-3 {
        clip-path: url(#clippath);
      }

      .cls-2 {
        fill: none;
      }
    </style>
    <clipPath id="clippath">
      <rect class="cls-2" width="24.2" height="34.2"/>
    </clipPath>
  </defs>
  <g id="Group_235" data-name="Group 235">
    <g class="cls-3">
      <g id="Group_234" data-name="Group 234">
        <path id="Path_1072" data-name="Path 1072" class="cls-1" d="M20.8,29.7c1.2-1.4,2.1-3,2.7-4.7.5-1.6.8-3.2.6-4.9-.2-1-.3-2.1-.3-3.1.2-.8.3-1.5.3-2.3,0-.5-.8-.7-1.2-.4-1.5,1.3-2,2.9-2.7,4.6-.1.3-.4,1.5-.9,1.5-.3,0-.5-.7-.5-.9,0-.3,0-.5.2-.7.4-1,.8-1.9,1.3-2.8.8-1.6,1-3.4.7-5.1-.2-1.2-.7-3-2.3-3.2-.3,0-.6.2-.6.5,0,1.6.8,3.4.2,5-.3.6-1,.9-1.6.6,0,0-.2,0-.2-.1-.5-.3-.7-.9-.7-1.4,0-.9,0-1.9.3-2.8.5-1.7,1.4-3.3,1.6-5.1,0-.8,0-1.6-.3-2.4-.1-.6-.4-1.2-.7-1.8-.2-.2-.6-.2-.8,0,0,0,0,0-.1.1-.6,1.2-.6,2.7-1.1,3.9-.5,1.5-1.2,3-2.1,4.3-.5.7-1.1,1.3-1.8,1.8-.6.5-1.2.7-1.7,0-.2-.4-.2-.8,0-1.2.1-.7.3-1.3.6-1.9.2-.4.6-.9.6-1.3,0-.3-.3-.6-.6-.6,0,0-.2,0-.2,0-1.6.9-2.8,2.3-3.6,4-.7,1.9-.9,3.9-.6,5.8.2,1,.2,2.1,0,3.1-.2.7-.8,1-1.3.4-.3-.4-.5-.9-.7-1.4-.6-2.1,0-4.6.3-6.8,0-.4-.6-.5-.8-.2C.8,14-.3,18.4.1,22.8c.4,2.4,1.5,4.6,3.1,6.5.8,1,1.7,2,2.6,3,.1,0,.3,0,.4,0,0,0,0,0,0,0,.2.3.4.6.7.9.1.1.3.3.4.4,0,0,.1.1.2.2,0,0,.2.1.3.2,0,0,.1,0,.2,0h0s0,0,0,0h0c0,0,0,0,0,0h0s0,0,0,0h0s0,0,0,0c0,0,0,0,0,0h0s0-.2,0-.2h0c0-.2,0-.2,0-.3h0c0,0,0-.1,0-.2-.3-.5-.4-1.1-.6-1.7-.2-.3-.3-.6-.5-.9-.3-.5-.8-.9-1.2-1.3-.7-.7-1.1-1.7-1.2-2.8h0c0-.4.5-.3.5,0,.1.4.3.7.4,1.1.2.3.4.5.6.7h0c0,0,.1,0,.2,0h0s0,0,0,0h0s0,0,0,0h0c0-.1,0-.2,0-.2,0,0,0-.1,0-.2h0c0-.1,0-.2,0-.3,0-.5,0-1,0-1.5,0-.1,0-.2,0-.3,0-.7,0-1.4.3-2,.1-.2.6-1.2,1.1-1.1h0c0,0,.1,0,.2.1.2.2.1.5.1.8,0,.4,0,.8,0,1.3,0,.6,0,1.2.3,1.8.3.2.8.1,1-.2,0,0,0-.2.1-.3,0-1.3.3-2.6.7-3.9.3-1.5,1.1-2.8,2.3-3.7.2-.2.6,0,.4.3-.2.3-.4.7-.6,1h0c-.4.8-.7,1.7-.8,2.6,0,.4,0,.7-.1,1.1,0,2.3,0,4.5.2,6.7,0,.4.4.7.8.6.1,0,.3,0,.4-.1.3-.3.5-.8.4-1.2.1-1,.3-2,.5-3,.1-.5.3-.9.4-1.4,0-.3,0-.7.1-1,.1-.8.1-1.8.8-2.3.1,0,.3,0,.4,0,0,0,0,0,0,0,.1.5.1.9,0,1.4,0,0,0,0,0,.1,0,.4,0,.9-.1,1.3,0,0,0,.1-.1.2,0,.7-.1,1.4-.3,2.1-.2.7-.1,1.4.1,2,.2.4,1.1.4,1.2,0,.2-.7.4-1.4.6-2h0c.2-.5.1-1,.6-1.4.1,0,.3,0,.4,0,.3.2.4.6.4.9,0,.7-.2,1.5-.6,2.1,0,.1-.1.2-.2.3-.5,1.2-1.1,2.3-1.8,3.4-.3.5.5,1,1,.8,1.5-.7,2.8-2.3,3.8-3.5"/>
      </g>
    </g>
  </g>
</svg>