<?xml version="1.0" encoding="UTF-8"?>
<svg id="Layer_1" data-name="Layer 1" xmlns="http://www.w3.org/2000/svg" xmlns:xlink="http://www.w3.org/1999/xlink" version="1.1" viewBox="0 0 201.3 193.5">
  <defs>
    <style>
      .cls-1 {
        clip-path: url(#clippath);
      }

      .cls-2 {
        fill: none;
      }

      .cls-2, .cls-3 {
        stroke-width: 0px;
      }

      .cls-3 {
        fill: #002f85;
      }
    </style>
    <clipPath id="clippath">
      <rect class="cls-2" width="201.3" height="193.5"/>
    </clipPath>
  </defs>
  <g id="Group_263" data-name="Group 263">
    <g class="cls-1">
      <g id="Group_262" data-name="Group 262">
        <path id="Path_1108" data-name="Path 1108" class="cls-3" d="M201.1,95.8c.3,3.5.3,7.1-.1,10.7-.2,2.5-.6,5.1-1.2,7.5-.5,2.1-.9,4.3-1.2,6.5s-1.4,4.1-2.1,6.2c-.5,1.6-1.2,3.2-1.8,4.8-1,2.4-2.1,4.8-3.4,7.1-1,2-2.1,4-3.2,5.9-1.7,3-3.5,6-5.5,8.8-2.2,2.9-4.6,5.7-7,8.4-2.4,2.8-5.1,5.4-8,7.8-.4.3-.7.7-1,1.1-1.5,1.9-3.7,3-5.5,4.6-2.1,1.6-4.3,3-6.6,4.2-1.6,1.1-3.2,2-4.8,2.9-2.4,1.1-4.8,2.3-7.2,3.4-3.2,1.5-6.5,2.7-9.9,3.5-1.5.4-3,1.1-4.6,1.4-1.7.3-3.3.7-4.9,1-2.2.5-4.5.9-6.7,1.3-3.5.6-7.1.8-10.7.5-2.7-.2-5.3-.3-8-.3-1.9,0-3.9-.3-5.8-.6-1.9-.3-3.8-.5-5.6-.9-2.1-.4-4.3-.8-6.4-1.2-2.4-.5-4.8-.9-7.2-1.6-1.2-.3-2.3-.7-3.4-1.2-1.7-.8-3.5-1.5-5.4-2-2.2-.6-4.3-1.4-6.3-2.4-1.9-1-4-1.5-6-2.4-2-.9-4.1-1.8-6-2.8-.7-.4-1.5-.9-2.1-1.5-1.8-1.3-3.6-2.5-5.6-3.6-1.7-1.2-3.3-2.4-4.8-3.8-2.8-2.2-4.9-5-7.2-7.7-.8-.9-1.8-1.5-2.6-2.4-1.9-2.1-3.6-4.4-5-6.9-1.6-2.9-3.8-5.4-5.4-8.3-1.8-3.2-3.4-6.5-5-9.8-1.1-2.2-2.2-4.5-3.1-6.8-.7-2-1.8-4-2-6.2,0,0,0-.2,0-.2-1.3-2.5-1.3-5.3-1.8-8-.5-2.4-.8-4.9-.8-7.4,0-3.1,0-6.2,0-9.3,0-3.2.3-6.4,1.1-9.5.8-3.1,1-6.3,1.8-9.4.6-2.2,1-4.4,1.2-6.6,0-.9.3-1.8.6-2.6.8-2.2,1.3-4.5,2.3-6.6.7-1.6,1.6-3.1,2.4-4.6,1.3-2.7,2.4-5.6,3.7-8.3.7-1.4,1.5-2.7,2.4-3.9.8-1,1.3-2.2,2-3.2,1-1.4,2.1-2.7,3.4-4,1.4-1.5,2.9-3,4.3-4.5,1.1-1.2,2.3-2.1,3.5-3.2,1.7-1.6,3.5-3.2,5.2-4.7,1.1-1.1,2.3-2,3.6-2.8.5-.3,1-.6,1.4-1,1.4-1.3,2.9-2.4,4.6-3.3,3.6-1.9,7-4,10.6-5.8,3.4-1.7,7-3.1,10.5-4.6,1.4-.6,2.8-1,4.3-1.2.8-.2,1.6-.4,2.4-.7,3.1-.9,6.3-1.5,9.4-2.4,2.3-.6,4.6-.9,6.9-1.4,4.6-1,9.4-1.5,14.1-1.6,3.5-.2,7,.5,10.5.4,3.2.1,6.5.5,9.6,1.3,1.6.4,3.2.7,4.8.9,1.1.1,2.2.4,3.2.9,2.1.7,4.1,1.4,6.2,2,1.3.4,2.5,1.2,3.8,1.7,2.1.8,4.2,1.8,6.1,3.1.1.1.3.2.5.3,1.3.5,2.6,1.2,3.7,2,2.2,1.5,4.4,2.9,6.7,4.2,2.6,1.5,5,3.2,7.3,5.2.5.5,1.1.8,1.7,1.1.9.4,1.7.9,2.3,1.6,2.4,2.4,5,4.6,7.5,6.9,3.8,3.5,7.1,7.6,9.7,12.1,1.9,2.9,3.5,5.9,5.3,8.8,1.1,1.8,2,3.8,2.7,5.8.8,2,1.6,3.9,2.4,5.9.8,2.2,1.7,4.3,2.4,6.5.5,1.5.8,3.1,1,4.7.3,2.7.7,5.4,1.2,8,.8,3.9,1.1,7.9.9,11.8v.7M5.4,100.3c-.2,3.2,0,6.4.4,9.5.5,2.8,1.1,5.6,1.9,8.4.6,2,1,4.1,1.7,6.1.6,1.7,1.2,3.4,2.1,5,1.3,2.5,2.2,5.2,3.6,7.7,1.4,2.6,2.9,5.1,4.6,7.5.9,1.3,1.9,2.6,2.8,3.9.6,1,1.5,1.8,2.2,2.7,1.4,1.8,2.8,3.5,4.4,5.1,1.4,1.4,2.7,2.8,4.1,4.2,1.9,1.9,3.9,3.8,6,5.5,2.8,2.3,5.7,4.4,8.7,6.4.8.5,1.7,1,2.5,1.5,1.2.6,2.4,1.3,3.5,2.1.3.2.5.3.8.4,1.3.4,2.5,1.1,3.8,1.7,1.9.9,3.8,1.7,5.7,2.3,2.4.6,4.6,1.8,7,2.5,2.2.6,4.3,1.4,6.4,2,1.1.5,2.3.8,3.5,1,2.5.1,4.8.8,7.3,1.1,2.3.3,4.6.8,6.9.9,3.8.2,7.6,0,11.4.2,4.2.3,8.3-.6,12.4-1.2,1.6-.3,3.2-.8,4.8-1.3,1.1-.3,2.3-.4,3.4-.8,1.3-.4,2.7-.8,4.1-1.2,1.6-.4,3.1-.9,4.6-1.5,2.1-.9,4.2-1.9,6.1-3,.7-.4,1.4-.8,2.1-1.1,2.9-1.3,5.7-2.8,8.3-4.5,2.2-1.4,4.4-2.9,6.5-4.5,2-1.5,3.9-3.2,5.8-4.9,2.2-2,4.3-4.1,6.2-6.3,1.4-1.5,2.8-3.1,4.1-4.7,1.4-1.9,2.8-3.8,4.3-5.7,1.6-2.1,2.8-4.4,4.5-6.5,1.1-1.5,2.2-3.1,3.1-4.7,2.2-3.2,3.9-6.7,5-10.4.6-2.3,1.4-4.6,2-6.9.6-2.2.9-4.5,1.4-6.8.6-2.1,1-4.2,1.1-6.3,0-4.7.2-9.4-.3-14.2-.4-3.8-1.1-7.6-1.8-11.4-.4-1.9-.8-3.7-1.2-5.6-.5-2.3-1.1-4.6-1.9-6.8-1.1-2.6-2.2-5.2-3.2-7.9-1.5-3.7-3.3-7.3-5.4-10.6-2-3.1-4.3-6-6.4-8.9-.3-.4-.6-.8-.9-1.2-1-1.6-2.2-3-3.6-4.2-1.7-1.5-3.4-3-5.1-4.5-1.1-.9-2.1-1.9-3.2-2.7-1-.8-2.1-1.5-3.1-2.3-1.1-.9-2.3-1.8-3.4-2.6-1.7-1.2-3.5-2.3-5.2-3.4-1.8-1.1-3.6-2.1-5.6-2.9-1.3-.6-2.7-1.2-4-1.8-1.8-.9-3.6-1.8-5.4-2.5-3.2-1.3-6.4-2.4-9.7-3.4-1.2-.4-2.5-.8-3.8-1-2-.2-4-.6-6-1-2.6-.7-5.3-1.1-8-1.2-6.8-.2-13.5,0-20.2.8-.7,0-1.3.1-2,.3-2.8.9-5.7,1.2-8.5,2.2-.6.2-1.4.3-2,.5-3.2,1.1-6.4,2.3-9.6,3.3-2.3.7-4.6,1.6-6.7,2.6-2.6,1.2-5.1,2.5-7.6,3.9-.8.4-1.6.8-2.4,1.3-1.6,1.2-3.4,2.1-5.1,3.2-1.5,1-2.9,2.1-4.4,3.1-.7.4-1.3.8-1.9,1.3-1.2,1.2-2.6,2.2-4,3.3-2.1,1.7-4.1,3.6-6.1,5.5-2.5,2.4-4.8,5.1-6.9,7.8-2,2.4-3.8,5-5.2,7.8-1.4,3-2.6,6.1-3.8,9.2-.7,2-1.6,3.9-2.2,5.9s-1.3,4-1.8,6.1c-.4,1.6-.6,3.2-1.1,4.8-.5,2-.8,4.1-1.1,6.1-.3,2-.7,3.9-.9,5.9-.4,3.2-.1,6.5-.4,9.7"/>
        <path id="Path_1109" data-name="Path 1109" class="cls-3" d="M109.8,42.6c-1.1.1-2.2-.2-3-.8-.6-.3-1.3-.5-1.9-.4-1.2,0-2.3,0-3.5,0-2.2,0-3.2-1-3.1-3.2,0-3.5.4-7.1,1.1-10.5.2-.9.3-1.8.3-2.7,0-2.7.3-5.5,1-8.1.3-.9.2-1.8,1.1-2.5.8-.8,2-1.1,3.1-.8.7.1,1.4.3,2,.5,1.1.3,2.1.5,3.2.6,1.2,0,2.4.3,3.5.7.3.2.6.3.9.3,1.4,0,2.8.8,3.7,1.8.9.9,1.6,2.1,1.9,3.3.2.9.2,1.9.2,2.9,0,1.3-1.1,1.9-1.8,2.6-1,1-1.2,1.9-.3,3,1.9,2.1,2.7,5,2.1,7.8-.4,1.3-1.3,2.4-2.5,3.1-1.1.8-2.4,1.4-3.7,1.5-.2,0-.5.1-.6.2-1.1.7-2.5.9-3.8.8M109.6,34.6c1.4,0,1.6-.2,1.6-1.6,0-1.3-.6-1.9-2.1-1.9-1,0-1.5.5-1.5,1.4.1,1.6.4,2.2,1.9,2.1M110.2,23.6c1.1,0,1.6-.4,1.7-1.4.1-.9-.6-1.1-1.2-1.3-.6,0-1.3,0-1.9.2-.3,0-.4.3-.5.6,0,1,.7,1.8,1.6,1.9,0,0,.1,0,.2,0"/>
        <path id="Path_1110" data-name="Path 1110" class="cls-3" d="M150.3,132.2c1.5-.2,2.2,1,3.1,1.8,1.6,1.5,3.1,3.1,4.5,4.8,2,2.2,3.8,4.5,5.5,7,1.4,2.1,1.9,4.6,1.2,7.1-.5,2.2-1.8,4.2-3.6,5.5-1.2.9-2.5,1.7-3.9,2.4-1.3.7-2.7,1.2-4.2,1.3-1.5.2-3.1-.2-4.4-1.1-1.8-1.4-3-3.3-4.6-4.9-2-2.1-4-4.3-6-6.4-.9-1.1-1.8-2.2-2.6-3.4-.6-1.1-.4-2.4.3-3.4.7-.8,1.5-1.6,2.3-2.4,1.3-1.1,3.1-1.1,4.4,0,1.5,1.6,2.9,3.2,4.3,4.9,2.3,2.7,4.8,5.1,7.1,7.7.4.6,1.2.8,1.8.5.2-.1.4-.4.5-.6.4-.5.3-1.1,0-1.5-2-2.5-4-5.1-6.1-7.6-1.3-1.5-2.6-3-4.1-4.3-.6-.6-1-1.2-1.3-2-.3-.9.3-1.7.9-2.3.9-.8,1.9-1.6,2.9-2.4.6-.4,1.3-.6,1.9-.5"/>
        <path id="Path_1111" data-name="Path 1111" class="cls-3" d="M25.4,134.3c-.4-1.4.8-3,1.5-4.5.8-1.3,1.8-2.5,3-3.5.8-.8,1.7-1.5,2.7-2.1,1-.7,2.1-1.3,3.3-1.6.3,0,.6-.1.9-.2,1.7-.8,3.7-1.1,5.6-.8,1.9.2,3.8.8,5.5,1.8,1.9,1,3.4,2.7,4.2,4.7.8,2,1,4.2.6,6.3-.5,2.5-1.5,4.8-3,6.8-1.3,2-3.1,3.6-5.2,4.8-2.4,1.2-5.1,1.9-7.9,1.9-.8,0-1.6-.2-2.3-.5-.7-.2-1.3-.4-2-.5-1.1-.2-1.9-1.1-2.8-1.7-1.8-1.4-3.1-3.4-3.8-5.6-.6-1.5-.4-3.1-.4-5.3M33.6,136.8c0,.7,0,1.4.6,1.7,1.6.7,3.5.7,5-.2,1.1-.7,2.2-1.5,3.2-2.4.9-.7,1.7-1.6,2.3-2.6.4-.9.3-1.9-.3-2.7-.6-.9-1.7-1.4-2.7-1.1-1.9.7-3.7,1.7-5.2,3.1-.7.7-1.4,1.5-2,2.3-.5.5-.8,1.2-.7,1.9"/>
        <path id="Path_1112" data-name="Path 1112" class="cls-3" d="M41.2,99.2c0,.4,0,.8,0,1.2,0,1.2-.9,2.2-2,2.6-1.6.6-3.4.9-5.1.9-.3,0-.5,0-.8,0-1.8.2-2.4,1.6-1.3,3.1.6.9,1.7,1.4,2.8,1.1,1.6-.2,3.2-.3,4.7-.6,1.5-.3,2.5.8,2.9,2.5.5,1.9-.4,3.3-1.4,4.7-.4.4-.9.6-1.4.6-2.1.3-4.1.7-6.1,1.3-2.8.7-5.7,1.2-8.6,1.7-1.8.4-3.7.6-5.6.8-.7.1-1.3,0-2,0-1.1-.3-1.9-1.1-2-2.2-.3-1.2-.3-2.5,0-3.7.3-.9,1-1.7,2-2,2-.7,4-1.2,6.1-1.3.9-.2,1.5-1,1.5-1.9.3-1-.3-2.1-1.4-2.4-.4-.1-.8,0-1.2,0-2.2.6-4.4.3-6.6.4-.8,0-1.5-.5-1.7-1.3-.3-.9-.7-1.6-.9-2.5-.5-2.1.8-4.1,2.9-4.6.1,0,.3,0,.4,0,1.9-.3,3.8-.8,5.8-1,1.4-.1,2.8-.3,4.2-.3,2.4-.2,4.7-.6,7-1.3,1.6-.4,3.2-.9,4.9-.3,1.7.6,2.9,2.2,2.9,4.1,0,.2,0,.4,0,.6h0Z"/>
        <path id="Path_1113" data-name="Path 1113" class="cls-3" d="M85.1,121.2c1.1-.1,2.2,0,3.2.7.8.4,1.4,1.2,1.5,2.1.1,1,.7,2.1,0,3.1,0,.1,0,.3.1.4.1,0,.3,0,.4,0,.2-.2.3-.3.5-.5.9-1.1,2.5-1.3,3.6-.4.2.2.4.4.6.7.6.7,1,1.5,1.2,2.4.1.4,0,.9-.4,1.1-.5.4-.9.8-1.3,1.3-.4.5-.9.8-1.5,1-.4,0-.7.4-.7.8,0,.3.1.7.4.8.4.2.8.2,1.1,0,1.1-.9,1.9-2,2.4-3.3.3-1.6.9-3.2,1.9-4.6.2-.3.6-.5.9-.5.5,0,.9,0,1.4,0,1.6-.3,3.2.3,4.2,1.5.5.5.8,1.2.8,1.9,0,.3,0,.6,0,1,0,.1,0,.3.2.3s.3-.1.3-.3c.2-.8.7-1.4.8-2.3.2-.8.5-1.5.9-2.2.1-.3.4-.4.7-.4.8-.2,1.6-.2,2.4,0,1.3.4,2.8.6,3.7,1.9.4.5.6,1,.8,1.6,0,.2.1.6.4.6s.3-.4.4-.6c.7-2.3,3.1-3.6,5.4-3,0,0,.1,0,.2,0,.6.2,1.1.7,1.2,1.3.2.8.6.9,1,.3,1-1.5,2.4-1.6,3.9-1.5,1,0,2,0,3,0,.5,0,1,.2,1.1.7.2.5-.1,1-.6,1.2,0,0,0,0,0,0-.8.4-1.7.8-2.4,1.3-1.3.9-2.2,2.4-2.3,4-.1,1.1-.6,2.1-1.3,2.9-.5.8-1.2.7-1.9.2-.2-.2-.6-.3-.9-.1-1.2.4-2.4.5-3.6.4-1.3-.2-2.4-1-2.9-2.2-.4-.8-.9-1-1.6-.2-.6.7-1.2,1.3-2,1.7-.9.4-1.8.7-2.8.9-1,.3-1.8,1.1-1.9,2.2,0,.9-.4,1.8-1,2.4-.4.5-1.1.6-1.7.4-.6-.1-.4-.7-.4-1.1,0-1.7,0-3.5,0-5.2,0-.3,0-.6-.2-.7-.3-.2-.6,0-.8.3s-.3.5-.5.7c-.4.7-1.2,1.1-2,1.1-1.3,0-2.4.8-2.9,1.9-.2.3-.3.7-.6,1-.5.9-1.7,1.1-2.5.6,0,0,0,0,0,0-.3-.1-.5-.4-.5-.8,0-.5,0-1.1.1-1.6.2-1,0-1.3-1.1-1.4-.8,0-1.7,0-2.5,0-1.4-.2-2.6-1.2-2.9-2.6-.2-1.3-.2-2.5,0-3.8,0-.3.2-.7-.1-1-.3-.2-.6,0-.9.2-.9.6-1.8,1.1-2.7,1.5-.9.4-1.4,1.3-1.4,2.2,0,1-.7,1.8-.9,2.7,0,.3-.3.3-.6.3-1.7,0-2.5-1.2-2-2.9.7-2.3,1.1-4.7,1.7-7,.1-.5.4-1.3-.4-1.6-.4-.2-1.2.5-1.3,1.2,0,.4-.2.8-.4,1.1-.4.5-.9.9-1.5.6-.6-.3-.9-.9-.7-1.5.3-1.5,1.2-2.8,2.5-3.7,1.6-1.3,3.7-1.1,5.5-1.4M112.4,130.8c0-.6-.2-1.1-.6-1.5-.7-1-1.4-.9-2,.1-.5,1.3-1,2.5-1.4,3.9,0,.1,0,.3,0,.4,0,.4.2.8.6,1,.4.2.6-.1.9-.3.3-.3.7-.5,1-.8.7-.7,1.3-1.7,1.6-2.7M99,133c0,.4,0,.8.4,1,.5.2,1,.2,1.5-.2,1.4-1.1,1.6-3.4.9-4.9-.1-.4-.5-.6-.9-.5-.2,0-.3.2-.4.3-.7,1.4-1.2,2.8-1.5,4.2M123.6,130.6c0-.2,0-.3,0-.5,0-.3,0-.7-.4-.7-.3,0-.3.4-.4.6-.3.9-1,1.5-1.8,1.9-.3.2-.6.5-.8.8-.3.4-.2.9.1,1.2.3.3.8.4,1.1.1,1.3-.7,2.1-2,2.1-3.4M84.7,126.4c0,.5,0,.8.4.9.3.1.6,0,.8-.2.3-.4.6-.9.7-1.5.2-.5-.1-1.1-.7-1.3,0,0,0,0,0,0-.6-.2-.8.4-.9.9,0,.4-.2.8-.3,1.1M92,129.7c0,.4.2.6.6.5.5-.1,1-.3,1-.9,0-.4-.2-.8-.6-.7-.5.2-.9.6-1,1.1"/>
        <path id="Path_1114" data-name="Path 1114" class="cls-3" d="M46,55.3c-.2-2.4,0-4.9-1.3-7.2-.2-.5-.4-1-.4-1.6,0-.5-.2-1-.5-1.4-.2-.5-.8-.7-1.2-.5,0,0-.2.1-.3.2-.9.7-1.7,1.3-2.5,2.1-1,1.1-2.8,1.2-3.9.1,0,0-.2-.2-.2-.2-.9-.7-1.4-1.7-1.4-2.8,0-1.5,1.2-2.3,2.2-3.1,1.9-1.4,3.6-2.9,5.1-4.6,1.1-1.2,2-2.5,3.1-3.7,1.1-.7,2.5-.8,3.6,0,1.4,1.2,2.5,2.6,3.4,4.3.4,1,.6,2.2.6,3.3,0,1.4.2,2.8.9,4.1.2.4.3.8.3,1.2,0,1,.3,1.9.8,2.7.3.6.4,1.2.4,1.8,0,.6-.1,1.4.5,1.6.6.1,1-.6,1.4-1,.7-1,1.6-2,2.5-2.8.7-.7,1.5-1.3,2.5-1.6,1.5-.2,2.4.8,3.3,1.7.6.6,1.4,1.2,1.3,2.3,0,.5-.2.9-.5,1.2-3.6,4-7.9,7.2-11.6,11-.5.5-1.1.9-1.7,1.3-.6.4-1.3.4-1.9,0-1.5-.7-2.7-1.9-3.5-3.4-.7-1.3-1.1-2.7-1-4.2,0-.3,0-.6,0-.9"/>
        <path id="Path_1115" data-name="Path 1115" class="cls-3" d="M87.1,42.6c-1.6,0-2.5-1.2-3.6-2-.9-.6-1.5-1.7-2.8-1.6-.7,0-1.4.4-1.7,1-.6,1-1,2.2-1.2,3.3-.2,1.5-1.2,2.7-2.6,3.3-.4.2-.9.5-1.3.7-1.4.4-2.9,0-3.8-1-.3-.3-.4-.7-.4-1.1,0-1.3-.1-2.7-.6-3.9-.2-.5-.2-1,0-1.5.5-1.7.7-3.5.5-5.3-.1-2.8-.7-5.5-.6-8.2.1-1.8.4-3.7.7-5.5.2-.9.8-1.6,1.7-2,1.6-.7,3.1-1.6,5.2-.7,2.3,1,3.6,2.7,4.9,4.6,1.2,1.7,2.1,3.5,3.4,5.1.5.7.9,1.4,1.3,2.1,1,1.5,2.1,2.8,3.1,4.3.8,1.1,1.6,2.1,2.5,3.1,1.4,1.7,1.3,2.7-.6,3.9-.9.6-2.1.9-3,1.5-.3.1-.7.2-1,.2M78.9,32c0-1.2-.7-2-1.7-2.1-.7,0-1.3.4-1.3,1,0,0,0,0,0,0,0,1.4.6,2.3,1.6,2.3.8,0,1.4-.5,1.5-1.3,0,0,0,0,0,0"/>
        <path id="Path_1116" data-name="Path 1116" class="cls-3" d="M118.2,175.8c.4-1.9.4-3.9,0-5.9-.8-4.5-.9-9.1-.4-13.7,0-2.3.7-4.5,1.8-6.6.2-.5.7-.9,1.2-1,.3,0,.6-.2.8-.3,1.8-.9,4-.3,5.1,1.4,1.4,1.8,2.4,3.8,3.8,5.5.9,1.1,1.8,2.3,2.7,3.4.8,1,1.5,1.9,2.3,2.9.5.7.9,1.3,1.4,2,1,1.4,1.9,2.9,2.5,4.5.2.6.8.9.9,1.6.3.8,0,1.7-.8,2.2-1,.8-2.1,1.4-3.2,1.8-1.4.5-2.9.1-3.9-.9-.4-.5-.9-1-1.3-1.5-.7-.9-1.7-.7-2.6-.6-1,0-1.8.9-1.8,1.9,0,0,0,0,0,.1,0,1.8-1,3.5-2.4,4.7-1.1,1-2.6,1.4-4.1,1.1-1.5-.2-2-.8-2-2.5M124.1,162.2c0,.7.3,1.3.5,1.9.1.5.7.9,1.2.7.7,0,1.4-.5,1.8-1.1.1-.2,0-.3-.1-.5-.6-.9-1.2-1.7-1.8-2.6-.2-.3-.6-.6-1-.5-.4.1-.4.6-.5.9,0,.3-.1.6-.2,1"/>
        <path id="Path_1117" data-name="Path 1117" class="cls-3" d="M178,98.7c0,1.1,0,2.3,0,3.4,0,.8.5,1.4,1.2,1.5.9.3,2,0,2.5-.9.4-.7.5-1.5.5-2.3,0-1.5.3-2.9.6-4.4,0-.4.3-.8.8-.8,1.3-.2,2.6-.2,3.9,0,.4,0,.8.4.9.8.2.6.3,1.2.3,1.8-.4,3.3-.2,6.7-.5,10.1-.2,1.5-.7,2.9-1.4,4.2-.8,1.5-2.4,1.4-3.9,1.3-5-.6-9.9-1.6-14.9-2-1.7-.1-3.5,0-5.2-.6-1.2-.3-2.1-1.4-2-2.7,0-1.5.2-3.1.5-4.6.2-2.7.3-5.4.4-8.1,0-.5,0-1,.1-1.5.1-.7.8-1.1,1.5-1,1,.2,2,.1,2.9.2,1.6.2,2.1.8,2,2.4,0,1.7-.1,3.4-.5,5,0,.2,0,.5,0,.7,0,.7.6,1.3,1.4,1.3.8,0,1-.3,1.3-1,.6-1.5.9-3.1.8-4.7,0-.5,0-.9.3-1.4.1-.7.8-1.1,1.4-1,1.2,0,2.4.1,3.6.2,1,0,1.7.9,1.7,1.9,0,.7,0,1.4,0,2.2h0"/>
        <path id="Path_1118" data-name="Path 1118" class="cls-3" d="M95.6,180.4c-1.7,0-3.4-.4-4.9-1.2-1.1-.6-1.8-1.6-2.1-2.8-.3-1-.3-2.1-.2-3.1.2-1.6,1.5-2.4,2.9-1.5,1.2.8,2.6,1,3.8,1.7,1.2.6,2.6,0,3.2-1.1,0,0,0-.1,0-.2.4-.8,0-1.7-.6-2.2-.8-.7-1.7-1.3-2.7-1.8-1.4-.8-2.7-1.9-3.8-3.1-1.9-2.2-1.9-4.7-1.5-7.4.1-.4.3-.8.5-1.1,1.2-1.8,3-3.1,5.2-3.7,2.1-.6,4.3-1.1,6.5-.5.4.1.7.2,1.1.2,2.1,0,3.2,1,3.7,3.2.3,1,.3,2.1,0,3.1-.3,1.2-1.5,1.8-2.7,1.5-.3,0-.5-.2-.8-.4-1-.7-2.2-1-3.4-.9-.5,0-.9.3-1,.7-.2.5,0,1.1.4,1.4,1.4.9,2.6,1.9,4.1,2.7,1.6.8,2.9,1.9,3.9,3.4,1,1.5,1.3,3.3.9,5.1-.7,2.6-2.5,4.8-5,5.8-.7.3-1.1,1-1.9,1.1-1.9.2-3.7,1-5.6,1"/>
        <path id="Path_1119" data-name="Path 1119" class="cls-3" d="M150.7,62.6c-1.4-.1-2.7,0-3.9-.8-.2-.1-.5-.2-.7-.2-2.1-.3-3.4-1.8-4.8-3.2-1.1-1.1-1.4-2.7-2.3-4-.8-1.3-.3-3.7.8-4.9.4-.5.9-.9,1.6-1.2,1.9-.6,3.1,0,3.6,2,.5,1.4,1.2,2.7,2.2,3.9.8.7,2,.7,2.8,0,.9-.5,1.2-1.7.7-2.6,0,0,0,0,0-.1-.3-.8-.5-1.7-.5-2.6,0-.5-.2-1-.4-1.4-.9-1.8-1.1-3.9-.8-5.9.2-1.2.9-2.2,1.8-3,2-2,4.6-2.2,7.1-1.4,1.9.7,3.7,1.7,5.2,2.9,1.4,1.2,2.6,2.6,3.5,4.1.2.4.3.8.4,1.2.3,2-.6,4-2.1,5.2-.5.5-1.3.6-1.8,0-.1-.1-.2-.2-.3-.4-.5-.6-.9-1.3-1.3-2-.4-1-1.1-1.9-2.1-2.4-.7-.4-1.6-.1-2,.6-.1.2-.2.5-.2.8,0,1,.2,1.9.5,2.8.4,1.6.7,3.2.8,4.9.2,1.3,0,2.7-.4,3.9-.3,1-1.1,1.8-2,2.1-1.2.6-2.4,1-3.8,1.3-.6,0-1.2,0-1.6,0"/>
        <path id="Path_1120" data-name="Path 1120" class="cls-3" d="M64.6,97.4c.9,0,1.8,0,2.6.4.1,0,.3.1.4.1,2.8.3,3.8,2.5,5,4.6.6,1,1,2,1.7,3,0,0,0,0,.1.1.3,2,1.5,4,.8,6.1-.6,1.9-1.7,3.7-3,5.1-1.3,1.4-2.8,2.5-4.5,3.3-1,.5-2.1.9-3.2,1-.5,0-.9.2-1.3.5-.7.5-1.7.3-2.2-.5-.1-.2-.2-.3-.2-.5-.6-1.5-1.2-3-1.9-4.5-.7-1.6-1.4-3.2-2-4.8-1-2.3-1.7-4.8-2.5-7.2,0-.3,0-.6-.2-.8-.6-1.7,0-2.6,1.7-3.2,1.3-.5,2.5-1.2,3.8-1.7,1.5-.6,3.2-1,4.8-1.1M68.5,110.7c0-.2,0-.4,0-.5-.7-1.2,0-2.8-1-4.1-.3-.5-.4-1.2-.9-1.7-.7-.6-1.5-1.1-2.4-1.5-1-.4-1.5.3-2,.8-.4.3-.5,1-.2,1.4,0,0,.1.1.2.2.1.2.2.4.3.7.4,1.1.7,2.1,1.2,3.1.6,1.3,1.2,2.6,1.7,3.9.3.8.8.9,1.6.5,1.3-.7,1.2-2,1.6-3"/>
        <path id="Path_1121" data-name="Path 1121" class="cls-3" d="M171.5,129c3,0,4.9-1.2,5.7-3.8.5-1.3,1.8-2,3.1-1.6,2.4.7,3.1,3.6,2.6,5.3-.9,2.6-2.6,4.8-4.9,6.3-1.2,1.1-2.8,1.7-4.4,1.8-.6,0-1.1.3-1.7.5-1.5.3-3,.2-4.5-.2-.4-.1-.9-.2-1.3-.3-2.2-.5-4.2-1.5-5.8-3.1-1.3-1.1-2.4-2.4-3.3-3.9-1.5-2.1-2.2-4.7-2-7.3,0-.7.1-1.4.2-2.2,0-.3,0-.6.2-.8.8-1.5,1.3-3.2,2.7-4.3.2-.2.5-.3.7-.4,1.2-.3,2.4-.3,3.5,0,.9.3,1.6,1,2,1.8.3.6.2,1.4-.3,1.9-.7.9-1.1,1.9-1.4,3-.5,1.9.4,3.2,1.7,4.4,1.5,1.2,3.3,2.2,5.1,2.8.6.1,1.3.2,2,.2"/>
        <path id="Path_1122" data-name="Path 1122" class="cls-3" d="M71.2,153.6c-1.3,0-2.5-.2-3.6-.9-.5-.4-.9-.2-1.3.2-1,1-1.9,2.2-2.6,3.5-2.1,3.1-3.5,6.6-6.3,9.3-.7.9-1.9,1.1-2.8.5,0,0,0,0,0,0-1.2-.6-2.5-1.2-3.7-1.9-1.3-.7-1.4-1.4-.7-2.6,1.1-2,2.1-4,3.3-6,1.3-2.1,2.7-4.1,4.2-6,.5-.7.9-1.4,1.2-2.2.2-.5,0-1.1-.3-1.5-.7-.7-1.4-1.3-2.1-1.9-2-1.7-1.1-3.3.9-4.3,2.2-1.1,4.2-.3,5.9.9,2.9,2,5.7,4.1,8.5,6.2.6.5,1.2,1,1.8,1.5.7.5.9,1.4.5,2.2-.3.6-.4,1.3-.7,1.8-.5,1-1.2,1.6-2.2,1.4"/>
        <path id="Path_1123" data-name="Path 1123" class="cls-3" d="M82.4,114.9c-2.2,0-2.2,0-2.1-2.2,0-1.5.7-2.9.8-4.5.3-3.3.8-6.6,1.3-9.9.2-1.6.7-3.1.8-4.7.2-.7.5-1.4.9-2,.1-.3.4-.2.6-.2,1.4-.2,2.8-.2,4.2-.1.7,0,1.4.4,1.7,1.1.7,1.1,1.3,2.3,1.8,3.5.5,1.3,1.4,2.4,1.9,3.7.4,1.3,1,2.6,1.8,3.8.4.7.7,1.5.9,2.3.2.7.4,1.4.6,2.1.4,1.2.2,2.5.9,3.7.3.6-.8,1.6-1.9,1.7-.6,0-1.2.1-1.8.3-.8.3-1.6,0-2.1-.6-.7-.8-1.5-1.5-2.3-2.2-1-.8-2.4-.6-3.2.4,0,.1-.1.2-.2.3-.3.6-.6,1.1-.8,1.7-.3,1-1.2,1.6-2.2,1.6-.5,0-.9,0-1.4,0M86.9,102.1c0,1.9,0,2,1.6,1.8.8,0,1.2-.6.9-1.4-.2-.6-.4-1.1-.6-1.7-.1-.5-.6-.9-1.1-.8-.5,0-.9.6-.8,1.1,0,0,0,0,0,0,0,.3,0,.6,0,.9"/>
        <path id="Path_1124" data-name="Path 1124" class="cls-3" d="M116.1,63.2c1.1,0,2.1-.5,2.7-1.3.5-.9,1.1-1.7,1.6-2.5.5-.9,1-1.8,1.6-2.6.3-.5.9-.6,1.4-.4.6.3.5.8.2,1.3-.6,1.1-1.2,2.1-1.9,3.1-.4.6-.5,1.3-1.1,1.8-.2.1-.2.4,0,.5,0,0,0,0,0,0,.2.2.4,0,.6,0,.3-.1.5-.3.6-.6.5-1.2,1.3-2.2,2.4-3,.8-.6,3-.2,3.4.7.1.3,0,.7-.3.8-.9.7-1.5,1.7-2.7,1.9-.2,0-.4.2-.3.4,0,0,0,0,0,0,0,.3.2.3.4.3.7,0,1.4-.2,1.9-.6.6-.6,1.1-1.3,2-1.4.4,0,.4-.4.5-.7.2-.4.4-.8.8-1.1.8-.6,1.8-.9,2.8-.7,1,.1,1.7,1,1.6,2,0,.1,0,.3,0,.4-.1.3-.4.5-.7.5-.3,0-.6-.2-.7-.5-.2-.5-.4-1-1-.6-.6.3-.5.9-.2,1.4.9,1.5.9,1.5,2.7,1,.6-.2,1.1,0,1.2.5.2.6-.2.8-.7,1.2-1.1.8-2.5.6-3.7,1.1-1.2.5-2.5.2-3.5-.7-.5-.5-1.4-.6-1.9,0-.8.5-1.8.5-2.6,0-.5-.4-1.2-.5-1.9-.4-.9.1-2,.4-2.8-.4-.2-.2-.6-.2-.8,0,0,0,0,0,0,0-1,.7-2.3.7-3.3,0-1-.7-2.4-.4-3,.6-.5,1.1-1.3,2.1-2.2,2.9-1.5,1.1-2.5.8-3.4-.3-.5-.5-.5-1.2,0-1.8.4-.6.9-.2,1.3,0,1.1.2,2.2-.4,2.5-1.4,0-.3-.2-.3-.5-.4-1.1,0-2.1,0-3.2,0-.9,0-1.1-.7-1.5-1.2-.3-.4,0-.8.3-1.2.3-.5.3-1.1.8-1.5.1,0,0-.3,0-.4-.2-.1-.4-.1-.6,0-.4.4-1,.6-1.3,1-.5.8-1,1.7-1.5,2.5,0,0,0,0,0,0-.7.9-1.8.8-2.6,1.2-.6.4-1-.5-1.4-.9-.4-.4-.3-1-.4-1.5,0-.4.4-.9-.2-1.1-.6-.3-1.4-.2-1.9.3-.5.5-1,1.1-1.4,1.6-.3.5-.8.9-1.4,1.1-.4.2-.8,0-1.1-.3-.3-.3,0-.6.1-.9,1.6-3,3.8-5.6,6.6-7.5.6-.4,1.2-.9,1.8-1.4.3-.3.9-.4,1.3,0,.4.2.5.8.3,1.2,0,0,0,0,0,.1-.7.9-.7,2.2-1.5,3.2-.2.4-.2.8,0,1.2.2.5,0,1.1-.5,1.4-.4.2-.5.7-.3,1.1,0,0,0,0,.1.1.4.3.6-.2.9-.4.9-1.2,1.7-2.5,2.4-3.9.4-.6,1-.9,1.6-.5.5.4,1.1.6,1.7.5.9,0,1.2.4,1.2,1.2,0,.7.1,1.4-.6,2-.2.2-.2.6,0,.8,0,0,0,0,0,0,.3.3.5,0,.7-.2.3-.2.5-.5.5-.9.2-1.4,1.1-2.5,2.5-2.9.2-.1.4-.3.6-.4.3-.3.9-.4,1.3,0,.4.3.9.5,1.4.5.6,0,.9.2.8.8,0,.2,0,.4.2.5.3,0,.4-.1.6-.3.5-.7,1.5-1.2,2.4-1.1.7,0,1.3.3,1.7.9.3.4.3.9,0,1.3,0,0,0,0-.2.1-.7.5-1.3,1-2,1.4-.4.2-.6.6-.5,1M111.1,60.2c-.5,0-1,.2-1.2.7,0,.3-.3.5-.5.7-.3.2-.4.6-.2,1,0,0,.1.2.2.2.4.4.8.2,1.2-.2.5-.5.5-1.1.9-1.6.1-.2.3-.3.2-.5,0-.3-.4-.2-.6-.2M129.6,62.7c-.5.2-.7.8-.5,1.2.1.4.6.4.9.5.2,0,.4,0,.5-.2.1-.2.1-.4,0-.4-.5-.2-.5-.8-.8-1.1M98.2,58.8c0-.2,0-.4-.2-.5-.2,0-.4,0-.4.2-.2.4-.5.7-.8,1-.3.3-.2.5.2.5.7,0,1.2-.4,1.2-1.3"/>
        <path id="Path_1125" data-name="Path 1125" class="cls-3" d="M106.1,104.6v-7.2c.2-1-.5-1.9-1.5-2.1-.1,0-.3,0-.4,0-.6,0-1.3-.1-1.9-.2-.6,0-1.2-.3-1.3-.9,0,0,0-.2,0-.3,0-.8,0-1.7.2-2.5,0-.6.6-.6,1.1-.6,2.7,0,5.3,0,8,0,1.6.1,3.3.1,4.9,0,.4,0,.9,0,1.3.2.8.1,1.3.8,1.3,1.6,0,.7,0,1.5,0,2.2,0,.7-.8,1.3-1.5,1.2,0,0,0,0,0,0-1,0-2,0-2.8.5-.5.3-.8.7-.8,1.3-.3,2.2-.4,4.4-.8,6.5-.5,2.7-.2,5.4-.6,8,0,.7-.4,1-1,1-1,0-2,0-3,0-.8,0-1.1-.4-1.1-1.1,0-2.5,0-5,0-7.6h0Z"/>
        <path id="Path_1126" data-name="Path 1126" class="cls-3" d="M141.5,96c.7.1,1.5.4,2.1.8.8.4,1.5.9,2.1,1.4.4.3.5.7.3,1.2-.5,1.6-1.2,3.2-2,4.6-.6,1.2-1.2,2.5-1.9,3.7-.6,1.1-1.1,2.2-1.7,3.3-.3.5-.4,1.1-.5,1.7,0,.5.3.9.7.9,1.3.1,2.2,1.2,3.2,1.8,1.2.6,2.4,1.3,3.5,2,.7.6.9,1.1.4,1.9-.4.6-.8,1.2-1.3,1.8-.4.6-1.3.8-1.9.4-1.1-.6-2.1-1.2-3.3-1.7-1.5-.6-2.8-1.6-4.2-2.4-.2-.1-.5-.4-.7-.5-.6-.4-1-.9-1.9-1-1.1,0-1.6-1.3-1.3-2.3.4-1.1.7-2.1,1.1-3.2.3-1,.6-2,1.1-2.9.3-.7.6-1.4.8-2.1.6-1.9,1.4-3.7,2.3-5.4.7-1.3,1.1-2.7,2.2-3.8.4-.4.4-.4.8-.4"/>
        <path id="Path_1127" data-name="Path 1127" class="cls-3" d="M120.5,112.6c0-.4,0-.8.1-1.1.3-1.5.5-3,.7-4.5.2-2.1.8-4.2,1.2-6.4.1-.5.2-1,.2-1.5,0-2.1.8-3.9,1.5-5.8.3-.8,1-1.1,2.3-.9.7,0,1.5.3,2.2.6.9.2,1.7.5,2.4,1,.4.2.6.6.5,1.1,0,1.2-.3,2.3-.7,3.5-.2.6-.3,1.2-.3,1.8,0,.6,0,1.2-.3,1.7-.3.5-.4,1.1-.4,1.7,0,.5,0,.9-.4,1.3-.1.1-.3.3-.2.5,0,1.2-.3,2.4-.9,3.5-.6,1.4-.3,3-1.1,4.3-.1.2-.2.5-.2.8-.1,1-.5,1.2-1.5,1.1s-2-.2-3-.2c-1.7,0-2.1-.5-2.1-2.1"/>
        <path id="Path_1128" data-name="Path 1128" class="cls-3" d="M39.4,77c0,1.7-1.9,4.2-3.6,4.6-1.2.3-2.5,0-3.6-.7-.4-.3-.4-1.4,0-1.9.9-1.1,1.9-2.1,3-3.1.2-.1.4-.3.2-.5,0-.1-.3-.2-.4,0,0,0,0,0,0,0-.3.3-.6.2-1,.1-.4,0-.8,0-1,.4-1.1,1.2-2.4,2.1-3.6,3.3-.7.7-1.3.2-1.8-.2-.6-.4-.4-.9-.1-1.4.6-1.2,1.6-2.3,2.7-3.1.3-.2.5-.5.3-.7-.4-.5-.6-1-.7-1.6,0-.2-.4-.2-.6-.1-1,.5-1.9,1-2.1,2.2-.5,1.8-2.3,2.9-4.1,2.5-.2,0-.4-.1-.7-.2-.8-.5-1.1-1.5-.6-2.3,0,0,0-.1.1-.2.4-.5.3-.8-.3-.9-.4,0-.8-.4-1-.8-.2-.4-.5-.7-1-.4-.3.1-.5.5-.3.8,0,.1.1.2.2.3.3.3.4.6.4,1,0,1-.7,1.4-1.6.9-.6-.4-1.2-.9-1.6-1.6-.4-.6,0-1.2.3-1.7,1-1.6,2.2-3,3.7-4.1,1.4-.8,3.1-.4,4.1.9.3.5.2,1.1-.1,1.5-.4.3-.9.4-1.3,0-.3-.1-.7-.6-1-.1-.3.4,0,.8.4,1.1.5.6.9,1.1.2,1.8-.4.4-.2.7.3.7.7.1,1.5-.3,1.8-1,.3-.6.5-1.2.5-1.8,0-.5.3-1,.8-1.1,1.1-.5,2.5-.3,3.4.5.4.7,1.3,1,2,.7.5-.1,1.1.4,1.6.7,1.2.5,2.1,1.4,2.5,2.6.2.6.4.5.7.1.7-.8.8-.8,1.6,0q1.4,1.3,1.3,2.7M35.2,79.3c.9-.4,1.6-1,2-1.8,0-.2.2-.4,0-.5-.2-.1-.4-.1-.5,0,0,0,0,0,0,0-.6.7-1.1,1.5-1.5,2.3"/>
        <path id="Path_1129" data-name="Path 1129" class="cls-3" d="M144.2,28c0,1.9-.9,3.6-2.4,4.7-1.5,1.2-3.1,2.2-4.8,3.2-.8.5-1.6.9-2.4,1.4-1,.6-2.2,0-3.1-1.1-.5-.8-.4-1.8.2-2.6,1.7-1.8,2.4-4.3,2.1-6.7-.2-1.8.8-2.9,2.1-3.7.8-.5,1.6-.8,2.5-.9,2-.3,4,.7,4.8,2.6.6,1,.9,2.1.9,3.2"/>
        <path id="Path_1130" data-name="Path 1130" class="cls-3" d="M84.1,65.2c-.3,0-.7,0-1,0-.6.1-1.3-.2-1.6-.8-.5-.9-.7-.8-1.3,0-.6.9-1.6,1.4-2.7,1.5-.3,0-.6-.1-.8-.4-.2-.4-.7-.5-1.1-.2,0,0-.2.1-.2.2-.8,1-2.1,1.4-3.3,1.1-.6-.1-1.2,0-1.7.4-.5.5-1.3.6-1.8.2-.7-.3-1.2-1-1.2-1.8,0-1.7.9-2.4,2.6-1.9.6.2,1.1.1,1.1-.7,0-.2,0-.4.1-.6.2-.7.2-1.1-.6-1.5-.9-.4-1.7-1.2-2.1-2.1-.4-.6-.2-1.3.4-1.7,0,0,0,0,.1,0,.6-.1,1.2.3,1.3.9,0,0,0,0,0,0,0,.6.6.8.8,1.3,0,.2.3.3.4.2.2,0,.2-.3.2-.5.1-1.3.9-2.4,2-3.1.5-.4,1.2-.4,1.6,0,0,0,0,0,0,0,.8.6,1,1.6.5,2.5-.2.4-.5.7-.8,1-1.1.9-1.8,2.3-1.9,3.7,0,.2-.1.4-.3.6-.2.2-.3.4-.2.6s.4.2.6.1c.8,0,1.9-1,1.8-1.9-.1-1.6,1.1-2.2,1.9-3.2.6-.7,1.6-.9,2.4-.7.6,0,1.5,1.2,1.6,2,0,.8.1.9.8.4.2-.1.3-.2.6-.2.5,0,.7-.2.6-.7,0-.4.2-.8.5-1.1.7-.6,1.4-1.4,2.5-1.2.9.2,1.6.8,2.1,1.5.1.2,0,.5-.2.7-.3.2-.6.5-1.1.3-.5-.2-1.2-.8-1.6-.2-.4.6.4.9.7,1.4.3.7,1.1.9,1.7.6,0,0,.2,0,.2-.1.1,0,.2-.1.3-.1.4-.2.9-.6,1.3,0,.4.6,0,1-.5,1.4-1.4,1.2-3.2,1.9-5,1.8M77.8,63.7c.3-.2.8,0,1-.4-.3-.6-.7-1.2-1.3-1.5-.7.1-.7.7-.7,1.2,0,.8.5.7,1,.8M83.6,61.8c-.3,0-.3.4-.3.6,0,.5,0,1.2.7,1.2.3,0,.6,0,.6-.4-.2-.6-.5-1.1-1.1-1.4"/>
        <path id="Path_1131" data-name="Path 1131" class="cls-3" d="M173.2,73.3c0,.6,0,1.3,0,1.9,0,.4-.2.8-.6.9-.5.1-1,0-1.2-.5,0-.3-.2-.6-.4-.8-.1-.1-.2-.3-.4-.2-.2,0-.2.3-.2.4,0,.5-.1.9,0,1.4.1,1.4-.8,2.1-1.7,2.8-.6.7-1.7.7-2.4.1-.1-.1-.2-.2-.3-.3-1.4-1.8-1.9-4-1.5-6.2.3-1.5,1.8-2.4,3.3-2.1.2,0,.3,0,.5.2.8.4.9,1.3,1.4,1.9.1.2,0,.6.4.6.3,0,.2-.4.2-.7,0-.8,0-1.5,0-2.3-.1-.5-.1-1.1,0-1.6,0-.5.5-.9,1-.8.3,0,.5.2.6.4.9.9,1.4,2.1,1.4,3.4,0,.5,0,1,0,1.6h.1M166.6,74.6h0c0,.4,0,.8,0,1.2,0,.3.2.5.5.5.2,0,.5,0,.6-.3.4-.8.3-1.7-.1-2.5-.2-.2-.4-.5-.8-.4s-.2.5-.2.8c0,.2,0,.4,0,.6"/>
        <path id="Path_1132" data-name="Path 1132" class="cls-3" d="M179.7,71.4c0,.9-.2,1.7-.7,2.4-.5.6-1.3.9-2.2.9-.4,0-.8,0-1.2,0-.6.2-1.2,0-1.5-.7,0,0,0,0,0,0-.4-.9,0-1.6.9-1.7.5,0,1.2.2,1.2-.5,0-.7-.7-.6-1.1-.8-1.4-.4-2.2-1.9-1.7-3.3.1-.4.3-.7.6-1,1.8-1.8,3.4-1,4.7,1,.6,1.1.9,2.3.8,3.6M176,68.8c.3,0,.8,0,.8-.6,0-.3-.1-.7-.6-.7-.5,0-.7.4-.8.9,0,.4.2.5.5.5"/>
        <path id="Path_1133" data-name="Path 1133" class="cls-3" d="M120.7,76.9c0,1,0,2,0,3,0,.4.1.9-.4,1s-1.2.2-1.6-.4c-.1-.2-.3-.5-.4-.7-.1-.3-.2-.8-.7-.7s-.5.6-.5,1c0,.6-.2.9-.8.9-.5,0-.7-.2-.7-.7,0-2.1,0-4.3,0-6.4,0-.4.1-.7.5-.7.5,0,1.1-.2,1.4.3.1.2.2.4.3.6.1.2.3.4.6.4.3,0,.4-.2.6-.5,0-.2.2-.4.3-.6.2-.4.7-.3,1-.3s.4.4.4.7v3.2h0Z"/>
        <path id="Path_1134" data-name="Path 1134" class="cls-3" d="M163.2,76.7c0,.3,0,.6,0,.9,0,.7.1,1.1.9,1,.5-.1,1,.2,1.1.7,0,0,0,0,0,0,.2.6,0,1.2-.5,1.6-.9.6-1.9,1.1-3,1.3-.7.2-1.3-.3-1.5-.9,0-.2,0-.3,0-.5,0-.7.3-1.4.7-2,.5-.6.2-1.5.1-2.2,0-.2-.1-.3-.3-.3-.2,0-.4.1-.4.3,0,0,0,0,0,0-.2.7-.7.8-1.3.7-.7-.1-.6-.7-.6-1.2.1-1.7,1.3-3.2,3-3.6.6-.1,1.3.4,1.4,1.3.2.9.3,1.9.2,2.8"/>
        <path id="Path_1135" data-name="Path 1135" class="cls-3" d="M108.7,77c0-1,0-2,0-3,0-.6.3-.9.9-.9,1,0,1.9,0,2.9,0,.6,0,1.2.4,1.3,1.1,0,0,0,0,0,.1,0,1.1.3,2.3-.5,3.3-.3.3-.2.8,0,1.1.2.3.4.6.4,1,0,.5,0,1-.5,1.2-.5.2-1.2,0-1.4-.5-.2-.3-.3-.6-.4-.9-.1-.3-.3-.5-.6-.5-.3,0-.6.3-.6.7,0,.2,0,.3,0,.5,0,.4-.1.7-.6.7s-.9-.2-.9-.7c0-1.1,0-2.1,0-3.2h0ZM111.7,75.4c0-.4-.3-.7-.6-.7,0,0,0,0,0,0-.4,0-.7.3-.7.7,0,.4.3.7.6.7.4,0,.7-.2.7-.5,0,0,0,0,0,0"/>
        <path id="Path_1136" data-name="Path 1136" class="cls-3" d="M106.9,77c0,1,0,2-.2,3-.1.6-.7,1-1.3.9-.5,0-1,0-1.6,0-1.4,0-1.7-.1-1.9-1.5-.3-1.8-.3-3.6,0-5.3,0-.7.7-1.2,1.4-1.1,0,0,0,0,.1,0,.5,0,1,0,1.5,0,1.4,0,1.8.5,1.9,1.9,0,.7,0,1.4,0,2.1M103.4,76.9c0,.7,0,1.3.5,1.8.3.4.7.5,1.1,0,.8-1.1.7-2.6,0-3.7-.4-.4-.7-.4-1,0-.4.5-.6,1.2-.5,1.8"/>
        <path id="Path_1137" data-name="Path 1137" class="cls-3" d="M130.7,79.6c0,1.2-.1,1.4-.9,1.3-.4,0-.6-.3-.7-.7,0-.4-.2-.7-.6-.7-.5,0-.7.3-.8.7-.1.5-.6.8-1.1.7-.6,0-.9-.4-.8-1,.4-2.2.9-4.3,1.6-6.4.2-.5.5-.6,1-.6.4,0,.8,0,.9.5.5,2,1.1,4.1,1.4,6.1"/>
        <path id="Path_1138" data-name="Path 1138" class="cls-3" d="M84.6,79.8c0,.4.1.9-.5,1-.5.2-1,0-1.1-.6,0,0,0,0,0-.1,0-.4-.3-.6-.7-.7s-.6.3-.7.6c-.1.5-.7.9-1.2.7,0,0,0,0-.1,0-.6-.2-.5-.7-.4-1.2.4-2,.9-4,1.5-5.9.2-.5.6-.7,1.1-.7.4,0,.8.2.9.6.5,1.9,1,3.8,1.4,5.8,0,.1,0,.3,0,.4"/>
        <path id="Path_1139" data-name="Path 1139" class="cls-3" d="M76.1,73c.4,0,.8,0,1.1,0,.7,0,1,.3.9,1,0,.7-.4.9-1,.9-1-.1-2,.5-2.4,1.5-.2,1,.2,2,1,2.6.4.3.8.2,1.3.1.6,0,1.2,0,1.2.8,0,.8-.4,1.1-1.1,1.1-.5,0-.9,0-1.4,0-1.6,0-1.8,0-2.3-1.7-.4-1.4-.4-2.9,0-4.4.4-1.7.8-1.9,2.7-1.9"/>
        <path id="Path_1140" data-name="Path 1140" class="cls-3" d="M95.4,77v-3.1c0-.5.2-.8.8-.8h3.5c.4,0,.7,0,.8.5,0,.4-.2.8-.6,1-.3.1-.7.2-1,.1-.4,0-.8,0-1.2,0-.4,0-.6.3-.6.7,0,.3.2.6.6.7.3,0,.6.1.9.2.5,0,.8.5.7,1,0,.3-.3.6-.6.7-.1,0-.2,0-.3,0-1.2.2-1.6.7-1.4,1.9,0,.6.2,1.1-.7,1.1-.8,0-.8-.5-.8-1.1,0-1,0-1.9,0-2.9h0"/>
        <path id="Path_1141" data-name="Path 1141" class="cls-3" d="M86.3,77v-3c0-.5,0-.9.7-.9.7,0,.7.4.7.9,0,1.2,0,2.5,0,3.7,0,1.1.3,1.5,1.4,1.7.3,0,.6.1.8.3.3.2.4.5.3.9,0,.3-.3.3-.6.4-.9,0-1.8,0-2.7,0-.5,0-.6-.4-.6-.9v-3h0Z"/>
        <path id="Path_1142" data-name="Path 1142" class="cls-3" d="M122.5,77c0-1,0-2.1,0-3.1,0-.5.2-.8.8-.8.4,0,.7.2.8.6,0,0,0,.1,0,.2,0,2.1,0,4.2,0,6.3,0,.6-.3.7-.8.7s-.7-.2-.7-.7c0-1.1,0-2.1,0-3.2"/>
        <path id="Path_1143" data-name="Path 1143" class="cls-3" d="M93.4,77c0,1,0,2.1,0,3.1,0,.5-.2.8-.8.8s-.8-.3-.8-.8c0-2.1,0-4.2,0-6.3,0-.5.2-.8.8-.8.6,0,.8.3.8.8,0,1,0,2.1,0,3.1"/>
      </g>
    </g>
  </g>
</svg>