<?xml version="1.0" encoding="UTF-8"?>
<svg id="Layer_1" data-name="Layer 1" xmlns="http://www.w3.org/2000/svg" xmlns:xlink="http://www.w3.org/1999/xlink" version="1.1" viewBox="0 0 111.4 43.6">
  <defs>
    <style>
      .cls-1 {
        clip-path: url(#clippath);
      }

      .cls-2 {
        fill: #fdf9e8;
      }

      .cls-2, .cls-3 {
        stroke-width: 0px;
      }

      .cls-3 {
        fill: none;
      }
    </style>
    <clipPath id="clippath">
      <rect class="cls-3" x="0" width="111.4" height="43.6"/>
    </clipPath>
  </defs>
  <g class="cls-1">
    <g id="Group_23" data-name="Group 23">
      <path id="Path_4" data-name="Path 4" class="cls-2" d="M101.2,33.6c.3.1.5.3.7.5.4.3.4.9,0,1.3,0,0-.1.1-.2.1-.1.1-.4.2-.2.4s.4,0,.6-.2c.3-.4.6-.7.9-1,.5-.3,1.1-.3,1.5,0,.4.2.5.7.2,1.1,0,0-.1.1-.2.2-.1,0-.2.2-.3.3s-.2.2,0,.4c.1.1.3,0,.4,0,.3-.3.6-.7.9-1,.3-.4.5-.5.9-.3.5.1.8.6.7,1.1-.1.6-.4,1.1-.8,1.5-1.1,1.1-2.5,1.8-4,2-.7.1-1.3.1-2,0-1-.1-2,0-3-.2-2.3-.3-4.6-.9-6.8-1.7-.7-.3-1.3-.6-1.9-1-1.1-.6-2.2-1.1-3.3-1.6-.6-.3-1.2-.6-1.8-.9-1.3-.5-2.6-.9-3.9-1.1-1.6-.3-3.2-.3-4.8,0-2.7.4-5.4,1.1-8.1,1.9-1,.3-2,.5-3,.7-.7.2-1.4.1-2.2.3-2.6.4-5.3.6-8,.5-1,0-2,0-3-.1-1.8,0-3.6,0-5.4.4-1.2.3-2.4.8-3.5,1.5-1,.5-1.9,1.2-2.9,1.7-1.3.7-2.8.9-4.2.7-1-.2-1.9-.4-2.9-.7-.6-.3-1.2-.5-1.9-.7-1.5-.4-3-.3-4.5.1-.4.2-.7.4-1,.7-.4.3-.9.6-1.4.7-.3.1-.6.3-.8.6-.6.7-1.4,1.2-2.3,1.5-.4.2-.9,0-1.2-.2-.4-.3-.5-.8-.2-1.3.3-.6.8-1.2,1.4-1.6.1,0,.3-.2.2-.3,0-.1-.2,0-.3,0-.2.3-.5.5-.9.7-.4.3-.6.6-.8,1-.2.3-.3.6-.8.5-.3-.2-.5-.5-.4-.9.1-.6.5-1.2.9-1.7.2-.2.4-.4.6-.6,0,0,.1-.1,0-.2,0,0-.2,0-.2,0,0,0,0,0,0,0-.5.3-.9.7-1.2,1.2-.2.3-.4.7-.5,1.1,0,.3-.3.4-.6.4-.2,0-.3-.2-.4-.4-.2-.6-.1-1.3.2-1.8.5-.9,1.3-1.7,2.3-2.1.6-.3,1.2-.7,1.8-1,1.9-1,4-1.4,6.1-1.2.9.1,1.8.1,2.7,0,.6,0,1.1,0,1.7,0,.6,0,1.2,0,1.8-.2.5,0,1-.2,1.5-.2.7,0,1.4-.6,1.4-1.3,0-.2,0-.4,0-.5,0-.3-.2-.6-.3-.9,0-.1-.2-.2-.3-.2-.1,0,0,.2,0,.3,0,.5-.4.9-.9.7-1.2-.3-2.4-.2-3.6-.5-.8-.2-1.6-.4-2.4-.4-1.5-.1-3.1-.1-4.6,0-.6.1-1.2.5-1.6,1.1-.4.7-1,1.4-1.6,2-.4.3-.8.6-1.2.8-.5.2-1.1,0-1.3-.4,0,0,0-.2,0-.3,0,0,0-.2,0-.2,0,0-.2,0-.2.1-.2.2-.4.4-.7.5-.3.2-.8.2-1.1,0-.3-.3-.4-.7-.2-1.1.3-.7.7-1.4,1.3-1.9.1-.1.2-.2,0-.4s-.3,0-.4.1c-.5.7-1,1.3-1.4,2-.1.2-.3.4-.5.6-.2.2-.5.2-.7,0-.4-.2-.7-.4-1-.8-.3-.3-.3-.7-.1-1,.7-1.5,1.9-2.6,3.3-3.4,1.5-.8,3.1-1.4,4.7-2,1.7-.6,3.5-.9,5.3-.7,1.7,0,3.4-.1,5.1,0,.8,0,1.5-.2,2.2-.5.6-.2.9-.7.9-1.3,0-.8-.1-1.5-.5-2.2-.9-1.5-2.1-2.8-3.6-3.7-.7-.5-1.5-.8-2.3-1.3-1.1-.7-2.1-1.5-2.9-2.5-.3-.4-.3-1,0-1.3,0,0,0,0,0,0,.5-.5,1-.6,1.4-.2.8.6,1.7,1.1,2.7,1.3.3,0,.6.2.9.3.1,0,.2.1.4,0s0-.3,0-.4c-.3-.4-.6-.8-1.1-1-1.2-.7-2.1-1.7-2.7-3-.4-.8-.8-1.6-1.2-2.4-.2-.5-.2-1.1,0-1.7,0-.3.3-.4.6-.2.1,0,.2.2.4.2.2,0,.4.1.5,0s-.1-.3-.2-.4c-.4-.3-.5-.9-.2-1.3.1-.1.3-.3.4-.3.2,0,.4,0,.7,0,.8.2,1.6.5,2.3,1,1.1.6,2.2,1,3.2,1.6.6.3,1.3.4,1.9.2.5-.1,1.1-.3,1.6-.4,1.2-.2,2.4-.1,3.5.3.9.4,1.8.7,2.7.9.7.2,1.3.4,2,.6.9,0,1.8.1,2.8,0,.8-.1,1.6-.1,2.4,0,.8.3,1.5.6,2.3.9,1.1.5,2.2,1,3.2,1.7.6.3,1.1.7,1.6,1.1.2.2.5.5.3.9-.2.3-.5.5-.9.5-.5,0-1,0-1.6,0-1.2,0-2.5.3-3.7.5,0,0-.2,0-.3.1s.1.1.2.2c1.2.4,2.4,1.1,3.3,1.9.3.2.5.4.8.7.3.2.3.6.2.9,0,.1-.2.2-.4.3-.4.1-.8.2-1.3.3-1.4.3-2.8.3-4.2,0-.2,0-.4-.1-.6.1s0,.4,0,.6c.3.5.7.8,1.3,1,.3.1.6.2.9.4,1,.5,2.2.6,3.3.5.7,0,1.4-.3,2.1-.4,1.9-.2,3.7-.5,5.6-1,1.9-.4,3.7-.9,5.4-1.7,1.3-.6,2.8-1.1,4.1-1.8.7-.4,1.4-.6,2.1-.8.3,0,.6-.2.9-.3,1.4-.5,2.8-.8,4.2-1.2.9-.3,2-.4,2.9-.3.9,0,1.8,0,2.6-.3,1.4-.3,2.7-.8,4.1-1.2.8-.2,1.6-.4,2.4-.7,1.9-.5,3.7-1.2,5.5-2,.7-.3,1.5-.6,2.2-.9.4-.2.7-.4,1.1-.6,1-.5,2-.9,2.9-1.5,1-.7,1.9-1.4,2.7-2.2.4-.3.6-.3.9,0,.3.3.4.7.1,1-.2.4-.5.7-.8,1-1,1.4-2.2,2.7-3.7,3.7-1.1.8-2.1,1.6-3.2,2.3-.7.4-1.4.8-2.1,1.1-1.2.6-2.4.9-3.7,1.4-.5.2-1.1.5-1.6.8-.9.4-1.8.7-2.8,1-.2,0-.5,0-.5.3,0,.3.2.4.4.5,1,.6,1.9,1.5,2.4,2.6.5,1,1,2.1,1.3,3.2.4,1.5,1.3,2.8,2.6,3.6.6.3,1.2.6,1.8.7,1.9.4,3.9.5,5.9.3,1.2-.1,2.5-.4,3.6-.8.1,0,.3,0,.5,0,.2,0,.5.1.6.4.1.2,0,.5-.2.7-.2.2-.3.3-.5.5-.1,0-.3.2-.2.3.1.2.3.1.5,0,.4-.2.8-.4,1.3-.6.5-.2,1,0,1.3.3.2.2.2.5,0,.7,0,0-.1,0-.2.1-.2.1-.4.4-.7.4,0,0-.2,0-.2.2,0,0,0,0,0,0,0,.1.2.1.3.1.5,0,.9-.2,1.3-.5.8-.6.9-.5,1.5.3.2.3.2.5,0,.9-.7,1.7-2.1,2.1-3.7,2.2-1.8.1-3.7,0-5.5-.4-.3,0-.6,0-.8,0M83.4,26.5c0-1.3-.7-2.6-1.8-3.3-.7-.5-1.3-.8-2.1-1.2-.4-.2-.8-.5-1-.8-.3-.3-.2-.8.1-1.1,0,0,0,0,.2,0,.3-.2.8-.2,1.2,0,.3.2.7,0,.9-.2.2-.2.3-.4.1-.7-.6-1-1.9-1.3-2.9-.9-1.2.6-1.9,1.8-1.8,3.1,0,.6.2,1.2.6,1.6.6.6,1.3,1,2.1,1.2.7.2,1.3.6,1.8,1.1.3.3.3.7.1,1.1-.3.3-.7.4-1.1.2-.2,0-.3-.2-.5-.3-.2-.2-.6-.2-.8,0-.4.3-.7.6-.9,1-.2.2-.2.6,0,.8.5.7,1.3,1.2,2.1,1.4,1.7.4,3.9-1,3.6-2.9M70.1,20.8c-1,.2-2,.5-2.9,1.1-.3.1-.4.4-.2.7,0,0,0,0,0,.1.2.3.3.6.4.9,0,.3.2.6.3.9.5,1,.9,2.1,1.3,3.2.3.7.5,1.4.8,2.1.3.6,1,.9,1.6.6,0,0,.1,0,.2,0,.4-.2.9-.4,1.4-.6,1.1-.3,1.8-1.3,1.7-2.4,0-1-.5-2-1.2-2.7-.5-.5-.8-1.1-1-1.8-.2-1.2-1.2-2-2.4-2M57.2,24.5h-.2c-1.2.2-2.5.5-3.7.6-.5,0-.7.3-.6.8,0,.7.3,1,.9.9.6,0,1.2-.2,1.8-.4.3-.1.6,0,.5.4,0,.1,0,.2,0,.3-.6,1.9-1.1,3.8-1.8,5.7-.1.2-.1.5,0,.8.2.4.7.7,1.1.5,0,0,0,0,0,0,1.2-.5,2.6-.8,3.9-1,.2,0,.4,0,.6,0,.3,0,.5-.3.4-.6,0,0,0,0,0-.1,0-.3-.2-.5-.2-.8-.2-.7-.4-.8-1.2-.6-.5.2-1,.3-1.5.3-.4,0-.6-.2-.4-.6.3-.8.5-1.5.7-2.3.3-.9.5-1.8.8-2.7.2-.5,0-1-.6-1.1-.1,0-.2,0-.3,0M61.8,31.8c0,.2,0,.5,0,.7,0,.2.3.4.5.4.2,0,.5-.1.6-.4,0-.1.1-.3.1-.5,0-.3.1-.5.3-.7.7-.8,1.9-.9,2.8-.3.3.2.5.4.7.7.2.3.7.4,1,.2.3-.2.3-.6,0-1,0,0,0-.1-.1-.2-.4-.5-.8-1.1-1.2-1.7-.8-1.1-1.4-2.4-2.2-3.5-.4-.5-.8-1-1.2-1.4-.4-.3-.7-.2-1,.1-.2.3-.3.6-.3.9-.2,2.2,0,4.5-.1,6.8M101,33.6c-.4-.2-.8-.3-1.2-.2-1,.1-2,.2-2.9,0-.5-.2-1-.2-1.6-.2-.4,0-.8,0-1.1-.4-1.3-1.2-2.7-2.3-4-3.5-.8-.8-1.3-1.8-1.4-3,0-.3,0-.5-.2-.8-.2-.5-.3-.9-.3-1.4,0-.3-.1-.5-.2-.7-.2-.5-.5-.9-.8-1.4,0,0,0-.2-.2-.2-.1,0,0,.2,0,.3.3.4.3.9.4,1.3.4,1,.6,2,.7,3.1.1,1.4.8,2.6,1.8,3.5.8.8,1.7,1.5,2.5,2.2.8.8,1.7,1.6,2.7,2.3.4.2.8.4,1.3.4,1.1,0,2.1-.3,3-.8.4-.2.9-.3,1.3-.5M43.3,30.6c-.5,0-1,.2-1.3.7-.3.5-.5,1-.5,1.5,0,.7.2,1.4.7,1.9.2.2.5.4.8.4.7,0,1.4-.4,1.9-1,.6-.7.7-1.7.2-2.5-.3-.6-1-1-1.8-.9M37.6,26.2h0c0-.7,0-1.4.1-2.1,0-.4.3-.8.8-.8.1,0,.2,0,.3,0,.4.1.7.3.9.7.6.9.7,2.1.2,3.1-.3.6-.7,1.2-1.2,1.6-.1.1-.3.3-.2.4.1.2.3,0,.5,0,.1,0,.2,0,.3-.2,1.2-1,1.7-2.5,1.4-4-.2-.9-.8-1.6-1.7-2-.4-.3-.9-.2-1.3,0-.4.3-.6.8-.5,1.3,0,.2,0,.5,0,.8,0,.9,0,1.9-.2,2.8,0,.3,0,.5,0,.8,0,.4.4.7.7.8.1,0,.3,0,.3-.1s0-.2-.2-.2c-.2-.2-.4-.5-.4-.8v-2M45.8,27.2c.3,0,.7,0,1-.2.6-.5,1.1-1.1,1.6-1.6.2-.2.1-.5-.2-.5-.5,0-.7-.4-1-.7-.2-.2-.4-.4-.7-.4-.6,0-.7-.2-.6-.9,0-.3,0-.7-.3-.7s-.3.4-.3.7c0,1.2-.1,2.4-.4,3.6,0,.2-.3.5-.1.7.2.2.5,0,.8,0h0M47.8,33.6q0-.9.7-1.5h0c.1-.1.3-.2.2-.4,0-.2-.3-.2-.4-.2-.1,0-.3.1-.4.2-.2,0-.5,0-.6-.2-.1-.2-.1-.5,0-.7,0,0,.2-.2.3-.2.3-.2.5-.3.8-.4.2,0,.3-.3.2-.4,0-.2-.2-.3-.4-.2,0,0,0,0,0,0-.6.2-1.3.4-1.9.7-.3.1-.4.4-.3.7,0,0,0,0,0,0,.3.9.4,1.9.8,2.8,0,.3.2.6.5.5.3,0,.4-.4.4-.6M42.7,27.9c-.3-.5-.8-.8-.7-1.5.1-.4.4-.9.7-1.2.1-.2.4-.3.7-.2.2.1.4.4.3.7,0,.6-.2,1.2-.6,1.7,0,.1-.2.2-.1.3,0,.1.2,0,.3,0,.3,0,.5-.1.8-.2.2,0,.2-.1.1-.3-.2-.3-.2-.7-.1-1.1,0-.3.1-.6.2-1,0-.2,0-.5-.2-.6,0,0-.2,0-.3,0-.2,0-.5,0-.7,0-.1,0-.3,0-.4,0-.8.4-1.3,1.4-1,2.3.2.4.4.9,1.1.9M49.7,13c.3,0,.6,0,.8,0,.2,0,.3-.2.3-.4,0-.2-.1-.3-.3-.3-1.2-.4-2.5-.7-3.8-.7-.1,0-.3,0-.3.1,0,.2.1.2.3.3.4,0,.8.2,1.1.3.6.2.7.5.3.9,0,0-.1.2,0,.3,0,0,.2.1.3,0,.2,0,.3-.1.4-.2.3-.2.7-.3,1.1-.3M35.8,14.2c.7,0,1.2-.5,1-1.1-.4-.7-1.2-1-2-.8-.3.2-.5.5-.4.9.3.5.8.9,1.4,1M39.5,13.4c.1-1-.6-1.5-1.4-2-.3-.2-.7-.2-.8,0-.1.3.1.5.3.6.3.2.6.5.8.8.3.4.4.8.5,1.2,0,.2,0,.4.3.5s.3-.2.3-.5c0-.2,0-.4,0-.6M74.7,21.5c0-.6-.2-1.3-.5-1.9-.2-.3-.4-.3-.7-.1-.4.2-.4.5-.2.7.4.4.7.9.9,1.4,0,.2.2.3.4.3.2,0,.2-.2.2-.4M48.2,16.8c-.3,0-.6.2-.7.4s.4.6.7.6c.4,0,.8-.3.8-.6s-.3-.5-.8-.5M17.8,33.7c-.3.1-.5.3-.5.6,0,.1,0,.3,0,.3.2,0,.2,0,.3-.2,0-.2.1-.5.2-.7M87.1,21.4c0,0,0-.2,0-.3-.1-.2-.3-.4-.5-.3-.2.1,0,.3,0,.4,0,.1.1.3.2.3.1,0,.2,0,.2-.2"/>
      <path id="Path_5" data-name="Path 5" class="cls-2" d="M16.4,11.4c.3,0,.7,0,1-.1.5,0,1,0,1.5.1.3,0,.4.2.4.5,0,.3-.2.3-.5.3-.5.1-1,.2-1.5.2,0,0-.2,0-.2,0s0,.1.1.2c.5.4,1.2.5,1.8.3.9-.2,1.8-.4,2.7-.4.1,0,.2,0,.3,0,.2,0,.4,0,.4.3,0,.3-.2.3-.4.3-1,.1-1.9.5-2.8,1-1.5.9-3.3,1.1-4.9.7-1-.2-2.1-.3-3.1-.3-.7,0-1.4-.2-2.1-.5-.7-.3-1.3-.7-1.8-1.3-.7-.7-1.6-1.4-2.5-1.8-.5-.3-.9-.7-1.3-1.2-.2-.1-.2-.4,0-.5.1-.2.3,0,.5,0,1,.6,2.2,1,3.4,1.1.5,0,.9.3,1.2.6.3.2.6.4,1,.6.2.1.4.2.5,0s0-.4-.1-.5c-.3-.2-.6-.4-.9-.6-1-.8-2.3-.7-3.4-1-.4,0-.7-.2-1-.4-1.1-.6-2-1.6-2.5-2.8,0-.2-.1-.5-.2-.7,0-.2,0-.4.2-.6.2,0,.4,0,.6.2.4.4.8.8,1.1,1.3.2.3.5.5.9.6.1,0,.3,0,.4,0,0-.1,0-.3,0-.4-.1-.2-.3-.4-.5-.5-.7-.9-1.1-1.9-1.8-2.8-.6-.9-1.3-1.6-2.1-2.3-.2-.2-.4-.3-.7-.3C0,.7,0,.5,0,.4,0,.2.1,0,.3,0c.3-.1.5,0,.7,0,1.2,0,2.4.5,3.3,1.2.5.3,1,.7,1.4,1.1.5.4,1.1.8,1.8.9.6.2,1.3.4,1.9.5.2,0,.3,0,.5,0,.4-.1.5-.3.2-.7-.3-.5-.8-.9-1.4-1.1-.7-.3-1.5-.4-2.2-.5-.2,0-.3-.2-.3-.4,0-.2,0-.4.3-.5.4-.2.8-.2,1.2-.2,1.1,0,2.2.2,3.2.6.7.3,1.3.7,1.8,1.3.4.4.7.7,1.1,1.1.4.3.9.5,1.4.5.1,0,.3,0,.3-.2s-.1-.2-.2-.3c-.8-.4-1.6-.9-2.2-1.6-.2-.3-.5-.5-.7-.8-.2-.2-.2-.5,0-.7,0,0,0,0,0,0,.2-.2.4-.2.6,0,0,0,0,0,0,0,.8.7,1.7,1.1,2.7,1.2,2.8.7,5.1,2.5,6.5,5,.2.4.3.8.3,1.3,0,.3,0,.6,0,.8,0,.2,0,.4-.2.5-.2,0-.4,0-.6-.2-.2-.3-.3-.5-.5-.8-.5-.8-1.2-1.5-2-2-.1,0-.3-.2-.4,0s0,.2.1.3c.3.4.5.7.8,1.1,0,.1.2.2.2.4,0,.1,0,.3-.1.4-.1,0-.3,0-.4,0-.9-.9-2.2-1-3.4-1.4-.2,0-.5-.1-.7-.3,0,0-.2-.1-.3,0s0,.2.1.3c.6.6,1.4,1,2.1,1.2.9.4,1.8,1,2.5,1.8.2.1.2.4,0,.5-.1.2-.4.2-.5,0-.5-.4-1.1-.5-1.6-.8-.2-.1-.4-.2-.6-.2-1-.1-1.9-.5-2.8-1-.9-.6-1.7-1.2-2.4-1.8,0,0,0,0,0,0-.2,0-.4-.2-.5,0-.2.2.1.3.3.4.6.5,1.2,1,1.7,1.6.8.9,1.9,1.5,3.2,1.5.3,0,.6,0,.5.4s-.3.4-.6.4c-.6,0-1.2-.2-1.8-.2-.1,0-.2,0-.3,0s0,.2.2.2c.4.4,1,.5,1.5.5"/>
      <path id="Path_6" data-name="Path 6" class="cls-2" d="M71.4,25.6c.8,0,1.4.6,1.5,1.3-.1.5-.4.9-.9,1.1-.4.2-.9,0-1.2-.3-.3-.4-.5-.9-.6-1.4,0-.3.1-.6.4-.7.2-.1.5-.2.8-.2"/>
      <path id="Path_7" data-name="Path 7" class="cls-2" d="M70.6,23.1c0,.5-.5.9-.9.9-.3,0-.8-.5-.8-.9,0-.4.4-.8.9-.8.4,0,.8.3.8.8"/>
      <path id="Path_8" data-name="Path 8" class="cls-2" d="M64.9,28.3c0,.4-.6.9-1.1,1-.5,0-.7-.2-.8-.8,0-.6,0-1.1-.2-1.7,0-.2,0-.5.3-.6.2-.1.4,0,.6,0,.5.6.9,1.3,1.2,2"/>
      <path id="Path_9" data-name="Path 9" class="cls-2" d="M44.6,32.6c0,.7-.6,1.3-1.3,1.4-.7,0-1.1-.7-1.1-1.3,0-.7.5-1.3,1.2-1.4.7.1,1.2.7,1.2,1.3"/>
      <path id="Path_10" data-name="Path 10" class="cls-2" d="M45.7,26.2c0-.3.3-.6.6-.7.2,0,.6.4.6.7,0,.4-.3.7-.7.7,0,0,0,0,0,0-.3,0-.6-.4-.6-.7"/>
      <path id="Path_11" data-name="Path 11" class="cls-2" d="M47.4,25.2c0,.2-.2.3-.5.3-.4,0-.6-.2-.6-.7,0-.2.1-.4.4-.4.4,0,.6.3.6.8"/>
    </g>
  </g>
</svg>