<?xml version="1.0" encoding="UTF-8"?>
<svg id="Layer_1" data-name="Layer 1" xmlns="http://www.w3.org/2000/svg" xmlns:xlink="http://www.w3.org/1999/xlink" version="1.1" viewBox="0 0 408.9 85">
  <defs>
    <style>
      .cls-1 {
        stroke-miterlimit: 4;
        stroke-width: 1.5px;
      }

      .cls-1, .cls-2, .cls-3 {
        fill: none;
      }

      .cls-1, .cls-3 {
        stroke: #053c96;
      }

      .cls-4 {
        fill: #b91923;
      }

      .cls-4, .cls-5, .cls-2, .cls-6, .cls-7 {
        stroke-width: 0px;
      }

      .cls-8 {
        clip-path: url(#clippath);
      }

      .cls-5 {
        fill: #fdf9e8;
      }

      .cls-6 {
        fill: #053c96;
      }

      .cls-9 {
        clip-path: url(#clippath-1);
      }

      .cls-7 {
        fill: #002f85;
      }

      .cls-3 {
        stroke-width: 1.5px;
      }

      .cls-10 {
        isolation: isolate;
      }
    </style>
    <clipPath id="clippath">
      <rect class="cls-2" x="270.5" y="41.4" width="99.2" height="38.8"/>
    </clipPath>
    <clipPath id="clippath-1">
      <rect class="cls-2" x="275.9" y="397.7" width="73.6" height="46"/>
    </clipPath>
  </defs>
  <g id="Rectangle_908" data-name="Rectangle 908">
    <rect class="cls-5" x="8.3" y=".9" width="392.4" height="479.1" transform="translate(-8.3 7.3) rotate(-2)"/>
    <rect class="cls-1" x="9" y="1.6" width="390.9" height="477.6" transform="translate(-8.3 7.3) rotate(-2)"/>
  </g>
  <g id="Rectangle_907" data-name="Rectangle 907">
    <rect class="cls-5" x="9" y=".9" width="392.5" height="479.3"/>
    <rect class="cls-3" x="9.8" y="1.6" width="391" height="477.8"/>
  </g>
  <g id="Group_649" data-name="Group 649">
    <g class="cls-8">
      <g id="Group_23" data-name="Group 23">
        <path id="Path_4" data-name="Path 4" class="cls-7" d="M360.7,71.4c.2.1.4.3.6.4.3.3.4.8,0,1.1h-.1c-.1.1-.4.3-.2.5s.3,0,.5-.2c.2-.3.5-.6.8-.9.4-.3,1-.2,1.4,0,.3.2.4.6.2,1,0,0,0,.1-.2.2,0,0-.2.2-.3.3s-.2.2,0,.3.3,0,.4,0c.3-.3.6-.6.8-.9.3-.4.5-.4.8-.3.4.1.7.5.6,1s-.4,1-.7,1.4c-1,1-2.2,1.6-3.6,1.8-.6.1-1.2.1-1.8,0-.9,0-1.8,0-2.7-.1-2.1-.3-4.1-.8-6-1.5-.6-.2-1.2-.5-1.7-.9-.9-.6-1.9-1-2.9-1.4-.5-.3-1.1-.5-1.6-.8-1.1-.5-2.3-.8-3.5-1-1.4-.3-2.8-.2-4.3,0-2.4.4-4.8,1-7.2,1.7-.9.3-1.8.4-2.7.7-.6.2-1.3.1-1.9.2-2.3.4-4.7.5-7.1.5s-1.8,0-2.7-.1c-1.6,0-3.2,0-4.8.3-1.1.3-2.2.7-3.1,1.3-.9.5-1.7,1.1-2.5,1.5-1.2.6-2.5.8-3.8.6-.9-.1-1.7-.4-2.6-.6-.5-.3-1.1-.5-1.7-.6-1.3-.3-2.7-.3-4,0-.3.2-.6.4-.9.6-.4.3-.8.5-1.2.7-.3.1-.5.3-.7.5-.5.6-1.2,1.1-2,1.3-.4.2-.8,0-1-.2-.3-.3-.4-.8-.2-1.1.3-.6.7-1.1,1.2-1.4,0,0,.2-.1.1-.3,0-.1-.2,0-.3,0-.2.3-.5.5-.8.6-.3.2-.6.5-.7.9-.2.3-.3.5-.7.4-.3-.2-.4-.5-.4-.8.1-.6.4-1.1.8-1.5.2-.2.3-.4.6-.5,0,0,.1,0,0-.2h-.2c-.4.3-.8.6-1.1,1-.2.3-.4.6-.4,1s-.3.4-.5.4-.3-.2-.4-.3c-.2-.5-.1-1.1.2-1.6.4-.8,1.1-1.5,2-1.9.6-.2,1.1-.6,1.6-.9,1.7-.9,3.6-1.3,5.5-1.1.8.1,1.6.1,2.4,0h1.5c.6,0,1.1,0,1.6-.2.4,0,.9-.1,1.3-.2.7,0,1.2-.5,1.2-1.2v-.5c0-.3-.2-.5-.3-.8,0-.1-.1-.2-.2-.2s0,.1,0,.2c0,.5-.4.8-.8.7-1.1-.3-2.2-.1-3.2-.5-.7-.2-1.4-.3-2.2-.3-1.4-.1-2.7-.1-4.1,0-.6.1-1.1.5-1.4,1-.4.6-.9,1.2-1.4,1.8-.3.3-.7.6-1.1.8s-.9,0-1.2-.4v-.5s-.1,0-.2.1c-.2.2-.4.4-.6.5-.3.2-.7.2-1,0s-.3-.6-.2-1c.3-.7.7-1.2,1.2-1.7,0,0,.2-.2,0-.3s-.2,0-.3,0c-.4.6-.9,1.2-1.3,1.8-.1.2-.3.4-.5.5-.2.2-.4.2-.6,0-.3-.2-.6-.4-.9-.7-.2-.2-.3-.6-.1-.9.6-1.3,1.7-2.4,2.9-3,1.4-.7,2.7-1.3,4.1-1.8,1.5-.6,3.1-.8,4.8-.6,1.5,0,3-.1,4.6,0,.7,0,1.4-.2,2-.4.5-.2.8-.6.8-1.2s-.1-1.4-.5-2c-.8-1.4-1.9-2.5-3.2-3.3-.7-.4-1.4-.7-2-1.2-1-.6-1.9-1.4-2.6-2.2-.3-.3-.3-.9,0-1.2h0c.4-.4.9-.5,1.2-.1.7.6,1.5.9,2.4,1.2.3,0,.5.2.8.3.1,0,.2.1.3,0s0-.2,0-.4c-.2-.4-.6-.7-.9-.9-1-.6-1.9-1.6-2.4-2.6-.4-.7-.7-1.4-1-2.1-.2-.5-.2-1,0-1.5,0-.3.3-.3.6-.2.1,0,.2.1.3.2.2,0,.3.1.5,0s0-.2-.2-.3c-.4-.3-.4-.8-.1-1.2.1-.1.2-.2.4-.3h.6c.7.2,1.4.5,2.1.9.9.5,1.9.9,2.9,1.4.5.3,1.1.3,1.7.2.5-.1,1-.2,1.5-.3,1-.2,2.1-.1,3.1.3.8.3,1.6.6,2.4.8.6.2,1.2.4,1.8.5h2.5c.7-.1,1.5-.1,2.2,0,.7.2,1.4.6,2.1.8,1,.4,2,.9,2.9,1.5.5.3,1,.6,1.4,1,.2.2.4.5.3.8-.2.3-.5.5-.8.5h-1.4c-1.1,0-2.2.3-3.3.5,0,0-.2,0-.2.1s.1.1.2.2c1.1.4,2.1.9,3,1.7.2.2.5.4.7.6.2.2.3.5.1.8,0,.1-.2.2-.4.2-.4.1-.8.2-1.1.2-1.2.3-2.5.3-3.8,0h-.5c-.1,0,0,.4,0,.6.3.4.7.7,1.1.9.3.1.6.2.8.3.9.4,1.9.6,2.9.4.6,0,1.3-.3,1.9-.3,1.7-.2,3.3-.5,4.9-.9,1.7-.3,3.3-.8,4.8-1.5,1.2-.6,2.5-1,3.6-1.6.6-.3,1.2-.6,1.9-.7.3,0,.6-.2.8-.3,1.2-.4,2.5-.7,3.8-1.1.8-.3,1.7-.4,2.6-.2.8,0,1.6,0,2.3-.2,1.2-.3,2.4-.7,3.6-1.1.7-.2,1.4-.4,2.1-.6,1.7-.5,3.3-1.1,4.9-1.8.6-.3,1.3-.5,2-.8.3-.2.7-.4,1-.5.9-.5,1.8-.8,2.6-1.4.9-.6,1.7-1.3,2.4-2,.3-.3.6-.3.8,0,.3.2.3.6.1.9-.2.3-.5.6-.7.9-.9,1.3-2,2.4-3.3,3.3-.9.7-1.9,1.4-2.9,2-.6.4-1.2.7-1.9,1-1,.5-2.2.8-3.3,1.2-.5.2-1,.4-1.4.7-.8.4-1.6.7-2.5.9-.2,0-.4,0-.4.3s.2.3.4.4c.9.6,1.6,1.4,2.2,2.3.5.9.9,1.9,1.1,2.9.4,1.3,1.2,2.5,2.4,3.2.5.3,1,.5,1.6.6,1.7.4,3.5.5,5.3.3,1.1,0,2.2-.3,3.2-.7h.4c.2,0,.4.1.5.3,0,.2,0,.4-.1.6-.1.1-.3.3-.4.4,0,0-.3.2-.2.3,0,.2.3,0,.4,0,.4-.2.7-.4,1.1-.5.4-.2.9,0,1.2.3.2.2.2.4,0,.6h-.1c-.2.1-.4.3-.6.4,0,0-.1,0-.1.2h0c0,.1.1.1.2.1.4,0,.8-.2,1.1-.5.7-.5.8-.5,1.4.2.2.3.2.4,0,.8-.6,1.5-1.9,1.9-3.3,2-1.6,0-3.3,0-4.9-.3h-.7M344.8,65c0-1.2-.6-2.3-1.6-3-.6-.4-1.2-.8-1.8-1-.4-.2-.7-.4-.9-.7-.2-.3-.2-.7.1-.9h.1c.3-.2.7-.2,1,0s.6,0,.8-.2c.2-.2.3-.4.1-.6-.6-.9-1.7-1.2-2.6-.8-1.1.5-1.7,1.6-1.6,2.8,0,.5.2,1,.6,1.4s1.1.9,1.8,1c.6.2,1.2.5,1.6,1,.3.3.3.6,0,.9-.2.3-.6.3-1,.2-.2,0-.3-.2-.4-.3-.2-.2-.5-.2-.7,0-.3.3-.6.6-.8.9-.2.2-.1.5,0,.7.5.6,1.1,1.1,1.9,1.2,1.5.3,3.5-.9,3.2-2.6M333,59.9c-.9.1-1.8.5-2.6,1-.2.1-.3.4-.2.6h0c.2.4.3.6.3.9s.2.6.3.8c.5.9.8,1.8,1.2,2.8.3.6.5,1.2.7,1.9.2.6.9.8,1.4.6h.1c.4-.2.8-.4,1.2-.5.9-.3,1.6-1.2,1.5-2.2,0-.9-.4-1.8-1-2.4-.4-.5-.7-1-.9-1.6-.2-1-1.1-1.8-2.1-1.8M321.4,63.3h-.2c-1.1.2-2.2.4-3.3.5-.5,0-.6.3-.6.7,0,.6.3.9.8.8.5,0,1.1-.2,1.6-.3.3-.1.5,0,.5.4v.3c-.6,1.7-1,3.4-1.6,5v.7c.2.4.6.6,1,.4h0c1.1-.4,2.3-.7,3.5-.9h.6c.3,0,.4-.3.4-.5h0c0-.3-.1-.6-.2-.8-.2-.6-.4-.7-1-.5-.4.2-.9.3-1.3.3s-.5-.2-.4-.5c.2-.7.4-1.4.6-2.1.2-.8.5-1.6.7-2.4s0-.9-.5-1h-.3M325.6,69.8v.6c0,.2.2.3.4.4.2,0,.4-.1.5-.3,0-.1.1-.3,0-.4,0-.3.1-.5.3-.7.6-.7,1.7-.8,2.5-.3.2.2.5.4.6.6.2.3.6.4.9.2s.3-.5,0-.9c0,0,0-.1-.1-.2-.4-.5-.7-1-1-1.5-.7-1-1.2-2.1-2-3.1-.3-.5-.7-.9-1.1-1.3-.3-.3-.6-.2-.9.1-.2.2-.3.5-.3.8-.2,2,0,4-.1,6M360.5,71.4c-.3-.2-.7-.3-1-.2-.9.1-1.7.1-2.6,0-.5-.1-.9-.2-1.4-.2s-.7,0-1-.3c-1.2-1-2.4-2.1-3.5-3.2-.7-.7-1.1-1.6-1.3-2.6,0-.2,0-.5-.2-.7-.2-.4-.2-.8-.2-1.3s-.1-.5-.2-.7c-.2-.4-.5-.8-.7-1.2,0,0,0-.2-.1-.2s0,.2,0,.2c.3.3.2.8.4,1.1.4.9.6,1.8.7,2.8.1,1.2.7,2.3,1.6,3.1.7.7,1.5,1.3,2.3,2,.7.8,1.5,1.4,2.4,2,.3.2.8.3,1.2.3.9,0,1.9-.2,2.7-.7.4-.2.8-.2,1.2-.4M309,68.7c-.5,0-.9.2-1.2.6-.3.4-.4.9-.4,1.4s.2,1.2.6,1.7c.2.2.4.3.7.3.7,0,1.3-.3,1.7-.9.5-.6.6-1.6.1-2.3-.3-.6-.9-.9-1.6-.8M304,64.8h0v-1.9c0-.4.3-.7.7-.7h.3c.3,0,.6.3.8.6.5.8.6,1.9.2,2.8-.2.6-.6,1.1-1.1,1.5-.1,0-.3.3-.2.4,0,.2.3,0,.4,0s.2,0,.3-.2c1.1-.9,1.6-2.2,1.3-3.6-.2-.8-.7-1.5-1.5-1.8-.4-.2-.8-.2-1.1,0-.3.3-.5.7-.4,1.2v.7c0,.8,0,1.6-.1,2.5v.7c0,.3.3.6.7.7.1,0,.3,0,.3-.1s0-.2-.1-.2c-.2-.1-.3-.4-.3-.7v-1.8M311.3,65.7c.3,0,.6,0,.9-.2.5-.5,1-.9,1.4-1.4.2-.2.1-.4-.1-.4-.4,0-.6-.3-.9-.6-.1-.2-.3-.3-.6-.4-.6,0-.6-.2-.6-.8s0-.6-.2-.6-.3.4-.3.6c0,1.1-.1,2.1-.3,3.2,0,.2-.3.4-.1.6.2.2.5,0,.7,0h0M313.1,71.3c0-.5.2-1,.6-1.3h0c.1-.1.2-.2.1-.4,0-.1-.2-.2-.4-.1-.1,0-.2,0-.4.1-.2,0-.4,0-.5-.2s0-.4,0-.6c0,0,.2-.2.3-.2.2-.2.5-.3.8-.4.2,0,.2-.2.2-.4s-.2-.2-.3-.2h0c-.6.2-1.1.4-1.7.6-.2,0-.3.4-.3.6h0c.3.8.4,1.7.7,2.5,0,.2.1.5.5.5s.3-.3.4-.5M308.5,66.2c-.3-.4-.7-.7-.6-1.3.1-.4.3-.8.6-1.1.1-.2.4-.3.6-.2s.3.3.3.6c0,.6-.2,1.1-.5,1.5,0,0-.2.2-.1.3h.3c.2,0,.5,0,.7-.1.2,0,.2-.1.1-.3-.2-.3-.2-.7-.1-1,0-.3.1-.6.2-.9,0-.2,0-.4-.2-.5h-1.4c-.7.4-1.1,1.3-.9,2.1.2.4.4.8.9.8M314.7,53h.7c.1,0,.2-.2.2-.3q0-.2-.2-.3c-1.1-.4-2.3-.6-3.4-.7-.1,0-.3,0-.3.1,0,.2.1.2.2.2.3,0,.7.2,1,.3.5.2.6.4.2.8,0,0-.1.1,0,.2,0,0,.2.1.3,0,.1,0,.3-.1.4-.2.3-.2.6-.3.9-.3M302.4,54c.7,0,1.1-.5.9-1-.4-.6-1.1-.9-1.8-.7-.3.1-.4.5-.3.8.2.5.7.8,1.2.9M305.7,53.3c.1-.9-.6-1.3-1.2-1.8-.3-.2-.6-.1-.7,0-.1.3,0,.4.3.5.3.2.5.4.7.7s.4.7.4,1.1,0,.4.3.4.3-.2.3-.4v-.6M337.1,60.5c0-.6-.2-1.1-.5-1.7-.1-.3-.4-.3-.6-.1-.3.2-.4.4-.2.7.3.4.6.8.8,1.2,0,.1.2.3.3.2s.2-.2.2-.4M313.5,56.4c-.3,0-.6.2-.6.4s.3.5.6.6c.3,0,.7-.2.7-.5s-.3-.4-.8-.5M286.3,71.4c-.2,0-.4.2-.5.5v.3c.1,0,.2,0,.2-.2s.1-.4.2-.6M348.1,60.5v-.3c0-.2-.3-.3-.4-.3-.2.1,0,.2,0,.4s0,.2.2.3c.1,0,.2,0,.2-.1"/>
        <path id="Path_5" data-name="Path 5" class="cls-4" d="M285.2,51.5c.3,0,.6,0,.9-.1h1.4c.2,0,.4.2.4.4s-.2.3-.4.3c-.4.1-.9.2-1.4.2h-.2s0,.1.1.2c.4.4,1,.5,1.6.2.8-.2,1.6-.3,2.4-.4h.3c.2,0,.4,0,.4.3s-.2.3-.4.3c-.9.1-1.7.4-2.5.9-1.3.8-2.9,1-4.4.7-.9-.2-1.8-.3-2.8-.2-.6,0-1.3-.2-1.8-.5-.6-.2-1.2-.6-1.6-1.1-.7-.7-1.4-1.2-2.2-1.6-.4-.3-.8-.6-1.1-1-.1-.1-.1-.3,0-.5s.3,0,.4,0c.9.5,1.9.9,3,1,.4,0,.8.3,1.1.5.3.2.6.4.9.6.2.1.3.1.5,0s0-.3-.1-.4c-.2-.2-.5-.3-.8-.5-.9-.7-2-.6-3-.9-.3,0-.6-.2-.9-.4-1-.6-1.7-1.4-2.2-2.5,0-.2-.1-.4-.1-.6s0-.4.2-.5c.2,0,.4,0,.5.1.4.3.7.7,1,1.1.2.3.5.5.8.6h.4v-.4c-.1-.2-.3-.3-.4-.5-.6-.8-1-1.7-1.6-2.5-.5-.8-1.2-1.4-1.9-2l-.6-.3c-.1,0-.2-.1-.2-.3s.1-.2.2-.3c.2-.1.4,0,.7,0,1.1,0,2.1.4,3,1,.4.3.8.6,1.2.9.5.4,1,.7,1.6.8.6.2,1.1.3,1.7.5h.5c.3-.1.4-.3.2-.6-.3-.5-.7-.8-1.3-1-.6-.2-1.3-.4-2-.5-.2,0-.3-.2-.3-.3,0-.2,0-.4.2-.4.4-.1.7-.2,1.1-.2,1,0,2,.1,2.8.6.6.3,1.2.7,1.6,1.1.3.3.6.6,1,.9.4.3.8.4,1.3.4s.3,0,.3-.2-.1-.2-.2-.2c-.7-.3-1.4-.8-1.9-1.4-.2-.2-.4-.5-.6-.7s-.1-.4,0-.6h0c.1-.2.4-.2.6,0h0c.7.6,1.5,1,2.4,1.1,2.5.6,4.6,2.3,5.8,4.5.2.3.3.7.3,1.1v.7c0,.2,0,.4-.1.4-.2,0-.4,0-.5-.2-.2-.2-.3-.5-.4-.7-.4-.7-1-1.3-1.8-1.7-.1,0-.2-.2-.3,0s0,.2.1.3c.2.3.5.6.7.9,0,.1.1.2.2.3v.4h-.3c-.8-.8-2-.9-3-1.2-.2,0-.4-.1-.6-.2,0,0-.2-.1-.3,0s0,.2.1.2c.6.5,1.2.9,1.9,1.1.8.4,1.6.9,2.2,1.6.1.1.2.3,0,.5-.1.2-.3.1-.5,0-.4-.3-1-.5-1.4-.7s-.3-.2-.5-.2c-.9-.1-1.7-.4-2.5-.9s-1.5-1-2.2-1.6h0c-.2,0-.4-.2-.5,0s.1.3.2.4c.5.4,1.1.9,1.5,1.4.7.8,1.7,1.3,2.8,1.4.2,0,.5,0,.5.4s-.3.4-.5.3c-.5,0-1.1-.1-1.6-.2h-.3c0,0,0,.1.1.2.4.3.9.5,1.4.4"/>
        <path id="Path_6" data-name="Path 6" class="cls-7" d="M334.1,64.2c.7,0,1.3.5,1.3,1.2-.1.4-.4.8-.8,1-.4.1-.8,0-1.1-.2-.3-.3-.5-.8-.5-1.2s.1-.5.3-.6c.2-.1.4-.2.7-.2"/>
        <path id="Path_7" data-name="Path 7" class="cls-7" d="M333.4,62c0,.4-.4.8-.8.8s-.7-.5-.7-.8.4-.7.8-.7.7.3.7.7"/>
        <path id="Path_8" data-name="Path 8" class="cls-7" d="M328.3,66.6c0,.4-.5.8-1,.9-.4,0-.7-.2-.7-.7s0-1-.1-1.5c0-.2,0-.4.2-.5h.5c.4.5.8,1.2,1,1.8"/>
        <path id="Path_9" data-name="Path 9" class="cls-7" d="M310.2,70.5c0,.6-.5,1.2-1.1,1.2s-1-.6-1-1.2.5-1.1,1-1.2c.6,0,1,.6,1.1,1.2"/>
        <path id="Path_10" data-name="Path 10" class="cls-7" d="M311.2,64.8c0-.3.3-.5.6-.6.2,0,.6.4.6.6,0,.3-.2.6-.6.6h0c-.3,0-.5-.3-.5-.6"/>
        <path id="Path_11" data-name="Path 11" class="cls-7" d="M312.7,63.9c0,.2-.2.3-.4.3-.3,0-.5-.2-.5-.6s.1-.4.3-.4c.4,0,.6.2.6.7"/>
      </g>
    </g>
  </g>
  <g id="Welcome_" data-name="Welcome " class="cls-10">
    <g class="cls-10">
      <path class="cls-6" d="M87.3,67.9c-.2,1.3-.4,2.2-.5,2.8s-.2,1.1-.2,1.4,0,.5,0,.7v1.1c0,.2,0,.3.2.5,0,.2.2.3.4.4.2.1.4.2.7.3.5,0,.9-.1,1.3-.4.3-.3.7-.6.9-1,.3-.4.5-.8.6-1.1s.2-.7.3-.8c0-.2,0-.4.2-.7,0-.3.2-.7.3-1.3,0-.5.3-1.3.5-2.1.2-.9.4-1.9.7-3.2.3-1.3.6-2.8,1-4.7.4-1.8.8-3.9,1.3-6.4,0-.5.4-.9.8-1.1.4-.3.9-.4,1.5-.4h1.5c.4,0,.6,0,.8.2.2.1.3.3.3.5v1s0,.2,0,.5c0,.3-.2.7-.3,1.2,0,.5-.3,1.3-.5,2.3s-.5,2.3-.9,3.9c-.4,1.6-.8,3.6-1.3,6-.4,1.6-.8,3-1.2,4.2-.5,1.2-1.1,2.3-1.8,3.3-.5.7-1.2,1.4-2,1.9s-1.6.9-2.4,1.2c-1.3.3-2.5.3-3.7,0-1.2-.4-2.1-1-2.7-2h0c-.6.7-1.3,1.3-2.1,1.7-.9.4-1.7.6-2.6.7-.9,0-1.8,0-2.6-.3-.8-.3-1.4-.7-1.9-1.3-.3-.4-.6-.8-.7-1.3-.2-.5-.2-1-.3-1.5v-1.6c0-.5,0-1,.2-1.5,0-.7.2-1.3.4-2,0-.7.3-1.5.4-2.3.2-1.2.4-2.4.7-3.7.3-1.3.6-2.5.9-3.7s.7-2.3,1-3.3c.4-1,.8-1.8,1.2-2.4-.9-.2-1.7-.2-2.5.2s-1.5,1-2,1.7-.9,1.5-1,2.4c-.2.9,0,1.7.3,2.4.6.3.7.7.5,1.2s-.6.9-1.1,1.3c-.5.4-1.2.7-1.8.9s-1.2.2-1.5,0c-.4-.4-.8-.9-1-1.4-.2-.6-.3-1.1-.3-1.7s0-1.7.3-2.5c.2-.8.6-1.5,1-2.2s1-1.3,1.6-1.9c.6-.6,1.3-1.1,2-1.5.9-.5,1.7-.9,2.5-1s1.5-.2,2.2-.2,1.5,0,2.3.2c.8,0,1.6.1,2.6.1h1c.3,0,.5.3.5.6,0,.5,0,.9-.2,1.2,0,.3-.3.5-.6.7-.5.6-1,1.4-1.4,2.5s-.7,2.3-1.1,3.5c-.3,1.2-.6,2.4-.8,3.6-.2,1.2-.4,2.1-.5,2.9-.3,1.3-.5,2.3-.6,3.2,0,.8-.2,1.6-.3,2.3v1.9c0,.3.2.6.4.8s.5.4.9.4.7,0,1-.2.6-.4.8-.6.4-.5.6-.8.3-.6.4-.8c0-.4.3-1,.5-1.7s.5-1.7.8-3.1c.3-1.4.7-3.1,1.1-5.2.4-2.1,1-4.8,1.6-8,0-.5.3-.8.6-.9.3-.1.6-.2,1.1-.2h1.9c.6,0,.9.2,1,.5v1.2l-2.7,12.8-.3-.3Z"/>
      <path class="cls-6" d="M101.8,68.2c0,.5-.2,1-.3,1.6v1.3c0,1.1.6,1.7,1.3,2.1.8.3,1.7.4,2.7,0,1-.3,2.1-.9,3.2-1.9,1.1-.9,2.1-2.2,2.9-3.7.2-.3.4-.4.7-.2.2.1.5.3.7.6s.3.6.4,1c0,.4,0,.7,0,.9-.3.7-.7,1.3-1.3,2-.6.7-1.2,1.3-2,1.8-.7.5-1.6,1-2.4,1.5s-1.7.8-2.6,1-1.7.3-2.5.3-1.6-.2-2.3-.5c-.9-.5-1.5-1.3-1.8-2.3s-.5-2.1-.4-3.2c0-1.2.2-2.3.6-3.5.3-1.2.8-2.3,1.2-3.2.7-1.2,1.4-2.2,2.3-3s1.6-1.3,2.3-1.5c.8-.3,1.6-.3,2.4-.2.8.2,1.4.5,1.9,1s.8,1.1.9,1.9c0,.8,0,1.7-.5,2.8-.4.7-.8,1.3-1.3,1.9-.5.6-1,1-1.7,1.4s-1.3.5-2,.6c-.7,0-1.5-.1-2.4-.5h.1ZM102.3,66.1c.5.2,1,.3,1.5.3s.9-.2,1.2-.4c.4-.2.7-.5.9-.9.2-.4.4-.7.5-1.1,0-.4,0-.7,0-1s-.2-.6-.4-.7c-.3-.2-.6-.3-1,0-.4.2-.8.5-1.1.9s-.7.9-1,1.4-.6,1.1-.7,1.6h0Z"/>
      <path class="cls-6" d="M113.9,71.6c-.2.8,0,1.3,0,1.6.3.3.6.4,1.2.3.5,0,1.1-.3,1.8-.7.7-.4,1.3-.8,1.9-1.4.6-.6,1.2-1.2,1.7-1.9s.9-1.4,1-2.1c0-.3.2-.3.5-.3s.5.2.8.5c.3.2.5.5.6.8.2.3.2.5.2.7-.2.6-.5,1.2-.9,1.8s-.9,1.2-1.5,1.8-1.2,1.1-1.8,1.6c-.7.5-1.3.9-2,1.3-.5.2-1.1.4-1.7.6-.6.2-1.2.3-1.8.3s-1.1,0-1.6-.1-1-.4-1.3-.7c-.4-.3-.6-.8-.8-1.4s-.2-1.4,0-2.3c0-.5.2-1,.3-1.5,0-.5.2-1,.3-1.5.4-2,.9-4.1,1.6-6.4.6-2.2,1.4-4.4,2.2-6.6.3-.7.6-1.3,1-1.9.4-.5.9-1,1.3-1.2.5-.3,1-.5,1.5-.5s1.1,0,1.6.4c.6.3,1,.8,1.3,1.5s.4,1.5.3,2.3c0,.9-.3,1.8-.6,2.9-.4,1-.8,2-1.4,3.1-.6,1-1.3,2-2.1,3-.8,1-1.7,1.8-2.7,2.5,0,0,0,.2-.2.5,0,.3-.2.7-.3,1,0,.4-.2.8-.3,1.1,0,.4,0,.6,0,.7v.2ZM119.2,56.2c-.2-.5-.5-.6-.9-.1-.4.4-.8,1.2-1.1,2.4,0,.4-.3.9-.5,1.6s-.4,1.4-.6,2c-.2.7-.5,1.5-.8,2.5,0,0,0,0,.2-.2,0-.1.2-.2.3-.3.5-.5,1-1.2,1.5-1.9s.9-1.5,1.2-2.2c.3-.8.6-1.5.7-2.2s0-1.2,0-1.6Z"/>
      <path class="cls-6" d="M124.7,68.3c-.2,1.3-.3,2.3,0,3,.2.8.5,1.3,1,1.6s1,.5,1.7.4,1.4-.3,2.1-.7c.7-.4,1.4-.9,2.1-1.6s1.3-1.5,1.9-2.4c.2-.4.4-.6.7-.9.3-.2.6-.2.9,0l.6.4c.3.2.4.4.4.6s0,.5-.1.8c-.5,1.2-1.2,2.3-2.2,3.3s-2.1,1.8-3.2,2.5c-1.2.6-2.4,1.1-3.6,1.3-1.2.2-2.3.1-3.3-.3-1-.4-1.7-1.1-2.3-2.2-.6-1.1-.8-2.6-.7-4.5,0-.9.3-1.8.6-2.8.3-.9.7-1.8,1.1-2.7s1-1.7,1.6-2.4,1.2-1.3,1.9-1.8c.7-.5,1.4-.8,2.1-1s1.4-.3,2-.1c.7.2,1.3.6,1.7,1.1.4.6.5,1.5.2,2.7,0,.2-.1.4-.2.6,0,.2-.2.4-.3.6s-.3.4-.4.5c-.2.1-.3.2-.5.2-.5,0-.9,0-1.2-.3s-.4-.6-.1-1.1c.2-.4.3-.8.3-1s-.1-.4-.3-.4-.5,0-.8.3c-.3.2-.7.5-1.1,1-.5.6-1,1.4-1.4,2.3-.4.9-.7,1.9-.9,3h-.3Z"/>
      <path class="cls-6" d="M133.1,67.1c0-.2.2-.5.2-.8s.2-.6.3-1c.1-.3.3-.6.4-.9.1-.3.2-.6.4-.8.1-.3.3-.5.6-.6.3-.2.6-.2.9,0,.3,0,.4.2.5.2h.1c0-.4,0-.9.3-1.4.2-.5.4-1,.8-1.4s.9-.8,1.4-1c.6-.3,1.3-.3,2.1-.3,1,.1,1.8.5,2.5,1.1.8.7,1.3,1.7,1.6,2.8s.3,2.5,0,4c.4-.1,1-.3,1.7-.6s1.6-.8,2.7-1.6c.2,0,.3,0,.4.3.1.3.2.6.2.9s0,.7-.2,1.1c-.1.4-.3.7-.6.9-.2.1-.5.3-.8.5s-.7.3-1.2.5c-.4.2-.9.3-1.4.4-.5.1-1,.2-1.5.3-.5,1.5-1.2,2.8-2,3.9-.9,1.1-1.9,2-3,2.5-.5.2-.9.3-1.4.4h-1.4c-1.1-.2-2-.6-2.6-1.2-.6-.6-1.1-1.4-1.3-2.2-.3-.9-.4-1.8-.3-2.9s.2-2,.4-3h.2ZM137.2,66c-.3.7-.4,1.3-.6,1.8-.1.5-.2,1.1-.3,1.7s-.1,1.2,0,1.8c0,.6.2,1,.4,1.4s.6.6,1.2.7c.5,0,.9,0,1.3-.3.4-.3.7-.7,1.1-1.1.3-.4.6-.9.8-1.5s.3-1,.4-1.4c-.6,0-1.1-.2-1.6-.5s-.9-.6-1.2-1-.6-.7-.8-1-.3-.5-.4-.7h-.3ZM141.8,62.7c-.2-.4-.4-.6-.7-.7-.3-.1-.6-.1-.9,0-.3,0-.6.3-.8.5-.2.3-.4.6-.4.9,0,.5,0,.9.2,1.4.2.4.4.8.7,1.2.3.3.6.6,1,.8s.7.3,1,.4c.1-.7.2-1.5.3-2.2,0-.8,0-1.5-.4-2.2h0Z"/>
      <path class="cls-6" d="M152.6,65.4c-.3,1.2-.6,2.3-.9,3.1s-.4,1.5-.5,2.1c-.1.5-.2,1-.3,1.3,0,.3-.1.5-.2.7s0,.3,0,.4v.4c-.1.5-.2.9-.2,1.3s0,.7-.1,1-.2.5-.5.6c-.2.1-.6.2-1.1.2h-1.5c-.2,0-.4-.2-.5-.3s-.2-.4-.3-.8c0-.3,0-.8.1-1.3.2-.9.3-1.7.5-2.5s.3-1.4.5-2,.3-1.2.5-1.7.3-1,.5-1.5c.3-1,.5-2,.7-2.9s.3-1.7.3-2.3,0-.3,0-.5,0-.3.2-.5.4-.3.7-.4c.3,0,.9-.1,1.7-.1s1.4.5,1.4,1.4c.3-.3.6-.5,1-.7s.8-.4,1.2-.6h.3c.3-.2.7-.3,1.2-.3s.8,0,1.2.2c.4.1.8.4,1.1.7s.6.7.8,1.2h0c.7-.8,1.4-1.4,2.2-1.7s1.5-.5,2.1-.5c.9,0,1.6.1,2.2.5.5.3.9.8,1.1,1.4.2.6.3,1.3.2,2.2,0,.9-.3,1.8-.6,2.8-.1.5-.3,1.1-.5,1.8s-.6,1.7-1,3c-.3.9-.4,1.5-.2,1.9.1.4.4.5.8.4s1-.6,1.7-1.4c.7-.8,1.5-1.9,2.4-3.3.2-.3.4-.3.6-.1s.4.4.6.8c.2.3.3.7.4,1.1v.9c-.3.4-.6.9-.9,1.3-.4.5-.8.9-1.2,1.4s-.9.9-1.4,1.3c-.5.4-1,.8-1.5,1-.6.3-1.3.5-2.1.6-.8,0-1.4,0-2-.4-.4-.2-.7-.6-.9-1s-.3-.9-.3-1.5,0-1.1.2-1.8c.1-.6.3-1.2.5-1.9.2-.8.4-1.5.6-2.2.2-.7.4-1.3.5-1.7.8-2.9.5-4.3-.9-4.2-.3,0-.6.2-.9.4s-.5.5-.7.8-.4.7-.6,1-.3.8-.4,1.1l-2.2,9.7c-.1.5-.3.8-.5.9-.2.1-.5.2-.9.2h-1.4c-.3,0-.5,0-.6-.1s-.2-.3-.2-.4v-.8c0-.2.1-.6.2-1.2.1-.6.3-1.3.5-2.2s.4-1.9.6-3,.5-2.4.7-3.7v-1.9c0-.3-.2-.5-.4-.6s-.4-.2-.8-.2-1,.4-1.5.9-.8,1.4-1.2,2.3h-.1Z"/>
      <path class="cls-6" d="M173.5,68.2c-.1.5-.2,1-.3,1.6v1.3c.1,1.1.6,1.7,1.3,2.1.8.3,1.7.4,2.7,0,1-.3,2.1-.9,3.2-1.9,1.1-.9,2.1-2.2,2.9-3.7.2-.3.4-.4.7-.2.2.1.5.3.7.6s.3.6.4,1c0,.4,0,.7-.1.9-.3.7-.7,1.3-1.3,2s-1.2,1.3-2,1.8c-.7.5-1.6,1-2.4,1.5s-1.7.8-2.6,1-1.7.3-2.5.3-1.6-.2-2.3-.5c-.9-.5-1.5-1.3-1.8-2.3s-.5-2.1-.4-3.2c0-1.2.2-2.3.6-3.5.3-1.2.8-2.3,1.2-3.2.7-1.2,1.4-2.2,2.3-3,.9-.8,1.6-1.3,2.3-1.5.8-.3,1.6-.3,2.4-.2.8.2,1.4.5,1.9,1s.8,1.1.9,1.9c.1.8,0,1.7-.5,2.8-.4.7-.8,1.3-1.3,1.9-.5.6-1,1-1.7,1.4-.6.3-1.3.5-2,.6-.7,0-1.5-.1-2.4-.5h.1ZM174,66.1c.5.2,1,.3,1.5.3s.9-.2,1.2-.4c.4-.2.7-.5.9-.9s.4-.7.5-1.1c.1-.4.1-.7.1-1s-.2-.6-.4-.7c-.3-.2-.6-.3-1,0-.4.2-.8.5-1.1.9-.4.4-.7.9-1,1.4s-.6,1.1-.7,1.6h0Z"/>
    </g>
  </g>
  <g id="Group_650" data-name="Group 650">
    <g class="cls-9">
      <g id="Group_612" data-name="Group 612">
        <path id="Path_9057" data-name="Path 9057" class="cls-6" d="M341.7,415.2c-1.1.9-2.4,1.8-3.7,2.5-.3.2-.6.5-.7.9-.6,2.1-1.5,4-2.6,5.8-1,1.8-2.8,3.1-4.8,3.5-1.4.2-2.7-.4-3.4-1.6-.5-.8-.8-1.8-.9-2.8-.4.7-.7,1.4-1.1,2.1-.7,1.3-1.6,2.5-2.7,3.4-1.7,1.5-4.1,1.8-6,.8-1.3-.7-2.3-1.9-2.7-3.4-.2.4-.4.9-.7,1.3-.9,1.6-2.1,2.9-3.7,3.8-.7.5-1.5.7-2.4.6-1.1-.1-2.1-.9-2.5-2s-.6-2.2-.5-3.4c.3-2.9,1.6-5.7,3.6-7.8,1-1.2,2.3-2.1,3.8-2.5.6-.2,1.1-.2,1.7,0,.3,0,.6.2.8.5,0,.2.2.1.3,0,.2,0,.3-.2.5-.2.6-.2,1.2.1,1.4.7v.4c0,.7,0,1.3-.3,1.9-.6,1.8-.7,3.8-.4,5.7.1,1.7,1.6,3,3.3,2.9,1.1-.1,2.1-.7,2.8-1.5,1.2-1.3,2.1-2.9,2.6-4.6,1.1-3.2,1.9-6.5,2.4-9.8.5-3.1,1-6.2,1.5-9.4,0-.4,0-.7.1-1.1v-.4c0-.6.6-1.1,1.3-1.1s1.1.6,1.1,1.2,0,1.4-.2,2.1c-.7,4.3-1.4,8.5-2.1,12.8-.2,1.4-.4,2.8-.4,4.2s0,2.5.5,3.8c.5,1.4,1.2,1.7,2.5,1.1,1.1-.5,2-1.4,2.6-2.5.8-1.3,1.5-2.8,2-4.2.2-.4-.1-.4-.4-.5-2-.4-3.6-1.9-3.9-4-.3-1.9.8-3.7,2.6-4.2,1.3-.2,2.6.4,3.3,1.5.7,1.1,1.2,2.3,1.2,3.6.6-.3,1.3-.7,1.8-1.2.6-.5,1.2-1,2-1.2.2,0,.4-.2.6-.4,1.2-.8,2.5-1.4,3.8-1.9.7-.3,1.6-.5,2.4-.4.6,0,1.1.5,1.1,1.1v.3c0,.3-.3.5-.5.6-.5.1-1,.2-1.5.3-1.2.2-2.3.8-3.1,1.7-.7.6-.7,1.6-.2,2.3,0,0,.2.2.3.2.8.8,1.6,1.5,2.3,2.4,1.1,1.3,1.8,2.9,1.9,4.6.4,3-1.7,5.8-4.7,6.2-2,.3-3.9-.5-5.1-2.1-.4-.4-.4-1,0-1.4h0c.5-.3,1.1-.3,1.5,0,.3.2.5.4.8.7,1.3,1.1,3.3,1,4.4-.3.1-.1.2-.3.3-.5.6-.9.8-2,.6-3.1-.3-1.2-.8-2.2-1.7-3.1-.4-.5-.9-.9-1.3-1.3-1-.9-1.9-1.9-1.8-3.5M305.5,427.3c0,.6.1,1.3.3,1.9.1.4.6.7,1,.6.5,0,.9-.3,1.2-.6,1.3-1,2.3-2.3,3-3.8.9-2,1.5-4.1,1.8-6.2q.2-.9-.7-.9c-.8,0-1.5.3-2.2.7-.9.7-1.8,1.5-2.4,2.4-1.3,1.7-2.1,3.8-2.2,5.9M333.9,412.3c-.2,0-.5,0-.6.3-.3.4-.5.9-.4,1.4.2,1.1,1,2.1,2.1,2.3.4,0,.6,0,.6-.5,0-1-.2-2.1-.8-2.9-.2-.3-.6-.5-1-.5"/>
        <path id="Path_9058" data-name="Path 9058" class="cls-6" d="M309.7,402.4h-.4c-2.7.9-5.3,1.8-7.9,2.7-4.3,1.4-8.6,2.5-13.1,3.2-2.5.4-5,.6-7.5.6h-2.1c-.6,0-1.1-.4-1.1-.9s.4-1,1-1h.7c2,0,4,0,6-.3,1.2-.1,2.4-.3,3.6-.5,5.4-1,10.8-2.4,16-4.3,2-.7,3.9-1.4,5.9-1.9.5-.2,1-.2,1.5-.2s1.1.7,1.1,1.3,0,.3-.1.4c-.3.5-.6,1-1.1,1.4-1.7,1.7-3.4,3.3-5.2,4.9-2.5,2.4-4.9,4.8-7.2,7.3-1.5,1.6-2.9,3.1-4.4,4.7-5.5,5.9-10.6,12.2-15.2,18.8-.2.2-.3.5-.5.7,0,0-.1.1,0,.2h.3c.6-.1,1.2-.3,1.8-.4,2.2-.6,4.4-1,6.7-1.3,2.5-.4,5.1-.7,7.6-.9,2-.2,4-.3,6-.5s4-.4,5.9-.5c1.8-.2,3.6-.4,5.4-.7h.7c.5.1.7.4.8.8,0,.5-.2.9-.7,1h0c-1,.3-2.1.4-3.2.5-2.1.2-4.3.5-6.4.6-1.8.2-3.7.3-5.5.4-2.5.2-4.9.4-7.3.7-3.9.5-7.8,1.3-11.6,2.2-.5.2-1.1.2-1.6,0-.8-.1-1.4-.9-1.3-1.7v-.3c.2-.7.6-1.3,1-1.9.9-1.3,1.8-2.5,2.8-4,1.4-1.9,3-3.9,4.6-5.9,2.7-3.3,5.6-6.5,8.5-9.7,1.3-1.4,2.6-2.7,3.8-4.1,2.7-2.9,5.5-5.6,8.3-8.4s2.1-1.9,3.1-2.9c0,0,.2-.1.3-.3"/>
        <path id="Path_9059" data-name="Path 9059" class="cls-6" d="M339.3,402.2c.1.6-.3,1.1-.8,1.2-.5,0-1-.2-1.2-.7-.1-.3-.2-.6-.3-1-.2-.8-.5-1.6-.8-2.3v-.2c-.3-.7-.2-1.2.3-1.4.6-.3,1.3-.1,1.6.5.4.8.8,1.6,1,2.5.2.5.3.9.3,1.4"/>
      </g>
    </g>
  </g>
</svg>