<?xml version="1.0" encoding="UTF-8"?>
<svg id="Layer_1" data-name="Layer 1" xmlns="http://www.w3.org/2000/svg" version="1.1" viewBox="0 0 32.7 32.7">
  <defs>
    <style>
      .cls-1 {
        fill: #053c96;
        stroke: #053c96;
        stroke-linecap: round;
        stroke-linejoin: round;
      }
    </style>
  </defs>
  <path id="Path_9466" data-name="Path 9466" class="cls-1" d="M11.6.5h9.7c.4.1.8.5.8,1v2.3q0,.3.3.3h4.7c.1,0,.3,0,.4,0,.3,0,.6,0,.9,0h3c.3,0,.7.1.9.4,0,.1.1.2.2.4v.5c0,.1,0,.3-.2.4-.2.3-.5.4-.8.4h-2.8c-.2,0-.2,0-.2.2,0,.5,0,.9,0,1.4,0,.7,0,1.3-.1,2,0,.8,0,1.6-.1,2.4,0,.4,0,.8,0,1.2,0,.7,0,1.3-.1,2,0,.4,0,.8,0,1.3,0,.7,0,1.4-.1,2,0,.4,0,.9,0,1.3,0,.7,0,1.3-.1,2,0,.5,0,.9,0,1.4,0,.6,0,1.2-.1,1.8,0,.5,0,1,0,1.5,0,.8-.1,1.6-.1,2.4,0,.8,0,1.6-.1,2.3,0,.4-.3.8-.6.9h-.2c0,0-19.2,0-19.2,0,0,0,0,0-.1,0-.4-.1-.6-.5-.7-.9,0,0,0-.2,0-.3,0-.3,0-.5,0-.8,0-.7,0-1.4-.1-2.1,0-.4,0-.8,0-1.2,0-.7,0-1.3-.1-2,0-.4,0-.8,0-1.2,0-.7,0-1.4-.1-2.1,0-.4,0-.8,0-1.2,0-.6,0-1.3-.1-1.9,0-.5,0-.9,0-1.4,0-.7,0-1.4-.1-2.1,0-.4,0-.8,0-1.2,0-.6,0-1.3-.1-1.9,0-.4,0-.8,0-1.3,0-.8,0-1.6-.1-2.4,0-.6,0-1.3,0-1.9,0-.3,0-.3-.3-.3H1.6c-.5,0-.9-.3-1-.8,0,0,0-.1,0-.2v-.2s0-.1,0-.2c0-.1.1-.3.2-.4.2-.2.5-.4.8-.4,1.4,0,2.8,0,4.2,0h4.7c.2,0,.2,0,.2-.2V1.6c0-.4.2-.8.6-1,0,0,.2,0,.3,0M16.4,6.1H6.8c-.2,0-.2,0-.2.2,0,.2,0,.5,0,.7,0,.4,0,.9,0,1.3,0,.6,0,1.3.1,1.9,0,.5,0,.9,0,1.4,0,.7,0,1.4.1,2.1,0,.4,0,.8,0,1.2,0,.7,0,1.4.1,2.1,0,.4,0,.8,0,1.2,0,.7,0,1.3.1,2,0,.4,0,.8,0,1.3,0,.6,0,1.3.1,1.9,0,.5,0,.9,0,1.4,0,.7,0,1.4.1,2.1,0,.4,0,.8,0,1.2,0,.7,0,1.3.1,2,0,.3,0,.3.3.3h16.4c.1,0,.1,0,.1-.1,0-.2,0-.4,0-.6,0-.4,0-.9,0-1.3,0-.7,0-1.4.1-2,0-.4,0-.8,0-1.2,0-.7,0-1.4.1-2.1,0-.4,0-.9,0-1.3,0-.6,0-1.2.1-1.9,0-.5,0-1,0-1.5,0-.7,0-1.4.1-2.1,0-.4,0-.8,0-1.2,0-.7,0-1.4.1-2.1,0-.4,0-.8,0-1.3,0-.7,0-1.3.1-2,0-.4,0-.8,0-1.3,0-.6,0-1.3.1-1.9h0c0-.2,0-.2-.1-.3h-9.6M16.4,4.1h3.5c.2,0,.2,0,.2-.2v-1.2c0-.2,0-.2-.2-.2h-6.9c-.2,0-.2,0-.2.2v1.1q0,.2.2.2h3.4"/>
  <path id="Path_9467" data-name="Path 9467" class="cls-1" d="M12.5,27.2c0,.1,0,.2,0,.4,0,.6-.6.9-1.2.8-.4,0-.8-.4-.8-.8,0,0,0-.2,0-.3,0-.8,0-1.6-.1-2.5,0-.7,0-1.4-.1-2.1,0-.9-.1-1.9-.2-2.8,0-.7,0-1.4-.1-2.1,0-.8,0-1.6-.1-2.4,0-.5,0-1,0-1.5,0-.6,0-1.2-.1-1.8,0-.4,0-.7,0-1.1,0-.7,0-1.3-.1-2,0-.2,0-.5.2-.7.3-.4,1-.5,1.4-.2.2.1.3.4.4.6,0,.3,0,.5,0,.8,0,.7,0,1.3.1,2,0,.4,0,.8,0,1.2,0,.7,0,1.3.1,2,0,.4,0,.8,0,1.3,0,.7,0,1.3.1,2,0,.4,0,.7,0,1.1,0,.8,0,1.6.1,2.4,0,.7,0,1.3.1,2,0,.5,0,.9,0,1.4,0,.6,0,1.3.1,1.9,0,0,0,.2,0,.3"/>
  <path id="Path_9468" data-name="Path 9468" class="cls-1" d="M20.3,27.3c0-.4,0-.9,0-1.3,0-.2,0-.5,0-.7,0-.6,0-1.3,0-1.9,0-.8,0-1.6.1-2.4,0-.6,0-1.3,0-1.9s0-1.3.1-1.9c0-.4,0-.8,0-1.2,0-.7,0-1.4.1-2,0-.4,0-.8,0-1.2,0-.7,0-1.4.1-2.1,0-.4,0-.9,0-1.3,0-.1,0-.3,0-.4,0-.4.3-.8.8-.9.5-.1,1.1.2,1.2.8,0,0,0,.1,0,.2,0,0,0,.2,0,.3,0,.4,0,.8,0,1.3,0,.7,0,1.3-.1,2,0,.4,0,.8,0,1.3,0,.7,0,1.3-.1,2,0,.4,0,.8,0,1.2,0,.7,0,1.4-.1,2.1,0,.5,0,.9,0,1.4,0,.6,0,1.3-.1,1.9,0,.4,0,.8,0,1.3,0,.7,0,1.4-.1,2,0,.4,0,.8,0,1.2,0,.2,0,.3,0,.5,0,.6-.5,1-1,1s-1-.5-1-1c0,0,0,0,0,0"/>
  <path id="Path_9469" data-name="Path 9469" class="cls-1" d="M17.4,18.2v9c0,.1,0,.3,0,.4-.1.5-.7.9-1.2.7-.4-.1-.8-.5-.8-.9V9.2c0-.1,0-.2,0-.3,0-.6.6-.9,1.2-.8.5,0,.8.5.8,1,0,0,0,.2,0,.2v9"/>
</svg>