<?xml version="1.0" encoding="UTF-8"?>
<svg id="Layer_1" data-name="Layer 1" xmlns="http://www.w3.org/2000/svg" version="1.1" viewBox="0 0 168.8 166">
  <defs>
    <style>
      .cls-1 {
        fill: #b71923;
      }

      .cls-1, .cls-2, .cls-3 {
        stroke-width: 0px;
      }

      .cls-2 {
        fill: #fdf9e8;
      }

      .cls-3 {
        fill: #053c96;
      }

      .cls-4 {
        isolation: isolate;
      }
    </style>
  </defs>
  <circle id="Ellipse_36" data-name="Ellipse 36" class="cls-2" cx="83" cy="83" r="83"/>
  <g class="cls-4">
    <path class="cls-3" d="M36.7,82.9c-.4-1.5-.9-2.8-1.7-3.8s-1.6-2.1-2.5-3.3c-.8-1-1.7-2-2.7-3-1-1-1.9-2-2.7-3.1s-1.5-2.2-2.1-3.3c-.6-1.1-1-2.4-1.1-3.7-.3-1.7-.3-3.2.2-4.8.5-1.5,1.2-2.9,2.2-4.2,1-1.3,2.1-2.4,3.4-3.3,1.3-1,2.6-1.7,4-2.2,1.1-.4,2.3-.7,3.5-.8,1.2-.1,2.4,0,3.5.3,1.1.3,2.1.9,2.9,1.6.9.7,1.5,1.7,2,2.9.2.7.4,1.7.5,2.8,0,1.2,0,2.3-.2,3.4-.2,1.1-.6,2.1-1.2,2.9-.6.8-1.4,1.3-2.4,1.4-.3,0-.7,0-1.1,0-.4,0-.8,0-1.2,0-.4,0-.8-.1-1.2-.2-.4-.1-.7-.2-.9-.4-.4-.2-.6-.5-.6-.8,0-.3,0-.6.1-1,.1-.3.3-.6.4-.9.2-.3.3-.5.3-.6.6-1.3.9-2.4.8-3.3s-.4-1.6-.9-2c-.5-.5-1.1-.7-1.8-.6-.7,0-1.4.3-2.1.8-.7.5-1.2,1.2-1.7,2.2-.5,1-.7,2.3-.6,3.8,0,1.6.7,3.1,1.7,4.6,1.1,1.5,2.3,3,3.7,4.5,1.4,1.5,2.8,3.1,4.1,4.8,1.4,1.7,2.4,3.5,3.1,5.5.8,2.3,1,4.7.8,7-.3,2.3-1,4.5-2.1,6.5-1.1,2-2.6,3.8-4.4,5.3-1.8,1.5-3.9,2.7-6.3,3.4-2.8.7-5.3.8-7.6.2-2.3-.6-4.3-1.6-5.9-3s-2.9-3.1-3.8-5.1c-.9-2-1.3-4.1-1.3-6.2,0-2.1.5-4.2,1.5-6.3,1-2,2.5-3.8,4.6-5.2,1.1-.6,2.1-1,2.9-1.2.8-.1,1.5-.2,2,0,.6,0,1,.3,1.4.5.4.2.7.4.9.6.6.5,1,1.1,1.4,1.8.3.7.5,1.4.6,2.1,0,.7-.1,1.2-.5,1.7-.4.5-1,.7-1.8.7-1.2,0-2.2.3-2.9,1.1-.7.8-1.2,1.7-1.4,2.8-.2,1.1-.2,2.3.1,3.5.3,1.2.8,2.3,1.5,3.2.8.9,1.7,1.6,2.9,2,1.2.4,2.6.4,4.2-.2,1.2-.3,2.3-.8,3.1-1.6.8-.8,1.5-1.7,2-2.7.5-1,.7-2.2.8-3.3,0-1.2,0-2.4-.3-3.5Z"/>
    <path class="cls-3" d="M47.7,75.2c0-.4.2-.9.3-1.5.1-.6.2-1.2.4-1.8.2-.6.3-1.2.5-1.8.2-.6.3-1,.5-1.4.2-.5.5-.9.9-1.3.4-.4,1-.5,1.6-.3.5.1.8.2,1,.3.2,0,.3,0,.3,0,0-.8,0-1.6.2-2.5.2-.9.6-1.8,1.2-2.6.6-.8,1.4-1.5,2.4-2.1,1-.6,2.2-.9,3.7-.9,1.8,0,3.4.5,4.7,1.5,1.5,1.2,2.6,2.8,3.4,4.7.7,2,1,4.4.8,7.2.7-.3,1.7-.8,3-1.4,1.3-.7,2.8-1.8,4.5-3.3.3-.2.6,0,.8.4.3.4.5,1,.6,1.6.1.6,0,1.3,0,2-.2.7-.5,1.3-1,1.7-.3.3-.8.6-1.4,1-.6.4-1.3.7-2,1.1-.7.4-1.6.7-2.4,1-.9.3-1.7.6-2.6.7-.6,2.7-1.6,5.2-2.9,7.4-1.3,2.2-3,3.9-5,5-.8.4-1.6.7-2.4,1-.8.2-1.7.3-2.5.3-2,0-3.6-.6-4.9-1.6-1.2-1-2.2-2.2-2.8-3.8-.6-1.5-1-3.2-1.1-5.1-.1-1.9,0-3.7.2-5.5ZM54.9,72.4c-.3,1.3-.6,2.4-.7,3.3-.1,1-.2,2-.3,3.2,0,1.1,0,2.2.2,3.2.2,1,.5,1.8,1,2.5.5.7,1.2,1,2.2,1,.9,0,1.7-.2,2.3-.8.7-.6,1.2-1.3,1.7-2.2s.8-1.8,1.1-2.7c.3-1,.4-1.8.5-2.6-1.1,0-2.1-.2-3-.7-.9-.4-1.7-.9-2.4-1.5-.7-.6-1.3-1.1-1.7-1.6-.4-.5-.7-.9-.9-1.1ZM62.4,65.8c-.4-.6-.9-1-1.4-1.1-.6-.2-1.1-.1-1.7,0-.5.2-1,.6-1.4,1.1-.4.5-.5,1.1-.5,1.7,0,.8.3,1.6.7,2.4.4.8.9,1.4,1.5,2,.6.6,1.2,1,1.9,1.3.7.3,1.3.5,1.9.4.1-1.3.1-2.7,0-4,0-1.4-.4-2.6-1.1-3.8Z"/>
    <path class="cls-3" d="M82.6,62.9c-.3,2.4-.8,5.1-1.5,8.1-.7,3-1.8,5.9-3.2,8.7-.2.4-.6.8-1.3.9-.6.2-1.3.2-1.9.1-.6-.1-1.1-.3-1.5-.7-.4-.3-.5-.8-.2-1.4.3-.8.7-1.6,1.1-2.6.4-.9.8-1.9,1.2-3.1.4-1.2.7-2.5.9-3.9.3-1.4.4-3.1.4-5,0-.3,0-.6,0-.8,0-.2,0-.3-.1-.4,0-.1-.2-.3-.4-.4-.2-.2-.5-.4-.9-.8-.8-.8-1.2-1.5-1.2-2.3,0-.8.1-1.5.5-2.1.4-.7.9-1.2,1.7-1.8.7-.5,1.4-.9,2.2-1.1.8-.2,1.5-.2,2.1-.1.6.1,1.1.5,1.4,1.1,0,0,.1.2,0,.2,0,0,0,.2-.1.3,0,.1-.1.3-.1.4,0,.2,0,.4,0,.7,0,.3.2.5.4.6.2.1.5.2.8.2.3,0,.6,0,.8,0,.3,0,.5,0,.7-.1.2,0,.6-.1,1.2-.3.6-.2,1.2-.3,2-.4.7-.1,1.4-.1,2.2-.1.7,0,1.4.3,1.9.7.6.4,1,1.1,1.2,2,.3.9.3,2.2,0,3.8-.3,2.3-.8,4.4-1.5,6.4-.8,2-1.4,4.1-2,6.2-.4,1.5-.6,2.8-.6,3.8,0,1,.2,1.7.6,2.1s.9.5,1.6.2c.7-.3,1.5-.9,2.4-2,.5-.6,1-1.4,1.6-2.4.6-1,1.2-2.1,1.9-3.3.3-.5.6-.7.8-.7.2,0,.6,0,1,0,.4,0,.8.2,1.2.3.4,0,.8.2,1.1.3.3.1.5.3.7.5s.1.5,0,.8c-.5,1.1-1.2,2.3-1.9,3.7-.8,1.4-1.6,2.7-2.6,3.9-1,1.2-2.1,2.3-3.3,3.2-1.2.9-2.5,1.4-3.9,1.5-1.7.1-3-.1-4-.8-1-.7-1.8-1.6-2.3-2.8-.5-1.2-.7-2.6-.6-4.3,0-1.6.4-3.4.9-5.2.1-.6.3-1.4.6-2.2s.5-1.8.8-2.8c.2-1,.4-1.9.6-2.8.1-.9.1-1.7,0-2.4-.1-.7-.5-1.2-1-1.5-.5-.3-1.3-.4-2.3-.1Z"/>
    <path class="cls-3" d="M105.6,60.5c-.3,2.4-.8,5.1-1.5,8.1-.7,3-1.8,5.9-3.2,8.7-.2.4-.6.8-1.3.9-.6.2-1.3.2-1.9.1-.6-.1-1.1-.3-1.5-.7-.4-.3-.5-.8-.2-1.4.3-.8.7-1.6,1.1-2.6.4-.9.8-1.9,1.2-3.1.4-1.2.7-2.5.9-3.9.3-1.4.4-3.1.4-5,0-.3,0-.6,0-.8,0-.2,0-.3-.1-.4,0-.1-.2-.3-.4-.4-.2-.2-.5-.4-.9-.8-.8-.8-1.2-1.5-1.2-2.3,0-.8.1-1.5.5-2.1.4-.7.9-1.2,1.7-1.8.7-.5,1.4-.9,2.2-1.1.8-.2,1.5-.2,2.1-.1.6.1,1.1.5,1.4,1.1,0,0,.1.2,0,.2,0,0,0,.2-.1.3,0,.1,0,.3-.1.4,0,.2,0,.4,0,.7,0,.3.2.5.4.6.2.1.5.2.8.2.3,0,.6,0,.8,0,.3,0,.5,0,.7-.1.2,0,.6-.1,1.2-.3.6-.2,1.2-.3,2-.4.7-.1,1.4-.1,2.2-.1.7,0,1.4.3,1.9.7.6.4,1,1.1,1.2,2,.3.9.3,2.2,0,3.8-.3,2.3-.8,4.4-1.5,6.4-.8,2-1.4,4.1-2,6.2-.4,1.5-.6,2.8-.6,3.8,0,1,.2,1.7.6,2.1s.9.5,1.6.2c.7-.3,1.5-.9,2.4-2,.5-.6,1-1.4,1.6-2.4.6-1,1.2-2.1,1.9-3.3.3-.5.6-.7.8-.7s.6,0,1,0c.4,0,.8.2,1.2.3.4,0,.8.2,1.1.3.3.1.5.3.7.5.1.2.1.5,0,.8-.5,1.1-1.2,2.3-1.9,3.7-.8,1.4-1.6,2.7-2.6,3.9-1,1.2-2.1,2.3-3.3,3.2-1.2.9-2.5,1.4-3.9,1.5-1.7.1-3-.1-4-.8-1-.7-1.8-1.6-2.3-2.8-.5-1.2-.7-2.6-.6-4.3,0-1.6.4-3.4.9-5.2.1-.6.3-1.4.6-2.2.3-.9.5-1.8.8-2.8.2-1,.4-1.9.6-2.8.1-.9.1-1.7,0-2.4-.1-.7-.5-1.2-1-1.5s-1.3-.4-2.3-.1Z"/>
    <path class="cls-3" d="M138.4,78.9c.3-.2.7-.6,1.3-1.1.6-.5,1.2-1.2,1.9-2.1.7-.9,1.6-2,2.5-3.3.9-1.3,1.9-2.8,3-4.6.3-.3.8-.3,1.3.2.5.5,1,1,1.6,1.6.5.5.6,1.1.4,1.7-.2.6-.5,1.1-.8,1.6-.6,1-1.4,2-2.3,3.2-.9,1.2-1.9,2.4-3,3.5-1.1,1.1-2.2,2.2-3.3,3.2s-2.3,1.8-3.3,2.4c-.2,1.1-.4,2.3-.7,3.7-.3,1.3-.6,2.7-1.1,4-.5,1.4-1,2.7-1.7,3.9-.7,1.3-1.5,2.4-2.5,3.3-.7.7-1.4,1.2-2.3,1.7-.9.5-1.8.8-2.7,1-.9.2-1.8.3-2.7.2-.9,0-1.7-.3-2.5-.8-.7-.4-1.3-1-1.7-1.7-.4-.7-.7-1.5-.8-2.3-.1-.8,0-1.7,0-2.6.2-.9.4-1.8.9-2.7.7-1.4,1.6-2.6,2.8-3.6,1.2-1.1,2.5-2,3.7-2.7,1.3-.8,2.4-1.4,3.5-1.9,1.1-.5,1.8-.9,2.1-1.1l.7-4.3c-.4.5-.8,1-1.3,1.5s-1.1.8-1.6,1.2c-.5.3-1,.6-1.5.8-.5.2-.8.4-1.1.4-1.6.4-2.9.4-4,0-1.1-.4-1.9-1-2.6-1.9-.6-.9-1-1.9-1.2-3.2-.2-1.3-.2-2.6,0-4l2.2-15.6c.1-.6.1-1.1.1-1.6,0-.4,0-.9-.2-1.3,0-.3,0-.5,0-.8,0-.3.1-.5.4-.8.2-.3.6-.5,1.1-.7.5-.2,1.3-.4,2.2-.5,1.2-.2,2.1,0,2.7.3.5.3.9.9,1,1.6,0,.8,0,1.7-.2,2.8-.2,1.1-.5,2.4-.7,3.9-.2,1.1-.4,2.1-.6,3-.2.9-.4,1.8-.5,2.7-.2.9-.3,1.8-.4,2.7,0,.9-.1,2-.2,3.1,0,1.4.2,2.4.6,2.9.4.5,1,.8,1.6.7.6,0,1.3-.4,2-.9.7-.6,1.2-1.2,1.7-2,.2-.3.4-.7.5-1,.2-.4.4-1,.5-1.8.2-.8.4-1.9.6-3.3.2-1.4.5-3.2.8-5.5.2-1.3.4-2.5.5-3.8.1-1.2.2-2.5.2-3.7,0-.2-.1-.5-.2-.9,0-.3,0-.7.2-1,.2-.3.6-.6,1.1-.8.6-.2,1.5-.4,2.7-.5.8,0,1.5,0,2.1.3.6.2.9.8,1.1,1.6,0,.3,0,.8,0,1.5,0,.7-.2,1.5-.3,2.3-.1.9-.2,1.8-.4,2.7-.1.9-.3,1.7-.4,2.4l-2,11.9c-.3,1.5-.5,2.6-.6,3.2-.1.6-.2,1.1-.3,1.5ZM131.5,88c-.8.5-1.7,1-2.5,1.6-.8.6-1.6,1.3-2.2,1.9-.6.7-1.2,1.4-1.6,2.1-.4.7-.7,1.5-.8,2.3,0,.9.2,1.5.7,1.7.5.2,1.1.2,1.7-.2.7-.3,1.3-.9,2-1.8.7-.9,1.2-1.9,1.6-3,.2-.9.5-1.7.6-2.3.2-.7.3-1.5.4-2.4Z"/>
  </g>
  <g class="cls-4">
    <path class="cls-1" d="M40.5,121.8c-.4,0-.8,0-1.2,0-.5,0-.9-.2-1.4-.3-.5-.1-.9-.3-1.3-.5-.4-.2-.8-.4-1.1-.6l1.3-2c.3.2.5.3.8.4.3.1.6.2,1,.3.3,0,.7.2,1,.2s.6,0,.9,0,.6,0,.9-.1.6-.2.9-.3c.3-.1.5-.3.6-.6.2-.2.2-.5.2-.9s0-.6-.3-.9c-.2-.2-.4-.4-.6-.6-.3-.1-.5-.2-.8-.3-.3,0-.6,0-.9,0-.6,0-1.2,0-1.9-.3-.6-.2-1.1-.5-1.6-.8-.5-.4-.9-.8-1.1-1.3s-.4-1.1-.4-1.8.1-1.3.4-1.9c.3-.5.7-1,1.1-1.4.5-.4,1-.6,1.6-.8s1.2-.3,1.9-.3,1.7.1,2.5.3c.8.2,1.6.5,2.3.9,0,0,.1,0,.2,0,0,0,0,0,0,.1s0,.1-.2.3-.3.4-.4.7c-.2.2-.3.5-.4.7-.1.2-.2.3-.2.3-.3-.2-.5-.3-.8-.4-.3-.1-.6-.2-1-.3-.3,0-.7-.2-1-.2-.3,0-.6,0-.9,0s-.6,0-.9.1-.6.2-.9.3c-.3.2-.5.4-.6.6-.2.2-.2.5-.2.9,0,.5.1.9.4,1.1s.6.4,1,.5c.4.1.9.2,1.4.3.5,0,1.1.2,1.6.3s1,.4,1.5.6c.5.3.9.7,1.2,1.3.4.6.5,1.3.5,2s-.1,1.3-.4,1.9-.7,1-1.1,1.4c-.5.4-1,.6-1.6.8-.6.2-1.2.3-1.9.3Z"/>
    <path class="cls-1" d="M47.5,112c0-.7.1-1.4.4-2,.3-.6.6-1.1,1.1-1.6.4-.4,1-.8,1.6-1,.6-.2,1.3-.4,2-.4s1.4.1,2,.4,1.2.6,1.6,1c.5.4.8,1,1.1,1.6.3.6.4,1.3.4,2v4.8c0,.7-.1,1.4-.4,2-.3.6-.6,1.1-1.1,1.6-.4.4-1,.8-1.6,1-.6.2-1.3.4-2,.4s-1.4-.1-2-.4c-.6-.2-1.2-.6-1.6-1-.5-.4-.8-1-1.1-1.6-.3-.6-.4-1.3-.4-2v-4.8ZM52.5,109.5c-.4,0-.7,0-1.1.2-.3.1-.6.3-.8.5-.2.2-.4.5-.5.8-.1.3-.2.7-.2,1.1v4.8c0,.4,0,.7.2,1.1.1.3.3.6.5.8.2.2.5.4.8.5.3.1.7.2,1.1.2s.7,0,1.1-.2c.3-.1.6-.3.8-.5.2-.2.4-.5.6-.8.1-.3.2-.7.2-1.1v-4.8c0-.4,0-.8-.2-1.1-.1-.3-.3-.6-.6-.8-.2-.2-.5-.4-.8-.5-.3-.1-.7-.2-1.1-.2Z"/>
    <path class="cls-1" d="M59.8,107.3h2.4v12h5.2v2.4h-7.6v-14.4Z"/>
    <path class="cls-1" d="M69.3,121.6v-14.4h5.1c.7,0,1.3,0,1.9.3.5.2,1,.5,1.4.8.4.3.7.7.9,1.2.2.5.4,1,.6,1.5s.2,1.1.3,1.7c0,.6,0,1.2,0,1.8,0,.9,0,1.8-.2,2.6s-.4,1.6-.7,2.3c-.4.7-.9,1.2-1.5,1.6s-1.5.6-2.6.6h-5.1ZM71.7,119.2h2.7c.7,0,1.2-.2,1.6-.5.4-.3.6-.7.8-1.2.2-.5.2-1,.3-1.6,0-.6,0-1.1,0-1.6s0-1,0-1.6c0-.6-.1-1.1-.3-1.6s-.4-.9-.8-1.2c-.4-.3-.9-.5-1.6-.5h-2.7v9.6Z"/>
    <path class="cls-1" d="M91.4,112c0-.7.1-1.4.4-2,.3-.6.6-1.1,1.1-1.6.4-.4,1-.8,1.6-1s1.3-.4,2-.4,1.4.1,2,.4c.6.2,1.2.6,1.6,1,.5.4.8,1,1.1,1.6.3.6.4,1.3.4,2v4.8c0,.7-.1,1.4-.4,2-.3.6-.6,1.1-1.1,1.6-.4.4-1,.8-1.6,1-.6.2-1.3.4-2,.4s-1.4-.1-2-.4c-.6-.2-1.2-.6-1.6-1s-.8-1-1.1-1.6c-.3-.6-.4-1.3-.4-2v-4.8ZM96.5,109.5c-.4,0-.7,0-1.1.2-.3.1-.6.3-.8.5s-.4.5-.5.8c-.1.3-.2.7-.2,1.1v4.8c0,.4,0,.7.2,1.1.1.3.3.6.5.8s.5.4.8.5c.3.1.7.2,1.1.2s.7,0,1.1-.2c.3-.1.6-.3.8-.5.2-.2.4-.5.6-.8.1-.3.2-.7.2-1.1v-4.8c0-.4,0-.8-.2-1.1-.1-.3-.3-.6-.6-.8-.2-.2-.5-.4-.8-.5-.3-.1-.7-.2-1.1-.2Z"/>
    <path class="cls-1" d="M103.8,107.2h2.4v9.6c0,.4,0,.8.2,1.1s.3.6.6.8.5.4.8.5c.3.1.7.2,1.1.2s.7,0,1.1-.2c.3-.1.6-.3.8-.5.2-.2.4-.5.5-.8.1-.3.2-.7.2-1.1v-9.6h2.4v9.6c0,.7-.1,1.4-.4,2-.3.6-.6,1.1-1,1.6s-1,.8-1.6,1c-.6.2-1.3.4-2,.4s-1.4-.1-2-.4c-.6-.2-1.2-.6-1.6-1-.5-.4-.8-1-1.1-1.6-.3-.6-.4-1.3-.4-2v-9.6Z"/>
    <path class="cls-1" d="M125.9,107.2v2.4h-3.9v12h-2.4v-12h-3.9v-2.4h10.1Z"/>
    <path class="cls-1" d="M127.8,118v-10.8h2.4v10.8h-2.4ZM127.8,119.2h2.4v2.4h-2.4v-2.4Z"/>
  </g>
</svg>