<?xml version="1.0" encoding="UTF-8"?>
<svg id="Layer_1" data-name="Layer 1" xmlns="http://www.w3.org/2000/svg" version="1.1" viewBox="0 0 7.4 11.4">
  <defs>
    <style>
      .cls-1 {
        fill: #053c96;
        stroke-width: 0px;
      }
    </style>
  </defs>
  <path id="Icon_awesome-angle-right" data-name="Icon awesome-angle-right" class="cls-1" d="M7.1,6.3l-4.8,4.8c-.3.3-.9.3-1.2,0,0,0,0,0,0,0l-.8-.8c-.3-.3-.3-.9,0-1.2,0,0,0,0,0,0l3.4-3.4L.3,2.3c-.3-.3-.3-.9,0-1.2,0,0,0,0,0,0l.8-.8c.3-.3.9-.3,1.2,0,0,0,0,0,0,0l4.8,4.8c.3.3.3.9,0,1.2,0,0,0,0,0,0h0Z"/>
</svg>