<?xml version="1.0" encoding="UTF-8"?>
<svg id="Layer_1" data-name="Layer 1" xmlns="http://www.w3.org/2000/svg" version="1.1" viewBox="0 0 7.4 11.4">
  <defs>
    <style>
      .cls-1 {
        fill: #053c96;
        stroke-width: 0px;
      }
    </style>
  </defs>
  <path id="Icon_awesome-angle-right" data-name="Icon awesome-angle-right" class="cls-1" d="M.3,6.3s0,0,0,0c-.3-.3-.3-.9,0-1.2L5.1.3s0,0,0,0c.3-.3.9-.3,1.2,0l.8.8s0,0,0,0c.3.3.3.9,0,1.2l-3.4,3.4,3.4,3.4s0,0,0,0c.3.3.3.9,0,1.2l-.8.8s0,0,0,0c-.3.3-.9.3-1.2,0L.3,6.3h0Z"/>
</svg>